<?xml version="1.0" encoding="UTF-8" standalone="no"?>
<svg width="18px" height="18px" viewBox="0 0 18 18" version="1.1" xmlns="http://www.w3.org/2000/svg" xmlns:xlink="http://www.w3.org/1999/xlink">
    <!-- Generator: Sketch 43.2 (39069) - http://www.bohemiancoding.com/sketch -->
    <title>msngr icon</title>
    <desc>Created with Sketch.</desc>
    <defs>
        <path d="M8.51720648,-2.84217094e-14 C3.813274,-2.84217094e-14 0,3.58289283 0,8.0026447 C0,10.5210796 1.23853952,12.7674735 3.17411408,14.2344123 L3.17411408,17.2857143 L6.07414517,15.6706203 C6.84810017,15.8879723 7.6680268,16.0052908 8.51720648,16.0052908 C13.221139,16.0052908 17.034413,12.4224002 17.034413,8.0026447 C17.034413,3.58289283 13.221139,-2.84217094e-14 8.51720648,-2.84217094e-14 L8.51720648,-2.84217094e-14 Z M9.36363581,10.7768974 L7.1946582,8.4294542 L2.96250657,10.7768974 L7.61787465,5.76190476 L9.83975475,8.10934798 L14.019006,5.76190476 L9.36363581,10.7768974 L9.36363581,10.7768974 Z" id="path-1"></path>
    </defs>
    <g id="Welcome" stroke="none" stroke-width="1" fill="none" fill-rule="evenodd">
        <g id="Desktop-HD" transform="translate(-520.000000, -40.000000)">
            <g id="msngr-icon" transform="translate(520.065789, 40.278746)">
                <mask id="mask-2" fill="white">
                    <use xlink:href="#path-1"></use>
                </mask>
                <g id="Clip-2"></g>
                <polygon id="Fill-1" fill="#007FFF" mask="url(#mask-2)" points="-1.77441802 -1.80059524 18.808831 -1.80059524 18.808831 19.0863095 -1.77441802 19.0863095"></polygon>
            </g>
        </g>
    </g>
</svg>