<?xml version="1.0" standalone="no"?>
<!DOCTYPE svg PUBLIC "-//W3C//DTD SVG 1.1//EN" "http://www.w3.org/Graphics/SVG/1.1/DTD/svg11.dtd" >
<svg>
<metadata>
Created by FontForge 20090914 at Mon May 29 08:44:50 2017
 By www-data
Copyright (c) 2010 by The Entente (AS &#38; EH). All rights reserved.
</metadata>
<defs>
<font id="Monosten-A" horiz-adv-x="1269" >
  <font-face 
    font-family="Monosten"
    font-weight="400"
    font-stretch="normal"
    units-per-em="2048"
    panose-1="2 0 5 9 0 0 0 2 0 4"
    ascent="1536"
    descent="-512"
    x-height="1024"
    cap-height="1434"
    bbox="-2 -514.003 1255 1966"
    underline-thickness="102"
    underline-position="-102"
    unicode-range="U+0020-U+FB02"
  />
<missing-glyph horiz-adv-x="748" 
d="M68 0v1365h544v-1365h-544zM136 68h408v1229h-408v-1229z" />
    <glyph glyph-name=".notdef" horiz-adv-x="748" 
d="M68 0v1365h544v-1365h-544zM136 68h408v1229h-408v-1229z" />
    <glyph glyph-name="space" unicode=" " 
 />
    <glyph glyph-name="exclam" unicode="!" 
d="M469 166c0 46.667 15.833 86 47.5 118s71.167 48 118.5 48s86.833 -16 118.5 -48s47.5 -71.333 47.5 -118s-15.833 -86 -47.5 -118s-71.167 -48 -118.5 -48s-86.833 16 -118.5 48s-47.5 71.333 -47.5 118zM508 1317c2 91.333 44.333 137 127 137s125 -45.667 127 -137
l-37 -739c-2.66699 -72.667 -32.667 -109 -90 -109s-87.333 36.333 -90 109z" />
    <glyph glyph-name="quotedbl" unicode="&#x22;" 
d="M326 1276c0 118.667 41.001 178 123.001 178c81.333 0 122 -59.333 122 -178c0 -74 -13.167 -165.167 -39.5 -273.5s-53.833 -162.5 -82.5 -162.5s-56.334 54.333 -83.001 163s-40 199.667 -40 273zM715.001 1276c0 118.667 41.002 178 123.002 178s123 -59.333 123 -178
c0 -73.333 -13.333 -164.333 -40 -273s-54.334 -163 -83.001 -163s-56.334 54.333 -83.001 163s-40 199.667 -40 273z" />
    <glyph glyph-name="numbersign" unicode="#" 
d="M23 492c0 26.667 9.66797 48.667 29.001 66s43 26 71 26h137l43 266h-180c-28 0 -51.667 8.66699 -71 26s-29 39.333 -29 66s9.66699 48.667 29 66s43 26 71 26h211l49 299c4 28 16.333 51.833 37 71.5s44.667 29.5 72 29.5c51.333 0 77 -27.333 77 -82
c0 -6 -0.666992 -12.333 -2 -19l-49 -299h266l50 299c4 28 16.167 51.833 36.5 71.5s44.166 29.5 71.499 29.5c26 0 45.5 -7.5 58.5 -22.5s19.5 -34.833 19.5 -59.5c0 -6 -0.666992 -12.333 -2 -19l-49 -299h121c28 0 51.667 -8.66699 71 -26s29 -39.333 29 -66
s-9.66699 -48.667 -29 -66s-43 -26 -71 -26h-152l-43 -266h195c28 0 51.667 -8.66699 71 -26s29 -39.333 29 -66c0 -27.333 -9.66699 -49.666 -29 -66.999s-43 -26 -71 -26h-224l-49 -299c-4 -29.333 -15.5 -53.333 -34.5 -72s-43.5 -28 -73.5 -28c-52 0 -78 27.333 -78 82
c0 5.33301 0.666992 11.333 2 18l49 299h-266l-49 -299c-4 -28.667 -15.667 -52.5 -35 -71.5s-44 -28.5 -74 -28.5c-52 0 -78 27.333 -78 82c0 5.33301 0.666992 11.333 2 18l49 299h-108c-28 0 -51.667 8.66699 -71 26s-29 39.666 -29 66.999zM444.001 584h267l43 266h-267
z" />
    <glyph glyph-name="dollar" unicode="$" 
d="M74 317c0 28.667 8.99609 52.667 26.9961 72s41.667 29 71 29c36 0 66 -18.667 90 -56c38 -62.667 79.333 -109.667 124 -141s102.334 -51 173.001 -59v506c-37.333 9.33301 -67.666 17.333 -90.999 24s-52 16 -86 28s-61.5 24 -82.5 36s-43.667 27.667 -68 47
s-43.333 39.833 -57 61.5s-25 47.667 -34 78s-13.5 63.5 -13.5 99.5c0 62.667 11.5 119.167 34.5 169.5s54.667 92 95 125s86 59.167 137 78.5s106.167 31.666 165.5 36.999v53c0 61.333 25.333 92 76 92s76 -30.667 76 -92v-57c155.333 -17.333 271.333 -89 348 -215
c17.333 -30 26 -58 26 -84c0 -31.333 -9.66699 -56.166 -29 -74.499s-43 -27.5 -71 -27.5c-39.333 0 -68.666 19.667 -87.999 59c-42 88 -104 140.667 -186 158v-449c48.667 -14 90.5 -27.333 125.5 -40s72.833 -30.5 113.5 -53.5s73.5 -48.167 98.5 -75.5s46 -62 63 -104
s25.5 -89 25.5 -141c0 -61.333 -11.5 -117.333 -34.5 -168s-54.5 -93 -94.5 -127s-85.167 -61.167 -135.5 -81.5s-104.166 -33.833 -161.499 -40.5v-56c0 -61.333 -25.333 -92 -76 -92s-76 30.667 -76 92v56c-207.333 17.333 -361 104 -461 260c-16 26.667 -24 51 -24 73z
M323.996 1042c0 -46.667 20 -83.668 60 -111.001s98.333 -51.666 175 -72.999v412c-73.333 -7.33301 -130.833 -29.833 -172.5 -67.5s-62.5 -91.167 -62.5 -160.5zM710.996 163.999c74 9.33301 130.667 33.499 170 72.499s59 92.5 59 160.5
c0 60.667 -19.833 108.334 -59.5 143.001s-96.167 63.667 -169.5 87v-463z" />
    <glyph glyph-name="percent" unicode="%" 
d="M41 1135c0 92 29.667 168.167 89 228.5s136 90.5 230 90.5c95.333 0 173.166 -30.167 233.499 -90.5s90.5 -136.5 90.5 -228.5c0 -90.667 -30.167 -166 -90.5 -226s-138.166 -90 -233.499 -90c-94 0 -170.667 30 -230 90s-89 135.333 -89 226zM123 401
c0 24.667 12.335 45.333 37.002 62l860 600c16 12 31.667 18 47 18c17.333 0 32.166 -7 44.499 -21s18.5 -29.333 18.5 -46c0 -26.667 -12 -48 -36 -64l-861 -600c-16 -12 -31.667 -18 -47 -18c-18.667 0 -33.834 7 -45.501 21s-17.5 30 -17.5 48zM190.002 1135
c0 -54 15.333 -98.333 46 -133s72 -52 124 -52c53.333 0 95.833 17.333 127.5 52s47.5 79 47.5 133c0 55.333 -15.833 100.5 -47.5 135.5s-74.167 52.5 -127.5 52.5c-52 0 -93.333 -17.5 -124 -52.5s-46 -80.167 -46 -135.5zM594.002 294.999c0 92 29.667 168.167 89 228.5
s136 90.5 230 90.5c95.333 0 173.166 -30.167 233.499 -90.5s90.5 -136.5 90.5 -228.5c0 -90.667 -30.167 -165.834 -90.5 -225.501s-138.166 -89.5 -233.499 -89.5c-94 0 -170.667 29.833 -230 89.5s-89 134.834 -89 225.501zM743.002 294.999
c0 -54 15.333 -98.167 46 -132.5s72 -51.5 124 -51.5c53.333 0 95.666 17.167 126.999 51.5s47 78.5 47 132.5c0 55.333 -15.667 100.5 -47 135.5s-73.666 52.5 -126.999 52.5c-52 0 -93.333 -17.5 -124 -52.5s-46 -80.167 -46 -135.5z" />
    <glyph glyph-name="ampersand" unicode="&#x26;" 
d="M53 387c0 174 80.6689 307.665 242.002 400.998c-45.333 58 -80.166 111.167 -104.499 159.5s-36.5 101.833 -36.5 160.5c0 105.333 33 189.333 99 252s151 94 255 94c110.667 0 197.667 -31.5 261 -94.5s95 -142.833 95 -239.5c0 -78.667 -23.5 -147.167 -70.5 -205.5
s-117.5 -111.166 -211.5 -158.499l301 -336c33.333 78 55.666 174.333 66.999 289c5.33301 61.333 34.666 92 87.999 92c24 0 43.333 -7.5 58 -22.5s22 -38.167 22 -69.5c0 -67.333 -10.333 -139.5 -31 -216.5s-47 -144.833 -79 -203.5l116 -127
c19.333 -19.333 29 -41.333 29 -66c0 -29.333 -9.33301 -52.666 -28 -69.999s-41.334 -26 -68.001 -26c-27.333 -0 -53.333 12.333 -78 37l-88 96c-58 -56 -120 -95.5 -186 -118.5s-142 -34.5 -228 -34.5c-125.333 0 -227.333 37.5 -306 112.5s-118 173.167 -118 294.5z
M250.002 392.998c0 -66.667 21.666 -123.168 64.999 -169.501s99.333 -69.5 168 -69.5c119.333 0 216.333 35.333 291 106l-362 402c-33.333 -18.667 -61.166 -39.167 -83.499 -61.5s-39 -45.5 -50 -69.5s-18.5 -46.667 -22.5 -68s-6 -44.666 -6 -69.999zM342.001 1118
c0 -40 9.33301 -76.999 28 -110.999s49.667 -75.333 93 -124c70.667 32.667 124.167 67.667 160.5 105s54.5 80.666 54.5 129.999c0 52 -15.5 92 -46.5 120s-72.167 42 -123.5 42c-48 0 -87.667 -14 -119 -42s-47 -68 -47 -120z" />
    <glyph glyph-name="quotesingle" unicode="'" 
d="M510 1276c0 118.667 41.002 178 123.002 178s123 -59.333 123 -178c0 -73.333 -13.333 -164.333 -40 -273s-54.334 -163 -83.001 -163s-56.334 54.333 -83.001 163s-40 199.667 -40 273z" />
    <glyph glyph-name="parenleft" unicode="(" 
d="M389 614c0 173.333 23.833 338.834 71.5 496.501s122.167 295.5 223.5 413.5c22.667 24.667 46.667 37 72 37c24 0 45.333 -9 64 -27s28 -39.333 28 -64c0 -21.333 -7.66699 -43 -23 -65c-170.667 -200.667 -256 -464.334 -256 -791.001c0 -326 85.333 -589.333 256 -790
c15.333 -22 23 -44 23 -66c0 -24.667 -9.33301 -45.834 -28 -63.501s-40 -26.5 -64 -26.5c-30 0 -54 12.333 -72 37c-101.333 118 -175.833 255.833 -223.5 413.5s-71.5 322.834 -71.5 495.501z" />
    <glyph glyph-name="parenright" unicode=")" 
d="M389 -242c0 22 7.66699 43.999 23 65.999c170.667 200.667 256 464 256 790c0 326.667 -85.333 590.334 -256 791.001c-15.333 22 -23 43.667 -23 65c0 24.667 9.33301 46 28 64s40 27 64 27c25.333 0 49.333 -12.333 72 -37c101.333 -118 175.833 -255.833 223.5 -413.5
s71.5 -323.167 71.5 -496.5c0 -172.667 -23.833 -337.834 -71.5 -495.501s-122.167 -295.5 -223.5 -413.5c-18 -24.667 -42 -37 -72 -37c-24 0 -45.333 8.83301 -64 26.5s-28 38.834 -28 63.501z" />
    <glyph glyph-name="asterisk" unicode="*" 
d="M201 711c0 34 19 61.3311 57 81.998l223 129l-223 129c-38 20.667 -57 48 -57 82c0 22 7.16699 40.333 21.5 55s33.166 22 56.499 22c20.667 0 41 -6 61 -18l223 -129v258c0 29.333 7 53.333 21 72s34.333 28 61 28s47 -9.33301 61 -28s21 -42.667 21 -72v-258l223 129
c20 12 40.667 18 62 18c23.333 0 42.166 -7.33301 56.499 -22s21.5 -33 21.5 -55c0 -33.333 -19.333 -60.666 -58 -81.999l-223 -129l223 -129c38.667 -21.333 58 -48.666 58 -81.999c0 -22 -7.16699 -40.5 -21.5 -55.5s-33.166 -22.5 -56.499 -22.5c-21.333 0 -42 6 -62 18
l-223 129v-258c0 -29.333 -7 -53.333 -21 -72s-34.333 -28 -61 -28s-47 9.33301 -61 28s-21 42.667 -21 72v258l-223 -129c-20 -12 -40.333 -18 -61 -18c-23.333 0 -42.166 7.5 -56.499 22.5s-21.5 33.5 -21.5 55.5z" />
    <glyph glyph-name="plus" unicode="+" 
d="M119 616c0 31.333 8.83301 53.5 26.5 66.5s43.5 19.5 77.5 19.5h328v326c0 70 28.667 105 86 105s86 -35 86 -105v-326h328c34 0 59.833 -6.5 77.5 -19.5s26.5 -35.167 26.5 -66.5s-8.83301 -53.5 -26.5 -66.5s-43.5 -19.5 -77.5 -19.5h-328v-327
c0 -70 -28.667 -105 -86 -105s-86 35 -86 105v327h-328c-34 0 -59.833 6.5 -77.5 19.5s-26.5 35.167 -26.5 66.5z" />
    <glyph glyph-name="comma" unicode="," 
d="M459 -195c0 23.333 8.66797 41.3359 26.001 54.0029c32 20 51.667 40.167 59 60.5s11 53.166 11 98.499c-26 14 -46.833 33.833 -62.5 59.5s-23.5 54.5 -23.5 86.5c0 47.333 16 87.166 48 119.499s71.333 48.5 118 48.5c47.333 0 87.166 -16.333 119.499 -49
s48.5 -72.334 48.5 -119.001v-14c-2.66699 -62.667 -21.667 -122 -57 -178s-85.333 -117 -150 -183c-27.333 -27.333 -54 -41 -80 -41c-12 0 -23.667 4.66699 -35 14c-14.667 10.667 -22 25 -22 43z" />
    <glyph glyph-name="hyphen" unicode="-" 
d="M213 616c0 31.333 8.83301 53.5 26.5 66.5s43.5 19.5 77.5 19.5h639c70 0 105 -28.667 105 -86s-35 -86 -105 -86h-639c-34 0 -59.833 6.5 -77.5 19.5s-26.5 35.167 -26.5 66.5z" />
    <glyph glyph-name="period" unicode="." 
d="M469 166c0 46.667 15.833 86 47.5 118s71.167 48 118.5 48s86.833 -16 118.5 -48s47.5 -71.333 47.5 -118s-15.833 -86 -47.5 -118s-71.167 -48 -118.5 -48s-86.833 16 -118.5 48s-47.5 71.333 -47.5 118z" />
    <glyph glyph-name="slash" unicode="/" 
d="M37 90c0 16.667 6.66797 33.667 20.001 51l969 1258c16.667 23.333 37 35 61 35c22 0 44 -9.83301 66 -29.5s33 -40.834 33 -63.501c0 -16 -7 -33 -21 -51l-968 -1255c-16.667 -23.333 -37.334 -35 -62.001 -35c-22.667 0 -44.667 9.33301 -66 28s-32 39.334 -32 62.001z
" />
    <glyph glyph-name="zero" unicode="0" 
d="M180 459v516c0 142 39.667 257.333 119 346s192 133 338 133s258.667 -44.333 338 -133s119 -204 119 -346v-516c0 -142 -39.667 -257.333 -119 -346s-192 -133 -338 -133s-258.667 44.333 -338 133s-119 204 -119 346zM369 524l508 625
c-38.667 91.333 -118.667 137 -240 137c-94.667 0 -163 -26.5 -205 -79.5s-63 -124.833 -63 -215.5v-467zM395 289c38.667 -94.667 119.333 -142 242 -142c94.667 0 163 26.5 205 79.5s63 124.833 63 215.5v476z" />
    <glyph glyph-name="one" unicode="1" 
d="M209 1077c0 38.667 16.999 69.334 50.999 92.001l358 234c28.667 20.667 53.334 31 74.001 31c14.667 0 29 -3 43 -9c31.333 -12.667 47 -46 47 -100v-1157h265c73.333 0 110 -28 110 -84s-36.667 -84 -110 -84h-713c-74 0 -111 28 -111 84s37 84 111 84h260v987
l-217 -137c-32 -20.667 -58.667 -31 -80 -31c-25.333 0 -46.333 8.66699 -63 26s-25 38.666 -25 63.999z" />
    <glyph glyph-name="two" unicode="2" 
d="M182 115l-0.00390625 53c0 50.667 8.33301 99.667 25 147s37.334 88.666 62.001 123.999s56.667 71.166 96 107.499s75.833 66.5 109.5 90.5s73.5 50.667 119.5 80c90 56.667 158.5 111.5 205.5 164.5s70.5 111.5 70.5 175.5c0 70 -18.333 125.667 -55 167
s-92.667 62 -168 62c-72.667 0 -129.334 -21.667 -170.001 -65s-63.667 -98 -69 -164c-2 -33.333 -11 -60.166 -27 -80.499s-38.667 -30.5 -68 -30.5s-52.333 10.5 -69 31.5s-25 47.5 -25 79.5c0 78 20.333 147.667 61 209s93.334 108 158.001 140s134.334 48 209.001 48
c124 0 223.667 -35.167 299 -105.5s113 -167.5 113 -291.5c0 -42 -7.16699 -82.833 -21.5 -122.5s-32.5 -75 -54.5 -106s-50.333 -62.667 -85 -95s-67.667 -60 -99 -83s-68.333 -48.833 -111 -77.5c-49.333 -32.667 -91.166 -62.5 -125.499 -89.5s-68 -57.5 -101 -91.5
s-57.833 -69.833 -74.5 -107.5s-25 -76.5 -25 -116.5h633c33.333 0 58.833 -6 76.5 -18s26.5 -34 26.5 -66c0 -31.333 -8.83301 -53.166 -26.5 -65.499s-43.167 -18.5 -76.5 -18.5h-702c-31.333 0 -57.666 11.5 -78.999 34.5s-32 49.833 -32 80.5z" />
    <glyph glyph-name="three" unicode="3" 
d="M127 430c0 32 8.16504 57.5049 24.498 76.5049s39.5 28.5 69.5 28.5c31.333 0 55.333 -8.33301 72 -25s26.334 -43.334 29.001 -80.001c7.33301 -91.333 34.166 -161.333 80.499 -210s116.833 -73 211.5 -73c95.333 0 167.333 26 216 78s73 120.333 73 205
c0 170.667 -94 256 -282 256h-66c-72.667 0 -109 28 -109 84s36.333 84 109 84h53c73.333 0 132 19 176 57s66 89.333 66 154c0 72 -20.833 126.833 -62.5 164.5s-103.5 56.5 -185.5 56.5c-65.333 0 -118.666 -19.833 -159.999 -59.5s-67 -92.834 -77 -159.501
c-5.33301 -36 -15.666 -63.167 -30.999 -81.5s-38 -27.5 -68 -27.5c-29.333 0 -52 10.167 -68 30.5s-24 46.5 -24 78.5c0 108 39.833 199.5 119.5 274.5s182.5 112.5 308.5 112.5c137.333 0 244.333 -32.833 321 -98.5s115 -162.5 115 -290.5
c0 -70.667 -17.833 -132.334 -53.5 -185.001s-80.5 -85.334 -134.5 -98.001c75.333 -28 134.5 -72.833 177.5 -134.5s64.5 -134.167 64.5 -217.5c0 -136 -44.667 -245 -134 -327s-204 -123 -344 -123c-141.333 0 -257.833 41.667 -349.5 125s-137.5 191.666 -137.5 324.999z
" />
    <glyph glyph-name="four" unicode="4" 
d="M82 438c0 24.667 5.99805 45.9961 17.998 63.9961l623 903c22.667 32.667 53.334 49 92.001 49c23.333 0 44 -6 62 -18c10 -7.33301 17.5 -17.166 22.5 -29.499s7.83301 -22.666 8.5 -30.999s1 -21.166 1 -38.499v-825h138c69.333 0 104 -28 104 -84
s-34.667 -84 -104 -84h-138v-233c0 -31.333 -8.66699 -57.666 -26 -78.999s-40.666 -32 -69.999 -32s-52 10.5 -68 31.5s-24 47.5 -24 79.5v233h-528c-50.667 0 -83.667 14.333 -99 43c-8 16 -12 33 -12 51zM310.998 511.996h410v592z" />
    <glyph glyph-name="five" unicode="5" 
d="M160 395c0 30.667 7.3291 54.5 21.9961 71.5s35.334 25.5 62.001 25.5c28.667 0 50.334 -6.83301 65.001 -20.5s25 -39.167 31 -76.5c12.667 -74.667 42 -134.667 88 -180s110.333 -68 193 -68c94 0 164.5 29.667 211.5 89s70.5 140.333 70.5 243
c0 94.667 -24.5 168.167 -73.5 220.5s-118.5 78.5 -208.5 78.5c-99.333 0 -191 -38 -275 -114c-17.333 -15.333 -37.666 -23 -60.999 -23c-26.667 0 -49.167 8.5 -67.5 25.5s-27.5 43.167 -27.5 78.5c0 2.66699 1 11 3 25l77 569c4 26.667 16.667 49.167 38 67.5
s45.666 27.5 72.999 27.5h555c34 0 58.833 -6.5 74.5 -19.5s23.5 -34.5 23.5 -64.5s-7.83301 -51.5 -23.5 -64.5s-40.5 -19.5 -74.5 -19.5h-504l-51 -392c28.667 20 66.5 37 113.5 51s93.167 21 138.5 21c134.667 0 244.834 -40.333 330.501 -121s128.5 -196 128.5 -346
c0 -148.667 -42.667 -269 -128 -361s-199.666 -138 -342.999 -138c-130.667 0 -240.167 40 -328.5 120s-132.5 178.333 -132.5 295z" />
    <glyph glyph-name="six" unicode="6" 
d="M168 510v398.998c0 162.667 46 294.167 138 394.5s212 150.5 360 150.5c197.333 0 340 -73.667 428 -221c13.333 -24 20 -46.667 20 -68c0 -26.667 -9.33301 -49 -28 -67s-40.667 -27 -66 -27c-38 0 -68 20.667 -90 62c-30.667 58.667 -67.834 98.834 -111.501 120.501
s-94.5 32.5 -152.5 32.5c-98.667 0 -175 -36.333 -229 -109s-81 -168.667 -81 -288v-86c16.667 36.667 53.667 70.334 111 101.001s119.333 46 186 46c144.667 0 261.834 -42.667 351.501 -128s134.5 -204.333 134.5 -357c0 -144 -45.5 -260.833 -136.5 -350.5
s-207.5 -134.5 -349.5 -134.5c-150 0 -268.333 46.333 -355 139s-130 223 -130 391zM356 464.998c0 -97.333 25.333 -174.666 76 -231.999s124.334 -86 221.001 -86s170.334 28.667 221.001 86s76 134.666 76 231.999s-25.333 174.5 -76 231.5s-124.334 85.5 -221.001 85.5
s-170.334 -28.5 -221.001 -85.5s-76 -134.167 -76 -231.5z" />
    <glyph glyph-name="seven" unicode="7" 
d="M133 1350c0 56 34.999 84 104.999 84h759c33.333 0 59.833 -9 79.5 -27s29.5 -41.333 29.5 -70c0 -10 -2 -20 -6 -30l-504 -1233c-16.667 -49.333 -50 -74 -100 -74c-24.667 -0 -44.167 6.83301 -58.5 20.5s-21.5 32.834 -21.5 57.501c0 21.333 4.66699 43.666 14 66.999
l455 1121h-647c-31.333 0 -56.666 7 -75.999 21s-29 35 -29 63z" />
    <glyph glyph-name="eight" unicode="8" 
d="M160 420c0 82.667 15.1621 151.167 45.4951 205.5s81.833 103.833 154.5 148.5c-48 30.667 -86.167 73.167 -114.5 127.5s-42.5 109.5 -42.5 165.5c0 118 40.333 212 121 282s184.334 105 311.001 105s230.334 -35 311.001 -105s121 -164 121 -282
c0 -56 -14.333 -111.167 -43 -165.5s-67 -96.833 -115 -127.5c72.667 -44.667 124.334 -94.167 155.001 -148.5s46 -122.833 46 -205.5c0 -70 -12.333 -133.167 -37 -189.5s-58.667 -102.5 -102 -138.5s-93.666 -63.667 -150.999 -83s-119 -29 -185 -29
s-127.667 9.66699 -185 29s-107.666 47 -150.999 83s-77.333 82.167 -102 138.5s-37 119.5 -37 189.5zM347.995 420c0 -78.667 25.667 -143.834 77 -195.501s121.333 -77.5 210 -77.5s158.667 25.833 210 77.5s77 116.834 77 195.501s-25.667 143.667 -77 195
s-121.333 77 -210 77s-158.667 -25.667 -210 -77s-77 -116.333 -77 -195zM386.995 1067c0 -63.333 21.667 -115.666 65 -156.999s104.333 -62 183 -62s139.667 20.667 183 62s65 93.666 65 156.999s-21.667 115.666 -65 156.999s-104.333 62 -183 62
s-139.667 -20.667 -183 -62s-65 -93.666 -65 -156.999z" />
    <glyph glyph-name="nine" unicode="9" 
d="M162 969c0 144 45.3311 260.832 135.998 350.499s207 134.5 349 134.5c150 0 268.5 -46.333 355.5 -139s130.5 -223 130.5 -391v-400c0 -162.667 -46 -294 -138 -394s-212 -150 -360 -150c-197.333 0 -340 73.667 -428 221c-14 24.667 -21 47 -21 67
c0 26.667 9.5 49 28.5 67s41.167 27 66.5 27c38 0 68 -20.333 90 -61c30.667 -58.667 67.834 -99 111.501 -121s94.5 -33 152.5 -33c98.667 0 174.834 36.5 228.501 109.5s80.5 169.167 80.5 288.5v86c-16.667 -36.667 -53.667 -70.5 -111 -101.5s-119.333 -46.5 -186 -46.5
c-144.667 0 -261.667 42.833 -351 128.5s-134 204.834 -134 357.501zM349.998 968.999c0 -97.333 25.333 -174.666 76 -231.999s124.334 -86 221.001 -86s170.334 28.667 221.001 86s76 134.666 76 231.999s-25.333 174.5 -76 231.5s-124.334 85.5 -221.001 85.5
s-170.334 -28.5 -221.001 -85.5s-76 -134.167 -76 -231.5z" />
    <glyph glyph-name="colon" unicode=":" 
d="M469 166c0 46.667 15.833 86 47.5 118s71.167 48 118.5 48s86.833 -16 118.5 -48s47.5 -71.333 47.5 -118s-15.833 -86 -47.5 -118s-71.167 -48 -118.5 -48s-86.833 16 -118.5 48s-47.5 71.333 -47.5 118zM469 879c0 46.667 15.833 85.834 47.5 117.501
s71.167 47.5 118.5 47.5s86.833 -15.833 118.5 -47.5s47.5 -70.834 47.5 -117.501c0 -47.333 -15.833 -86.833 -47.5 -118.5s-71.167 -47.5 -118.5 -47.5s-86.833 15.833 -118.5 47.5s-47.5 71.167 -47.5 118.5z" />
    <glyph glyph-name="semicolon" unicode=";" 
d="M459 -195c0 23.333 8.66797 41.3359 26.001 54.0029c32 20 51.667 40.167 59 60.5s11 53.166 11 98.499c-26 14 -46.833 33.833 -62.5 59.5s-23.5 54.5 -23.5 86.5c0 47.333 16 87.166 48 119.499s71.333 48.5 118 48.5c47.333 0 87.166 -16.333 119.499 -49
s48.5 -72.334 48.5 -119.001v-14c-2.66699 -62.667 -21.667 -122 -57 -178s-85.333 -117 -150 -183c-27.333 -27.333 -54 -41 -80 -41c-12 0 -23.667 4.66699 -35 14c-14.667 10.667 -22 25 -22 43zM469.001 879.003c0 46.667 15.833 85.834 47.5 117.501
s71.167 47.5 118.5 47.5s86.833 -15.833 118.5 -47.5s47.5 -70.834 47.5 -117.501c0 -47.333 -15.833 -86.833 -47.5 -118.5s-71.167 -47.5 -118.5 -47.5s-86.833 15.833 -118.5 47.5s-47.5 71.167 -47.5 118.5z" />
    <glyph glyph-name="less" unicode="&#x3c;" 
d="M158 524c0 31.333 10.666 53.332 31.999 65.999l670 442c16.667 11.333 34.334 17 53.001 17c22.667 0 41 -7.83301 55 -23.5s21 -34.5 21 -56.5c0 -32.667 -15 -58.667 -45 -78l-559 -367l559 -366c30 -19.333 45 -45.333 45 -78c0 -22 -7 -40.833 -21 -56.5
s-32.333 -23.5 -55 -23.5c-19.333 0 -37 5.33301 -53 16l-670 443c-21.333 12.667 -32 34.334 -32 65.001z" />
    <glyph glyph-name="equal" unicode="=" 
d="M119 473c0 31.333 8.83301 53.5 26.5 66.5s43.5 19.5 77.5 19.5h826c34 0 59.833 -6.5 77.5 -19.5s26.5 -35.167 26.5 -66.5s-8.83301 -53.5 -26.5 -66.5s-43.5 -19.5 -77.5 -19.5h-826c-34 0 -59.833 6.5 -77.5 19.5s-26.5 35.167 -26.5 66.5zM119 862
c0 31.333 8.83301 53.5 26.5 66.5s43.5 19.5 77.5 19.5h826c34 0 59.833 -6.5 77.5 -19.5s26.5 -35.167 26.5 -66.5s-8.83301 -53.5 -26.5 -66.5s-43.5 -19.5 -77.5 -19.5h-826c-34 0 -59.833 6.5 -77.5 19.5s-26.5 35.167 -26.5 66.5z" />
    <glyph glyph-name="greater" unicode="&#x3e;" 
d="M158 80c0 32.667 15 58.667 45 78l559 366l-559 367c-30 19.333 -45 45.333 -45 78c0 22.667 6.83301 41.667 20.5 57s31.834 23 54.501 23c19.333 0 37.333 -5.66699 54 -17l669 -442c22 -13.333 33 -35.333 33 -66c0 -30 -11 -51.667 -33 -65l-669 -443
c-16 -10.667 -34 -16 -54 -16c-22.667 0 -40.834 7.66699 -54.501 23s-20.5 34.333 -20.5 57z" />
    <glyph glyph-name="question" unicode="?" 
d="M233 1100c0 44 8.99902 87.002 26.999 129.002s43.5 79.833 76.5 113.5s75.5 60.667 127.5 81s109 30.5 171 30.5c54.667 0 105.834 -6.83301 153.501 -20.5s90.167 -33.834 127.5 -60.501s66.666 -61.834 87.999 -105.501s32 -93.5 32 -149.5
c0 -22 -1.66699 -42.667 -5 -62s-9.66602 -38.166 -18.999 -56.499l-23.5 -45.5c-6.33301 -12 -17.666 -26.833 -33.999 -44.5s-27.833 -29.834 -34.5 -36.501s-20.334 -19.334 -41.001 -38.001s-33 -30 -37 -34c-37.333 -35.333 -65.833 -69.666 -85.5 -102.999
s-29.5 -75.666 -29.5 -126.999c0 -68 -30.667 -102 -92 -102c-32.667 0 -56.167 9.66699 -70.5 29s-21.5 43.666 -21.5 72.999c0 122 54.667 229.333 164 322c46 38.667 81.667 75.167 107 109.5s38 70.166 38 107.499c0 58.667 -20.167 103.334 -60.5 134.001
s-92.5 46 -156.5 46c-68 0 -119.833 -17.167 -155.5 -51.5s-56.167 -82.5 -61.5 -144.5c-2 -27.333 -11.333 -48.833 -28 -64.5s-38 -23.5 -64 -23.5c-28 0 -50.5 8.83301 -67.5 26.5s-25.5 40.167 -25.5 67.5zM468.999 166.002c0 46.667 15.833 86 47.5 118
s71.167 48 118.5 48s86.833 -16 118.5 -48s47.5 -71.333 47.5 -118s-15.833 -86 -47.5 -118s-71.167 -48 -118.5 -48s-86.833 16 -118.5 48s-47.5 71.333 -47.5 118z" />
    <glyph glyph-name="at" unicode="@" 
d="M61 547c0 144.667 26.502 272.831 79.502 384.498s129.833 199 230.5 262s218 94.5 352 94.5c131.333 0 236.833 -33 316.5 -99s119.5 -156.333 119.5 -271v-633c0 -70 -26.667 -105 -80 -105c-22.667 0 -42 7.5 -58 22.5s-25.333 35.5 -28 61.5
c-41.333 -65.333 -108 -98 -200 -98c-103.333 0 -189.333 35.333 -258 106s-103 162.334 -103 275.001c0 108.667 34.167 199.334 102.5 272.001s154.5 109 258.5 109c82 0 144 -23.333 186 -70v33c0 84 -21.667 145.333 -65 184s-107 58 -191 58
c-153.333 0 -271.833 -52.167 -355.5 -156.5s-125.5 -247.5 -125.5 -429.5c0 -172.667 47.167 -313.5 141.5 -422.5s219.833 -163.5 376.5 -163.5c94.667 0 176 17 244 51c18 10 35.667 15 53 15c21.333 0 38.166 -6.5 50.499 -19.5s18.5 -29.833 18.5 -50.5
c0 -36.667 -20.333 -66 -61 -88c-82 -42.667 -183.667 -64 -305 -64c-143.333 0 -268.333 32.5 -375 97.5s-187.334 153.167 -242.001 264.5s-82 238 -82 380zM612.002 546.997c0 -65.333 16.167 -119.166 48.5 -161.499s77.166 -63.5 134.499 -63.5
s102.333 21.167 135 63.5s49 96.166 49 161.499s-16.333 119.166 -49 161.499s-77.667 63.5 -135 63.5s-102.166 -21.167 -134.499 -63.5s-48.5 -96.166 -48.5 -161.499z" />
    <glyph glyph-name="A" unicode="A" 
d="M82 98c0 15.333 2.66602 31 7.99902 47l457 1201c7.33301 18.667 13.5 33 18.5 43s13.667 20 26 30s26.833 15 43.5 15s31.167 -5 43.5 -15s21 -20 26 -30s11.167 -24.333 18.5 -43l457 -1201c5.33301 -16 8 -31.667 8 -47c0 -29.333 -9 -53 -27 -71s-41.667 -27 -71 -27
c-43.333 0 -73.666 22.667 -90.999 68l-135 344h-458l-136 -344c-17.333 -45.333 -47.333 -68 -90 -68c-29.333 0 -53 9 -71 27s-27 41.667 -27 71zM472.999 592h324l-162 467z" />
    <glyph glyph-name="B" unicode="B" 
d="M195 111l-0.000976562 1212c0 31.333 10.5 57.666 31.5 78.999s47.167 32 78.5 32h408c112.667 0 207.334 -36 284.001 -108s115 -171.333 115 -298c0 -72.667 -16.167 -133.334 -48.5 -182.001s-71.5 -84.334 -117.5 -107.001c69.333 -23.333 126.333 -64.5 171 -123.5
s67 -128.167 67 -207.5c0 -116.667 -36.833 -213.834 -110.5 -291.501s-167.167 -116.5 -280.5 -116.5h-486c-32.667 0 -59.5 10.5 -80.5 31.5s-31.5 47.5 -31.5 79.5zM390.999 180.004l387 -0.000976562c71.333 0 124 19.333 158 58s51 93 51 163
c0 70.667 -17.833 127.334 -53.5 170.001s-92.167 64 -169.5 64h-373v-455zM390.999 815.003l309 0.000976562c71.333 0 125 19.167 161 57.5s54 90.166 54 155.499c0 66 -18.333 120 -55 162s-90 63 -160 63h-309v-438z" />
    <glyph glyph-name="C" unicode="C" 
d="M106 717c0 227.333 52.002 406.996 156.002 538.996s248.667 198 434 198c93.333 0 175 -12.833 245 -38.5s138 -72.167 204 -139.5c24.667 -24.667 37 -51.334 37 -80.001c0 -26.667 -10.667 -50 -32 -70s-45 -30 -71 -30s-48.333 10.667 -67 32
c-86 97.333 -191.333 146 -316 146c-55.333 0 -105.166 -10.667 -149.499 -32s-81.166 -49.666 -110.499 -84.999s-53.833 -77.166 -73.5 -125.499s-33.834 -98.666 -42.501 -150.999s-13 -106.833 -13 -163.5s4.33301 -111.167 13 -163.5s22.834 -102.666 42.501 -150.999
s44.167 -90.166 73.5 -125.499s66.166 -63.666 110.499 -84.999s94.166 -32 149.499 -32c125.333 0 230.666 48.333 315.999 145c19.333 22 41.666 33 66.999 33c26 0 49.667 -10 71 -30s32 -43.333 32 -70c0 -28.667 -12.333 -55.334 -37 -80.001
c-66 -67.333 -134 -113.833 -204 -139.5s-151.667 -38.5 -245 -38.5c-185.333 0 -330 66 -434 198s-156 311.667 -156 539z" />
    <glyph glyph-name="D" unicode="D" 
d="M172 111l0.000976562 1212c0 31.333 10.667 57.666 32 78.999s47.666 32 78.999 32h348c115.333 0 214.833 -31 298.5 -93s146.334 -146.5 188.001 -253.5s62.5 -230.5 62.5 -370.5s-20.833 -263.5 -62.5 -370.5s-104.334 -191.5 -188.001 -253.5
s-183.167 -93 -298.5 -93h-346c-32.667 0 -59.667 10.5 -81 31.5s-32 47.5 -32 79.5zM369.001 180.001h266c112 0 198 49 258 147s90 228 90 390s-30 291.833 -90 389.5s-146 146.5 -258 146.5h-266v-1073z" />
    <glyph glyph-name="E" unicode="E" 
d="M152 111v1212c0 30.667 10.5 56.834 31.5 78.501s47.167 32.5 78.5 32.5h725c71.333 0 107 -30.333 107 -91c0 -60 -35.667 -90 -107 -90h-639v-426h471c68.667 0 103 -30 103 -90s-34.333 -90 -103 -90h-471v-467h670c72 0 108 -30 108 -90s-36 -90 -108 -90h-756
c-31.333 0 -57.5 10.667 -78.5 32s-31.5 47.666 -31.5 78.999z" />
    <glyph glyph-name="F" unicode="F" 
d="M152 111l0.000976562 1212c0 30.667 10.5 56.834 31.5 78.501s47.167 32.5 78.5 32.5h744c70.667 0 106 -30.333 106 -91c0 -60 -35.333 -90 -106 -90h-658v-444h490c68 0 102 -30 102 -90s-34 -90 -102 -90h-490v-518c0 -32.667 -8 -59.334 -24 -80.001
s-39.333 -31 -70 -31s-55.334 10.5 -74.001 31.5s-28 47.5 -28 79.5z" />
    <glyph glyph-name="G" unicode="G" 
d="M61 719c0 102.667 12.832 198.171 38.499 286.504s62.667 166 111 233s110.333 119.667 186 158s160.5 57.5 254.5 57.5c93.333 0 175 -12.833 245 -38.5s138 -72.167 204 -139.5c24.667 -24.667 37 -51.334 37 -80.001c0 -29.333 -10 -53.333 -30 -72
s-44.333 -28 -73 -28c-26 0 -48.333 10.667 -67 32c-86 97.333 -191.333 146 -316 146c-55.333 0 -105.333 -10.333 -150 -31s-81.667 -48.334 -111 -83.001s-53.833 -76 -73.5 -124s-33.667 -98.167 -42 -150.5s-12.5 -107.833 -12.5 -166.5
c0 -59.333 4.33301 -115.5 13 -168.5s22.834 -103.667 42.501 -152s44.167 -89.833 73.5 -124.5s66.166 -62.334 110.499 -83.001s94.166 -31 149.499 -31c63.333 0 119.833 9.5 169.5 28.5s95.5 56.5 137.5 112.5v287h-262c-70.667 0 -106 30 -106 90s35.333 90 106 90h348
c30.667 0 56.834 -10.667 78.501 -32s32.5 -47.666 32.5 -78.999v-546c0 -32 -7.66699 -58.5 -23 -79.5s-37.666 -31.5 -66.999 -31.5c-28 0 -51.167 8.16699 -69.5 24.5s-30.833 36.166 -37.5 59.499c-76 -69.333 -177.667 -104 -305 -104c-94.667 0 -180 19.167 -256 57.5
s-138.167 91.166 -186.5 158.499s-85.333 145.5 -111 234.5s-38.5 185.167 -38.5 288.5z" />
    <glyph glyph-name="H" unicode="H" 
d="M139 111v1212c0 32.667 8.5 59.334 25.5 80.001s41.5 31 73.5 31s56.333 -10.333 73 -31s25 -47.334 25 -80.001v-502h594v502c0 32.667 8.33301 59.334 25 80.001s41 31 73 31s56.333 -10.333 73 -31s25 -47.334 25 -80.001v-1212
c0 -32.667 -8.33301 -59.334 -25 -80.001s-41 -31 -73 -31s-56.333 10.333 -73 31s-25 47.334 -25 80.001v530h-594v-530c0 -32.667 -8.33301 -59.334 -25 -80.001s-41 -31 -73 -31s-56.5 10.333 -73.5 31s-25.5 47.334 -25.5 80.001z" />
    <glyph glyph-name="I" unicode="I" 
d="M190 90c0 60 37 90 111 90h217v1073h-217c-74 0 -111 30 -111 90c0 60.667 37 91 111 91h631c73.333 0 110 -30.333 110 -91c0 -60 -36.667 -90 -110 -90h-217v-1073h217c73.333 0 110 -30 110 -90s-36.667 -90 -110 -90h-631c-74 0 -111 30 -111 90z" />
    <glyph glyph-name="J" unicode="J" 
d="M109 233c0 30 9.49805 55.332 28.498 75.999s44.833 31 77.5 31c26.667 0 48.667 -11 66 -33c30 -38.667 55 -67.167 75 -85.5s45.833 -33.166 77.5 -44.499s70.834 -17 117.501 -17c94.667 0 163.334 34.5 206.001 103.5s64 172.167 64 309.5v750
c0 32.667 8.5 59.334 25.5 80.001s41.5 31 73.5 31s56.333 -10.333 73 -31s25 -47.334 25 -80.001v-764c0 -194.667 -37.5 -339.834 -112.5 -435.501s-193.167 -143.5 -354.5 -143.5c-89.333 0 -164.833 14 -226.5 42s-122.167 72.667 -181.5 134
c-22.667 22.667 -34 48.334 -34 77.001z" />
    <glyph glyph-name="K" unicode="K" 
d="M168 111l-0.000976562 1212c0 30.667 9.16699 56.834 27.5 78.501s41.833 32.5 70.5 32.5s52.334 -10.833 71.001 -32.5s28 -47.834 28 -78.501v-563l503 633c22 27.333 49.333 41 82 41c26.667 0 48.667 -8 66 -24s26 -36.667 26 -62c0 -29.333 -12 -58.666 -36 -87.999
l-312 -381l465 -715c11.333 -20.667 17 -40 17 -58c0 -29.333 -9.33301 -54.333 -28 -75s-41 -31 -67 -31c-40.667 0 -71.334 17 -92.001 51l-418 672l-206 -246v-366c0 -33.333 -8.66699 -60.166 -26 -80.499s-41.666 -30.5 -72.999 -30.5
c-30.667 0 -54.667 10.167 -72 30.5s-26 47.166 -26 80.499z" />
    <glyph glyph-name="L" unicode="L" 
d="M264 111l-0.000976562 1212c0 32.667 8.33301 59.334 25 80.001s41 31 73 31s56.5 -10.333 73.5 -31s25.5 -47.334 25.5 -80.001v-1143h639c69.333 0 104 -30 104 -90s-34.667 -90 -104 -90h-725c-31.333 0 -57.666 10.667 -78.999 32s-32 47.666 -32 78.999z" />
    <glyph glyph-name="M" unicode="M" 
d="M123 111v1214c0 32 8.33301 58.167 25 78.5s40.334 30.5 71.001 30.5c24 0 42.167 -4.66699 54.5 -14s23.5 -22.666 33.5 -39.999l328 -641l328 641c10 17.333 21.167 30.666 33.5 39.999s30.5 14 54.5 14c30.667 0 54.334 -10.167 71.001 -30.5s25 -46.5 25 -78.5v-1214
c0 -32.667 -8.33301 -59.334 -25 -80.001s-41 -31 -73 -31s-56.5 10.333 -73.5 31s-25.5 47.334 -25.5 80.001v872l-229 -448c-18.667 -36 -47.334 -54 -86.001 -54s-67.334 18 -86.001 54l-230 448v-872c0 -32.667 -8.33301 -59.334 -25 -80.001s-41 -31 -73 -31
s-56.333 10.333 -73 31s-25 47.334 -25 80.001z" />
    <glyph glyph-name="N" unicode="N" 
d="M137 111l-0.000976562 1214c2 32 11.167 58.167 27.5 78.5s38.5 30.5 66.5 30.5c36.667 0 67 -15 91 -45l614 -973v907c0 31.333 8.83301 57.666 26.5 78.999s40.834 32 69.501 32c30 0 54.333 -10.667 73 -32s28 -47.666 28 -78.999v-1214
c0 -29.333 -9.5 -54.833 -28.5 -76.5s-42.5 -32.5 -70.5 -32.5c-37.333 0 -68 15 -92 45l-608 973v-907c0 -31.333 -9.16699 -57.666 -27.5 -78.999s-41.833 -32 -70.5 -32c-30 0 -54 10.667 -72 32s-27 47.666 -27 78.999z" />
    <glyph glyph-name="O" unicode="O" 
d="M61 717c0 105.333 12.167 202.333 36.5 291s60 166.334 107 233.001s107.333 118.834 181 156.501s156.834 56.5 249.501 56.5s175.834 -18.833 249.501 -56.5s133.834 -89.834 180.501 -156.501s82.167 -144.334 106.5 -233.001s36.5 -185.667 36.5 -291
s-12.167 -202.333 -36.5 -291s-59.833 -166.334 -106.5 -233.001s-106.834 -118.834 -180.501 -156.501s-156.834 -56.5 -249.501 -56.5s-175.834 18.833 -249.501 56.5s-134 89.834 -181 156.501s-82.667 144.334 -107 233.001s-36.5 185.667 -36.5 291zM262 717
c0 -108.667 13.167 -204.167 39.5 -286.5s68 -148 125 -197s126.5 -73.5 208.5 -73.5s151.5 24.5 208.5 73.5s98.667 114.667 125 197s39.5 177.833 39.5 286.5s-13.167 204.167 -39.5 286.5s-68 148 -125 197s-126.5 73.5 -208.5 73.5s-151.5 -24.5 -208.5 -73.5
s-98.667 -114.667 -125 -197s-39.5 -177.833 -39.5 -286.5z" />
    <glyph glyph-name="P" unicode="P" 
d="M186 111l0.00195312 1212c0 29.333 11.333 54.833 34 76.5s49 33.167 79 34.5h406c153.333 0 272.166 -39.667 356.499 -119s126.5 -188.666 126.5 -327.999c0 -144.667 -41.333 -253.834 -124 -327.501s-202.334 -110.5 -359.001 -110.5h-322v-438
c0 -32 -8.83301 -58.5 -26.5 -79.5s-41.5 -31.5 -71.5 -31.5c-32 0 -56.5 10.333 -73.5 31s-25.5 47.334 -25.5 80.001zM383.002 728.999h358c84 0 146.667 22.833 188 68.5s62 110.167 62 193.5c0 82 -20.833 146.167 -62.5 192.5s-104.167 69.5 -187.5 69.5h-358v-524z
" />
    <glyph glyph-name="Q" unicode="Q" 
d="M61 717c0 105.333 12.166 202.331 36.499 290.998s60 166.334 107 233.001s107.333 118.834 181 156.501s156.834 56.5 249.501 56.5s175.834 -18.833 249.501 -56.5s133.834 -89.834 180.501 -156.501s82.167 -144.334 106.5 -233.001s36.5 -185.667 36.5 -291
c0 -182 -35.333 -337 -106 -465l76 -74c24 -24 36 -50 36 -78c0 -26 -10 -49 -30 -69c-20.667 -20.667 -43.334 -31 -68.001 -31c-26 0 -52 13 -78 39l-59 59c-93.333 -78.667 -208 -118 -344 -118c-92.667 0 -175.834 18.833 -249.501 56.5s-134 89.834 -181 156.501
s-82.667 144.334 -107 233.001s-36.5 185.667 -36.5 291zM261.999 716.998c0 -108.667 13.167 -204.167 39.5 -286.5s68 -148 125 -197s126.5 -73.5 208.5 -73.5c84 0 153.667 23.667 209 71l-43 45c-24.667 24.667 -37 50.667 -37 78c0 26 10.333 49.333 31 70s43 31 67 31
c26 0 52 -13 78 -39l16 -17c34.667 87.333 52 193.333 52 318c0 108.667 -13.167 204.167 -39.5 286.5s-68 148 -125 197s-126.5 73.5 -208.5 73.5s-151.5 -24.5 -208.5 -73.5s-98.667 -114.667 -125 -197s-39.5 -177.833 -39.5 -286.5z" />
    <glyph glyph-name="R" unicode="R" 
d="M184 111l0.000976562 1212c0 29.333 11.333 54.833 34 76.5s49 33.167 79 34.5h403c147.333 0 261.666 -40 342.999 -120s122 -185.667 122 -317c0 -96 -24 -178.833 -72 -248.5s-114.667 -120.5 -200 -152.5l272 -418c16.667 -26 25 -50.667 25 -74
c0 -33.333 -10 -59 -30 -77s-45 -27 -75 -27c-32.667 0 -59.667 16.333 -81 49l-322 520h-301v-458c0 -32 -8.83301 -58.5 -26.5 -79.5s-41.5 -31.5 -71.5 -31.5c-32 0 -56.5 10.333 -73.5 31s-25.5 47.334 -25.5 80.001zM381.001 749.999h332c84 0 147.667 21.667 191 65
s65 104 65 182c0 80 -21.667 142.667 -65 188s-107 68 -191 68h-332v-503z" />
    <glyph glyph-name="S" unicode="S" 
d="M74 317c0 28.667 8.99609 52.667 26.9961 72s41.667 29 71 29c36 0 66 -18.667 90 -56c44 -72 93.167 -123.667 147.5 -155s129.5 -47 225.5 -47c99.333 0 175 19.833 227 59.5s78 98.834 78 177.501c0 50.667 -15 93 -45 127s-68.833 60.167 -116.5 78.5
s-100.5 34.666 -158.5 48.999s-115.833 30.166 -173.5 47.499s-110.334 38.5 -158.001 63.5s-86.5 61 -116.5 108s-45 104.167 -45 171.5c0 68 13.5 128.833 40.5 182.5s63.667 96.834 110 129.501s98.5 57.5 156.5 74.5s119.333 25.5 184 25.5c206 0 353 -73.667 441 -221
c17.333 -30 26 -58 26 -84c0 -31.333 -9.66699 -56.166 -29 -74.499s-43 -27.5 -71 -27.5c-39.333 0 -68.666 19.667 -87.999 59c-28 60 -64.167 103 -108.5 129s-101.166 39 -170.499 39c-90 0 -161.5 -18.833 -214.5 -56.5s-79.5 -96.167 -79.5 -175.5
c0 -30.667 9.33301 -57.334 28 -80.001s43.667 -41.5 75 -56.5s67.333 -28.5 108 -40.5s83.5 -24 128.5 -36s89.833 -25 134.5 -39s87.334 -32 128.001 -54s76.667 -47.167 108 -75.5s56.333 -64.666 75 -108.999s28 -94.5 28 -150.5c0 -68 -14.167 -129.5 -42.5 -184.5
s-66.166 -99.333 -113.499 -133s-100.666 -59.334 -159.999 -77.001s-121.333 -26.5 -186 -26.5c-243.333 0 -422.333 88 -537 264c-16 26.667 -24 51 -24 73z" />
    <glyph glyph-name="T" unicode="T" 
d="M55 1343c0 60.667 37 91 111 91h938c73.333 0 110 -30.333 110 -91c0 -60 -36.667 -90 -110 -90h-371v-1142c0 -32 -8.5 -58.5 -25.5 -79.5s-41.167 -31.5 -72.5 -31.5s-55.5 10.5 -72.5 31.5s-25.5 47.5 -25.5 79.5v1142h-371c-74 0 -111 30 -111 90z" />
    <glyph glyph-name="U" unicode="U" 
d="M127 522l0.000976562 801c0 31.333 9.16699 57.666 27.5 78.999s42.5 32 72.5 32c28.667 0 52 -10.667 70 -32s27 -47.666 27 -78.999v-795c0 -128.667 27.833 -222.167 83.5 -280.5s136.167 -87.5 241.5 -87.5c104.667 0 184.5 29.167 239.5 87.5
s82.5 151.833 82.5 280.5v795c0 31.333 8.83301 57.666 26.5 78.999s41.5 32 71.5 32s53.833 -10.667 71.5 -32s26.5 -47.666 26.5 -78.999v-795c0 -165.333 -45 -298 -135 -398s-217.667 -150 -383 -150c-110.667 0 -205.834 23.5 -285.501 70.5s-139 110.833 -178 191.5
s-58.5 174 -58.5 280z" />
    <glyph glyph-name="V" unicode="V" 
d="M92 1327c0 32 10.1689 57.833 30.502 77.5s45.166 29.5 74.499 29.5c42.667 0 72 -22.667 88 -68l356 -1010l356 1010c16 45.333 45.333 68 88 68c29.333 0 54.166 -9.83301 74.499 -29.5s30.5 -45.5 30.5 -77.5c0 -12 -2 -25 -6 -39l-453 -1220
c-8.66699 -22.667 -19.667 -39.667 -33 -51s-32.333 -17 -57 -17s-43.667 5.66699 -57 17s-24.333 28.333 -33 51l-453 1220c-4 14 -6 27 -6 39z" />
    <glyph glyph-name="W" unicode="W" 
d="M53 1337c0 64.667 29.9971 97.001 89.9971 97.001c57.333 0 90.333 -24.667 99 -74l98 -868l199 702c7.33301 26 18.5 45.167 33.5 57.5s35.833 18.5 62.5 18.5s47.5 -6.16699 62.5 -18.5s26.167 -31.5 33.5 -57.5l199 -702l98 868c8.66699 49.333 41.334 74 98.001 74
c60.667 0 91 -32.333 91 -97c0 -12 -1.66699 -26.333 -5 -43l-153 -1220c-7.33301 -25.333 -17.666 -44 -30.999 -56s-33 -18 -59 -18c-22.667 0 -40.5 5.5 -53.5 16.5s-24.5 30.167 -34.5 57.5l-246 827l-246 -827c-10 -27.333 -21.5 -46.5 -34.5 -57.5
s-30.833 -16.5 -53.5 -16.5c-26 0 -45.667 6 -59 18s-23.666 30.667 -30.999 56l-154 1220c-2.66699 13.333 -4 27.666 -4 42.999z" />
    <glyph glyph-name="X" unicode="X" 
d="M74 88c0 19.333 5.99902 39 17.999 59l416 588l-389 551c-12.667 21.333 -19 41.333 -19 60c0 25.333 8.66699 46.333 26 63s40.333 25 69 25c18 0 32.333 -3.33301 43 -10s21.334 -17.667 32.001 -33l351 -496l350 496c10.667 15.333 21.5 26.333 32.5 33
s25.5 10 43.5 10c28.667 0 51.5 -8.33301 68.5 -25s25.5 -37.667 25.5 -63c0 -18.667 -6.33301 -38.667 -19 -60l-389 -551l416 -588c12 -20 18 -39.667 18 -59c0 -25.333 -8.5 -46.333 -25.5 -63s-39.833 -25 -68.5 -25c-18 -0 -32.5 3.33301 -43.5 10
s-21.833 17.667 -32.5 33l-376 532l-377 -532c-10.667 -15.333 -21.5 -26.333 -32.5 -33s-25.5 -10 -43.5 -10c-28.667 -0 -51.5 8.33301 -68.5 25s-25.5 37.667 -25.5 63z" />
    <glyph glyph-name="Y" unicode="Y" 
d="M92 1331c0 36.667 14.998 65.333 44.998 86c14.667 10 34.667 15 60 15c38.667 0 67.334 -14.333 86.001 -43l352 -558l352 558c20.667 30 49.334 45 86.001 45c22.667 0 44 -7 64 -21c27.333 -18.667 41 -46 41 -82c0 -23.333 -6.33301 -44.333 -19 -63l-426 -641v-521
c0 -30 -9.16699 -55.167 -27.5 -75.5s-41.833 -30.5 -70.5 -30.5s-52.167 10.167 -70.5 30.5s-27.5 45.5 -27.5 75.5v521l-426 641c-12.667 16 -19 37 -19 63z" />
    <glyph glyph-name="Z" unicode="Z" 
d="M109 100c0 21.333 5.33301 42.667 16 64l727 1089h-625c-66.667 0 -100 29.333 -100 88c0 30 8.83301 53 26.5 69s42.167 24 73.5 24h791c36 0 64.5 -8 85.5 -24s31.5 -38.333 31.5 -67c0 -22 -8.33301 -47 -25 -75l-723 -1084h672
c31.333 0 56.166 -7.83301 74.499 -23.5s27.5 -38.5 27.5 -68.5s-9.16699 -52.833 -27.5 -68.5s-43.166 -23.5 -74.499 -23.5h-844c-31.333 -0 -56.833 9.33301 -76.5 28s-29.5 42.667 -29.5 72z" />
    <glyph glyph-name="bracketleft" unicode="[" 
d="M410 -231v1634c0 26.667 9 49.334 27 68.001s43.667 28 77 28h350c62.667 0 94 -27.333 94 -82s-31.333 -82 -94 -82h-274v-1499h274c62.667 0 94 -27.333 94 -82s-31.333 -82 -94 -82h-350c-33.333 0 -59 9.5 -77 28.5s-27 41.833 -27 68.5z" />
    <glyph glyph-name="backslash" unicode="\" 
d="M37 1341c0 22.667 10.833 43.834 32.5 63.501s43.5 29.5 65.5 29.5c24.667 0 45.334 -11.667 62.001 -35l968 -1258c14 -18 21 -35 21 -51c0 -22.667 -10.833 -43.334 -32.5 -62.001s-43.834 -28 -66.501 -28c-24 0 -44.333 11.667 -61 35l-969 1255
c-13.333 17.333 -20 34.333 -20 51z" />
    <glyph glyph-name="bracketright" unicode="]" 
d="M410 -246c0 54.667 31.333 82.001 94 82.001h274v1499h-274c-62.667 0 -94 27.333 -94 82s31.333 82 94 82h350c33.333 0 59 -9.33301 77 -28s27 -41.334 27 -68.001v-1634c0 -26.667 -9 -49.5 -27 -68.5s-43.667 -28.5 -77 -28.5h-350c-62.667 0 -94 27.333 -94 82z" />
    <glyph glyph-name="asciicircum" unicode="^" 
d="M119 678c0 19.333 5.33301 37 16 53l443 670c13.333 22 35 33 65 33c30.667 0 52.667 -11 66 -33l442 -670c10.667 -16 16 -33.667 16 -53c0 -22.667 -7.83301 -41 -23.5 -55s-34.5 -21 -56.5 -21c-32 0 -57.667 15 -77 45l-367 559l-367 -559
c-19.333 -30 -45 -45 -77 -45c-22 0 -40.833 7 -56.5 21s-23.5 32.333 -23.5 55z" />
    <glyph glyph-name="underscore" unicode="_" 
d="M119 -86c0 31.333 8.83301 53.5 26.5 66.5s43.5 19.5 77.5 19.5h826c34 0 59.833 -6.5 77.5 -19.5s26.5 -35.167 26.5 -66.5s-8.83301 -53.5 -26.5 -66.5s-43.5 -19.5 -77.5 -19.5h-826c-34 0 -59.833 6.5 -77.5 19.5s-26.5 35.167 -26.5 66.5z" />
    <glyph glyph-name="grave" unicode="`" 
d="M389 1860c0 23.333 8.5 43.499 25.5 60.499s37.833 25.5 62.5 25.5c16.667 0 35 -5 55 -15l250 -127c37.333 -19.333 56 -46.666 56 -81.999c0 -24.667 -8.16699 -46.167 -24.5 -64.5s-36.833 -27.5 -61.5 -27.5c-12 0 -25.667 3.33301 -41 10l-277 142
c-30 15.333 -45 41.333 -45 78z" />
    <glyph glyph-name="a" unicode="a" 
d="M141 512c0 70 10.666 136.669 31.999 200.002s51.833 119.833 91.5 169.5s90.334 89.167 152.001 118.5s129.834 44 204.501 44c56.667 0 111.334 -10.833 164.001 -32.5s94 -52.834 124 -93.501c2 32.667 11.167 58.5 27.5 77.5s37.833 28.5 64.5 28.5
c29.333 0 53.166 -9 71.499 -27s27.5 -43 27.5 -75v-820c0 -32 -9.16699 -57 -27.5 -75s-42.166 -27 -71.499 -27c-26.667 0 -48.167 9.5 -64.5 28.5s-25.5 44.833 -27.5 77.5c-30 -40.667 -71.333 -71.834 -124 -93.501s-107.334 -32.5 -164.001 -32.5
c-77.333 0 -147 14.667 -209 44s-112.333 69 -151 119s-68.334 106.5 -89.001 169.5s-31 129.5 -31 199.5zM325.999 512.002c0 -109.333 27 -198.166 81 -266.499s125.333 -102.5 214 -102.5s159.834 34.167 213.501 102.5s80.5 157.166 80.5 266.499
s-26.833 198.166 -80.5 266.499s-124.834 102.5 -213.501 102.5s-160 -34.167 -214 -102.5s-81 -157.166 -81 -266.499z" />
    <glyph glyph-name="b" unicode="b" 
d="M211 100l-0.00195312 1233c0 28 8.66699 51.833 26 71.5s39.333 29.5 66 29.5s48.667 -9.83301 66 -29.5s26 -43.5 26 -71.5v-418c23.333 38 62 69 116 93s111 36 171 36c100 0 186.333 -23.833 259 -71.5s126.834 -111.167 162.501 -190.5s53.5 -169.333 53.5 -270
c0 -166 -42 -296.167 -126 -390.5s-200.333 -141.5 -349 -141.5c-58.667 0 -115.167 11.167 -169.5 33.5s-94.166 53.166 -119.499 92.499c-3.33301 -29.333 -13.5 -54.333 -30.5 -75s-36.833 -31 -59.5 -31c-26.667 0 -48.667 9.66699 -66 29s-26 43 -26 71z
M394.998 512.001c0 -113.333 25 -203.166 75 -269.499s121.333 -99.5 214 -99.5s164 33.167 214 99.5s75 156.166 75 269.499c0 114.667 -25 205.167 -75 271.5s-121.333 99.5 -214 99.5s-164 -33.167 -214 -99.5s-75 -156.833 -75 -271.5z" />
    <glyph glyph-name="c" unicode="c" 
d="M141 512c0 100 19.833 189.835 59.5 269.502s98.5 143.334 176.5 191.001s168.667 71.5 272 71.5c92.667 0 167.5 -13.333 224.5 -40s108.5 -64.334 154.5 -113.001c27.333 -27.333 41 -56 41 -86c0 -26.667 -7.83301 -49 -23.5 -67s-37.167 -27 -64.5 -27
c-28.667 0 -54 15 -76 45c-36 48.667 -71.833 81.667 -107.5 99s-85.167 26 -148.5 26c-97.333 0 -175.5 -35.333 -234.5 -106s-88.5 -158.334 -88.5 -263.001s29.5 -192.334 88.5 -263.001s137.167 -106 234.5 -106c63.333 0 112.833 8.66699 148.5 26
s71.5 50.333 107.5 99c22 30 47.333 45 76 45c27.333 0 48.833 -9 64.5 -27s23.5 -40.333 23.5 -67c0 -30 -13.667 -58.667 -41 -86c-46 -48.667 -97.5 -86.334 -154.5 -113.001s-131.833 -40 -224.5 -40c-103.333 0 -194 23.833 -272 71.5s-136.833 111.334 -176.5 191.001
s-59.5 169.5 -59.5 269.5z" />
    <glyph glyph-name="d" unicode="d" 
d="M139 512c0 100.667 17.8311 190.666 53.498 269.999s89.834 142.833 162.501 190.5s159 71.5 259 71.5c60 0 117 -12 171 -36s92.667 -55 116 -93v418c0 28 8.66699 51.833 26 71.5s39.333 29.5 66 29.5s48.667 -9.83301 66 -29.5s26 -43.5 26 -71.5v-1233
c0 -28 -8.66699 -51.667 -26 -71s-39.333 -29 -66 -29c-22.667 0 -42.5 10.333 -59.5 31s-27.167 45.667 -30.5 75c-25.333 -39.333 -65.166 -70.166 -119.499 -92.499s-110.833 -33.5 -169.5 -33.5c-148.667 0 -265 47.167 -349 141.5s-126 224.5 -126 390.5z
M323.998 511.999c0 -114 24.833 -203.999 74.5 -269.999s120.834 -99 213.501 -99s164 33.167 214 99.5s75 156.166 75 269.499c0 114.667 -25 205.167 -75 271.5s-121.333 99.5 -214 99.5s-163.834 -33.167 -213.501 -99.5s-74.5 -156.833 -74.5 -271.5z" />
    <glyph glyph-name="e" unicode="e" 
d="M141 512c0 100 19.832 189.832 59.499 269.499s98.5 143.334 176.5 191.001s168.667 71.5 272 71.5c145.333 0 264 -48 356 -144s138 -215.667 138 -359c0 -32.667 -9.16699 -58 -27.5 -76s-43.5 -27 -75.5 -27h-708c10.667 -81.333 44.334 -150.833 101.001 -208.5
s128.667 -86.5 216 -86.5c132 0 234.333 41.667 307 125c20 23.333 44 35 72 35s50 -9.83301 66 -29.5s24 -41.834 24 -66.501s-11 -48 -33 -70c-108 -104.667 -253.333 -157 -436 -157c-103.333 0 -194 23.833 -272 71.5s-136.833 111.334 -176.5 191.001
s-59.5 169.5 -59.5 269.5zM331.999 601.999l620 -0.000976562c-20.667 82.667 -56 149.834 -106 201.501s-115.667 77.5 -197 77.5c-83.333 0 -153.5 -27 -210.5 -81s-92.5 -120 -106.5 -198z" />
    <glyph glyph-name="f" unicode="f" 
d="M113 942c0 26.667 8.66992 47 26.0029 61s40.666 21 69.999 21h266c0 76.667 9.33301 143.667 28 201s44 102.166 76 134.499s67.167 56.166 105.5 71.499s79.833 23 124.5 23c67.333 0 121.5 -5 162.5 -15s83.167 -30.333 126.5 -61
c18 -14.667 30.667 -27.834 38 -39.501s11 -25.167 11 -40.5c0 -28.667 -8.5 -51.167 -25.5 -67.5s-37.167 -24.5 -60.5 -24.5c-19.333 0 -37 7 -53 21c-31.333 26.667 -60.833 43.834 -88.5 51.501s-61.834 11.5 -102.501 11.5c-52 0 -91.333 -25.667 -118 -77
s-40 -114.333 -40 -189h371c29.333 0 52.666 -7 69.999 -21s26 -34.333 26 -61c0 -54.667 -32 -82 -96 -82h-371v-758c0 -29.333 -8.33301 -53.666 -25 -72.999s-39 -29 -67 -29c-27.333 0 -49.5 9.83301 -66.5 29.5s-25.5 43.834 -25.5 72.501v758h-266
c-64 0 -96 27.333 -96 82z" />
    <glyph glyph-name="g" unicode="g" 
d="M113 512c0 70 10.832 136.664 32.499 199.997s52.167 119.833 91.5 169.5s90 89.167 152 118.5s130.333 44 205 44c124.667 0 221 -36.667 289 -110c4 26.667 13.333 48.334 28 65.001s34 25 58 25c30 0 53.833 -9.66699 71.5 -29s26.5 -43.666 26.5 -72.999v-803
c0 -63.333 -5.33301 -122 -16 -176s-28 -104.167 -52 -150.5s-54.167 -85.833 -90.5 -118.5s-81.166 -58.167 -134.499 -76.5s-113.333 -27.5 -180 -27.5c-110.667 0 -201.334 19.167 -272.001 57.5s-131.667 99.833 -183 184.5c-12 20 -18 40.333 -18 61
c0 28 10.167 51.667 30.5 71s44.833 29 73.5 29c40 0 69.333 -19 88 -57c22.667 -43.333 44.334 -77 65.001 -101s48.834 -43.5 84.501 -58.5s79.5 -22.5 131.5 -22.5c98.667 0 171.5 32.167 218.5 96.5s70.5 150.833 70.5 259.5c-32.667 -36 -75 -63.333 -127 -82
s-106 -28 -162 -28c-72.667 0 -139.834 14.667 -201.501 44s-112.5 68.833 -152.5 118.5s-71.167 106.334 -93.5 170.001s-33.5 130.167 -33.5 199.5zM296.999 511.997c0 -106 26.5 -194 79.5 -264s125.5 -105 217.5 -105c64 0 118.167 16.833 162.5 50.5
s76.5 77.5 96.5 131.5s30 116.333 30 187s-10 133 -30 187s-52.167 97.833 -96.5 131.5s-98.5 50.5 -162.5 50.5c-92 0 -164.5 -35 -217.5 -105s-79.5 -158 -79.5 -264z" />
    <glyph glyph-name="h" unicode="h" 
d="M219 100l-0.000976562 1233c0 28 8.66699 51.833 26 71.5s39.333 29.5 66 29.5s48.667 -9.83301 66 -29.5s26 -43.5 26 -71.5v-450c15.333 43.333 51.333 81 108 113s117 48 181 48c124.667 0 220.334 -31 287.001 -93s100 -162.667 100 -302v-549
c0 -28.667 -8.33301 -52.5 -25 -71.5s-39 -28.5 -67 -28.5c-26.667 0 -48.667 9.66699 -66 29s-26 43 -26 71v508c0 96.667 -15.167 166.334 -45.5 209.001s-82.833 64 -157.5 64c-89.333 0 -159.833 -36.5 -211.5 -109.5s-77.5 -168.5 -77.5 -286.5v-385
c0 -28 -8.66699 -51.667 -26 -71s-39.333 -29 -66 -29s-48.667 9.66699 -66 29s-26 43 -26 71z" />
    <glyph glyph-name="i" unicode="i" 
d="M207 82c0 26.667 9.33301 47 28 61s42.667 21 72 21h297v696h-229c-29.333 0 -53.5 7.16699 -72.5 21.5s-28.5 34.5 -28.5 60.5s9.5 46.167 28.5 60.5s43.167 21.5 72.5 21.5h321c26 0 47.833 -7.83301 65.5 -23.5s26.5 -35.167 26.5 -58.5v-778h297
c29.333 0 53.5 -7.16699 72.5 -21.5s28.5 -34.5 28.5 -60.5s-9.5 -46.167 -28.5 -60.5s-43.167 -21.5 -72.5 -21.5h-778c-29.333 0 -53.333 7 -72 21s-28 34.333 -28 61zM561 1305c0 36 12.667 66.5 38 91.5s55.666 37.5 90.999 37.5c36 0 66.5 -12.667 91.5 -38
s37.5 -55.666 37.5 -90.999c0 -36 -12.667 -66.5 -38 -91.5s-55.666 -37.5 -90.999 -37.5c-36 0 -66.5 12.667 -91.5 38s-37.5 55.666 -37.5 90.999z" />
    <glyph glyph-name="j" unicode="j" 
d="M188 -258c0 24 8.00195 44.667 24.002 62s36 26 60 26c20 0 38.667 -6.66699 56 -20c25.333 -20 44.666 -34.167 57.999 -42.5s32.166 -16 56.499 -23s52.833 -10.5 85.5 -10.5c47.333 0 85.5 14.167 114.5 42.5s43.5 74.166 43.5 137.499v946h-229
c-29.333 0 -53.5 7.16699 -72.5 21.5s-28.5 34.5 -28.5 60.5s9.5 46.167 28.5 60.5s43.167 21.5 72.5 21.5h321c26 0 47.833 -7.83301 65.5 -23.5s26.5 -35.167 26.5 -58.5v-1044c0 -112.667 -30.5 -195.5 -91.5 -248.5s-141.5 -79.5 -241.5 -79.5
c-62 0 -115.5 6.83301 -160.5 20.5s-87.833 34.834 -128.5 63.501c-40 28.667 -60 58 -60 88zM643.002 1305c0 36 12.667 66.5 38 91.5s55.666 37.5 90.999 37.5c36 0 66.5 -12.667 91.5 -38s37.5 -55.666 37.5 -90.999c0 -36 -12.667 -66.5 -38 -91.5
s-55.666 -37.5 -90.999 -37.5c-36 0 -66.5 12.667 -91.5 38s-37.5 55.666 -37.5 90.999z" />
    <glyph glyph-name="k" unicode="k" 
d="M262 100l-0.000976562 1233c0 28 8.66699 51.833 26 71.5s39.333 29.5 66 29.5s48.667 -9.83301 66 -29.5s26 -43.5 26 -71.5v-727l365 385c19.333 22 43.333 33 72 33c28 0 50.667 -8.5 68 -25.5s26 -38.5 26 -64.5c0 -23.333 -8.33301 -43.333 -25 -60l-227 -237
l334 -496c10.667 -16 16 -33.667 16 -53c0 -25.333 -8.66699 -46.333 -26 -63s-38.666 -25 -63.999 -25c-38 0 -66.667 15.667 -86 47l-305 453l-148 -158v-242c0 -28 -8.66699 -51.667 -26 -71s-39.333 -29 -66 -29s-48.667 9.66699 -66 29s-26 43 -26 71z" />
    <glyph glyph-name="l" unicode="l" 
d="M207 82c0 26.667 9.33301 47 28 61s42.667 21 72 21h297v1106h-229c-29.333 0 -53.5 7.16699 -72.5 21.5s-28.5 34.5 -28.5 60.5s9.5 46.167 28.5 60.5s43.167 21.5 72.5 21.5h321c26 0 47.833 -7.83301 65.5 -23.5s26.5 -35.167 26.5 -58.5v-1188h297
c29.333 0 53.5 -7.16699 72.5 -21.5s28.5 -34.5 28.5 -60.5s-9.5 -46.167 -28.5 -60.5s-43.167 -21.5 -72.5 -21.5h-778c-29.333 0 -53.333 7 -72 21s-28 34.333 -28 61z" />
    <glyph glyph-name="m" unicode="m" 
d="M98 100v824c0 28 8.66699 51.667 26 71s39.333 29 66 29c27.333 0 49.666 -9.66699 66.999 -29s26 -43 26 -71v-23c10 38.667 32.667 72.167 68 100.5s78 42.5 128 42.5c126.667 0 204.667 -48.333 234 -145c12.667 39.333 38.5 73.333 77.5 102s86.833 43 143.5 43
c85.333 0 149.666 -24.833 192.999 -74.5s65 -117.5 65 -203.5v-666c0 -28.667 -8.33301 -52.5 -25 -71.5s-39 -28.5 -67 -28.5c-26.667 0 -48.667 9.66699 -66 29s-26 43 -26 71v615c0 58.667 -9.16699 101 -27.5 127s-48.166 39 -89.499 39
c-52 0 -90.667 -24.833 -116 -74.5s-38 -117.167 -38 -202.5v-504c0 -28.667 -8.33301 -52.5 -25 -71.5s-39 -28.5 -67 -28.5c-26.667 0 -48.667 9.66699 -66 29s-26 43 -26 71v615c0 58.667 -9 101 -27 127s-48 39 -90 39c-102 0 -153 -100.333 -153 -301v-480
c0 -28 -8.66699 -51.667 -26 -71s-39.666 -29 -66.999 -29c-26.667 0 -48.667 9.66699 -66 29s-26 43 -26 71z" />
    <glyph glyph-name="n" unicode="n" 
d="M219 100l-0.000976562 823.999c0 28 8.66699 51.667 26 71s39.333 29 66 29s48.667 -9.66699 66 -29s26 -43 26 -71v-41c15.333 43.333 51.333 81 108 113s117 48 181 48c124.667 0 220.334 -31 287.001 -93s100 -162.667 100 -302v-549
c0 -28.667 -8.33301 -52.5 -25 -71.5s-39 -28.5 -67 -28.5c-26.667 0 -48.667 9.66699 -66 29s-26 43 -26 71v508c0 96.667 -15.167 166.334 -45.5 209.001s-82.833 64 -157.5 64c-89.333 0 -159.833 -36.5 -211.5 -109.5s-77.5 -168.5 -77.5 -286.5v-385
c0 -28 -8.66699 -51.667 -26 -71s-39.333 -29 -66 -29s-48.667 9.66699 -66 29s-26 43 -26 71z" />
    <glyph glyph-name="o" unicode="o" 
d="M143 512c0 153.333 45.335 280.333 136.002 381s208.667 151 354 151s263.166 -50.333 353.499 -151s135.5 -227.667 135.5 -381c0 -100.667 -19.833 -191.167 -59.5 -271.5s-96.834 -143.833 -171.501 -190.5s-160.667 -70 -258 -70
c-145.333 0 -263.333 50.333 -354 151s-136 227.667 -136 381zM328.002 512c0 -113.333 28 -203.166 84 -269.499s129.667 -99.5 221 -99.5s165 33.167 221 99.5s84 156.166 84 269.499s-28 203.166 -84 269.499s-129.667 99.5 -221 99.5s-165 -33.167 -221 -99.5
s-84 -156.166 -84 -269.499z" />
    <glyph glyph-name="p" unicode="p" 
d="M211 -309l0.00195312 1233c0 28 8.66699 51.667 26 71s39.333 29 66 29c22.667 0 42.5 -10.333 59.5 -31s27.167 -45.667 30.5 -75c25.333 39.333 65.166 70.166 119.499 92.499s110.833 33.5 169.5 33.5c148.667 0 265 -47.167 349 -141.5s126 -224.5 126 -390.5
c0 -100.667 -17.833 -190.667 -53.5 -270s-89.834 -142.833 -162.501 -190.5s-159 -71.5 -259 -71.5c-60 0 -117 12 -171 36s-92.667 55 -116 93v-418c0 -28 -8.66699 -51.833 -26 -71.5s-39.333 -29.5 -66 -29.5s-48.667 9.83301 -66 29.5s-26 43.5 -26 71.5z
M395.002 512.001c0 -114.667 25 -205.167 75 -271.5s121.333 -99.5 214 -99.5s164 33.167 214 99.5s75 156.833 75 271.5c0 113.333 -25 203.166 -75 269.499s-121.333 99.5 -214 99.5s-164 -33.167 -214 -99.5s-75 -156.166 -75 -269.499z" />
    <glyph glyph-name="q" unicode="q" 
d="M162 512c0 166 42.002 296.166 126.002 390.499s200.333 141.5 349 141.5c58.667 0 115.167 -11.167 169.5 -33.5s94.166 -53.166 119.499 -92.499c3.33301 29.333 13.5 54.333 30.5 75s36.833 31 59.5 31c26.667 0 48.667 -9.66699 66 -29s26 -43 26 -71v-1233
c0 -28 -8.66699 -51.833 -26 -71.5s-39.333 -29.5 -66 -29.5s-48.667 9.83301 -66 29.5s-26 43.5 -26 71.5v418c-23.333 -38 -62 -69 -116 -93s-111 -36 -171 -36c-100 0 -186.333 23.833 -259 71.5s-126.834 111.167 -162.501 190.5s-53.5 169.333 -53.5 270z
M346.002 511.999c0 -114.667 25 -205.167 75 -271.5s121.333 -99.5 214 -99.5s164 33.167 214 99.5s75 156.833 75 271.5c0 113.333 -25 203.166 -75 269.499s-121.333 99.5 -214 99.5s-164 -33.167 -214 -99.5s-75 -156.166 -75 -269.499z" />
    <glyph glyph-name="r" unicode="r" 
d="M303 104l-0.00195312 815.999c0 29.333 8.33301 54 25 74s39 30 67 30s50.333 -10 67 -30s25 -44.667 25 -74v-46c24.667 43.333 65.334 82.5 122.001 117.5s118 52.5 184 52.5c170.667 0 287.334 -64 350.001 -192c8 -16 12 -32.333 12 -49
c0 -28 -10.5 -51.333 -31.5 -70s-44.5 -28 -70.5 -28c-35.333 0 -61.333 19 -78 57c-38 79.333 -98.667 119 -182 119c-51.333 0 -97 -11.167 -137 -33.5s-72 -52.666 -96 -90.999s-42.167 -81.5 -54.5 -129.5s-18.5 -99.333 -18.5 -154v-369
c0 -29.333 -8.33301 -54 -25 -74s-39 -30 -67 -30s-50.333 10 -67 30s-25 44.667 -25 74z" />
    <glyph glyph-name="s" unicode="s" 
d="M213 223c0 26 8.16797 48.4932 24.501 67.4932s38.166 28.5 65.499 28.5c20 0 36 -3.5 48 -10.5s24 -18.5 36 -34.5c65.333 -87.333 156 -131 272 -131c80 0 142.333 13.5 187 40.5s67 67.5 67 121.5c0 14.667 -2.83301 27.834 -8.5 39.501s-15.667 21.834 -30 30.501
s-27.833 15.834 -40.5 21.501s-31.667 11 -57 16s-45.666 8.66699 -60.999 11l-71 10.5c-44.667 6.66699 -83 13.334 -115 20.001s-67 17.334 -105 32.001s-68.667 31.667 -92 51s-43 45.333 -59 78s-24 70 -24 112c0 52.667 11.333 99.834 34 141.501s53.167 75 91.5 100
s80.666 43.833 126.999 56.5s95.166 19 146.499 19c87.333 0 160.833 -13.167 220.5 -39.5s111.167 -69.833 154.5 -130.5c13.333 -17.333 20 -37 20 -59c0 -26.667 -9.16699 -48.667 -27.5 -66s-41.833 -26 -70.5 -26c-30 0 -54 14.333 -72 43
c-46 76.667 -121 115 -225 115c-68 0 -120.833 -12.667 -158.5 -38s-56.5 -61.333 -56.5 -108c0 -18 4.83301 -34.333 14.5 -49s22 -26.834 37 -36.501s34.667 -18.334 59 -26.001s48 -13.667 71 -18s50.5 -8.83301 82.5 -13.5
c24.667 -3.33301 44.167 -6.16602 58.5 -8.49902l57 -9.5c23.667 -4 42.5 -8.16699 56.5 -12.5l51.5 -16c20.333 -6.33301 36.833 -13.166 49.5 -20.499s26.5 -16 41.5 -26s27 -21.167 36 -33.5s17.667 -26 26 -41s14.333 -31.833 18 -50.5s5.5 -39 5.5 -61
c0 -103.333 -41.833 -184.666 -125.5 -243.999s-189.5 -89 -317.5 -89c-181.333 0 -319.666 58.667 -414.999 176c-18 22.667 -27 45 -27 67z" />
    <glyph glyph-name="t" unicode="t" 
d="M113 942c0 54.667 31.999 81.998 95.999 81.998h266v328c0 28.667 8.5 52.834 25.5 72.501s39.167 29.5 66.5 29.5c28 0 50.333 -9.66699 67 -29s25 -43.666 25 -72.999v-328h371c64 0 96 -27.333 96 -82c0 -26.667 -8.66699 -47 -26 -61s-40.666 -21 -69.999 -21h-371
v-536c0 -62.667 14.833 -108.5 44.5 -137.5s67.5 -43.5 113.5 -43.5c32.667 0 61.167 3.5 85.5 10.5s43.333 14.833 57 23.5s33.167 22.667 58.5 42c18 14 36.333 21 55 21c26.667 0 47.334 -8.5 62.001 -25.5s22 -37.833 22 -62.5c0 -31.333 -19.667 -61 -59 -89
c-40.667 -28.667 -83.334 -49.667 -128.001 -63s-98.334 -20 -161.001 -20c-48 0 -91.667 6 -131 18s-74.5 30.667 -105.5 56s-55 59.333 -72 102s-25.5 93 -25.5 151v553h-266c-29.333 0 -52.666 7 -69.999 21s-26 34.333 -26 61z" />
    <glyph glyph-name="u" unicode="u" 
d="M219 375l0.000976562 549.001c0 28.667 8.33301 52.5 25 71.5s39 28.5 67 28.5c26.667 0 48.667 -9.66699 66 -29s26 -43 26 -71v-508c0 -96.667 15.167 -166.334 45.5 -209.001s82.833 -64 157.5 -64c89.333 0 159.833 36.5 211.5 109.5s77.5 168.5 77.5 286.5v385
c0 28 8.66699 51.667 26 71s39.333 29 66 29s48.667 -9.66699 66 -29s26 -43 26 -71v-824c0 -28 -8.66699 -51.667 -26 -71s-39.333 -29 -66 -29s-48.667 9.66699 -66 29s-26 43 -26 71v41c-15.333 -43.333 -51.333 -81 -108 -113s-117 -48 -181 -48
c-124.667 0 -220.334 31 -287.001 93s-100 162.667 -100 302z" />
    <glyph glyph-name="v" unicode="v" 
d="M164 924c0 20 5.3291 38.333 15.9961 55s25 29 43 37c10.667 5.33301 23.667 8 39 8c18.667 0 36.334 -5.33301 53.001 -16s29 -25 37 -43l293 -662l293 662c8 18 20.333 32.333 37 43s34.334 16 53.001 16c15.333 0 28.333 -2.66699 39 -8c18 -8 32.333 -20.333 43 -37
s16 -35 16 -55c0 -8.66699 -2.66699 -21 -8 -37l-385 -828c-17.333 -39.333 -46.666 -59 -87.999 -59s-70.666 19.667 -87.999 59l-385 828c-5.33301 10.667 -8 23 -8 37z" />
    <glyph glyph-name="w" unicode="w" 
d="M59 926c0 28 8.83301 51.333 26.5 70s40.5 28 68.5 28c50 0 81.333 -22.667 94 -68l137 -618l158 434c6 20.667 17 37.167 33 49.5s35.667 18.5 59 18.5s43 -6.16699 59 -18.5s27 -28.833 33 -49.5l158 -434l137 618c12.667 45.333 44 68 94 68
c28 0 50.667 -9.33301 68 -28s26 -42 26 -70c0 -11.333 -1.33301 -21.666 -4 -30.999l-207 -827c-6 -22 -17.5 -38.833 -34.5 -50.5s-36.833 -17.5 -59.5 -17.5c-45.333 0 -76 22.667 -92 68l-178 491l-178 -491c-16 -45.333 -46.667 -68 -92 -68
c-22.667 0 -42.667 5.83301 -60 17.5s-29 28.5 -35 50.5l-207 827c-2.66699 9.33301 -4 19.666 -4 30.999z" />
    <glyph glyph-name="x" unicode="x" 
d="M199 82c0 25.333 9.33301 50.002 28 74.002l287 356l-287 356c-18.667 24 -28 48.667 -28 74c0 20 9.16699 38.667 27.5 56s38.5 26 60.5 26c30.667 0 59.334 -16.333 86.001 -49l256 -322l256 322c26.667 32.667 55.334 49 86.001 49c22 0 42.167 -8.66699 60.5 -26
s27.5 -36 27.5 -56c0 -24.667 -9.66699 -49.334 -29 -74.001l-287 -356l287 -356c19.333 -24.667 29 -49.334 29 -74.001c0 -20 -9.16699 -38.667 -27.5 -56s-38.5 -26 -60.5 -26c-30.667 -0 -59.334 16.333 -86.001 49l-256 320l-256 -320
c-26.667 -32.667 -55.334 -49 -86.001 -49c-22 0 -42.167 8.66699 -60.5 26s-27.5 36 -27.5 56z" />
    <glyph glyph-name="y" unicode="y" 
d="M92 -326c0 24 7.50098 43.3311 22.501 57.998s33.5 22 55.5 22c12 0 27 -3.33301 45 -10s35 -10 51 -10c59.333 0 106.666 19.833 141.999 59.5s74.666 111.167 117.999 214.5l11 25l-379 854c-5.33301 10.667 -8 23 -8 37c0 20 5.33301 38.333 16 55s25 29 43 37
c10.667 5.33301 23.667 8 39 8c18.667 0 36.334 -5.33301 53.001 -16s29 -25 37 -43l303 -691l301 691c8 18 20.333 32.333 37 43s34.334 16 53.001 16c15.333 0 28.333 -2.66699 39 -8c18 -8 32.333 -20.333 43 -37s16 -35 16 -55c0 -8.66699 -2.66699 -21 -8 -37
l-389 -856c-28.667 -64 -54.334 -117.333 -77.001 -160s-48.5 -84.667 -77.5 -126s-58.167 -73.666 -87.5 -96.999s-62.833 -42.166 -100.5 -56.499s-79.167 -21.5 -124.5 -21.5c-116 0 -174 34.667 -174 104z" />
    <glyph glyph-name="z" unicode="z" 
d="M180 92c0 23.333 6.99902 44 20.999 62l579 706h-471c-29.333 0 -53.666 6.83301 -72.999 20.5s-29 34.167 -29 61.5s9.66699 47.833 29 61.5s43.666 20.5 72.999 20.5h631c30.667 0 55.334 -7.66699 74.001 -23s28 -38.333 28 -69c0 -21.333 -6.66699 -42 -20 -62
l-578 -706h521c30 0 54.5 -6.83301 73.5 -20.5s28.5 -34.167 28.5 -61.5s-9.5 -47.833 -28.5 -61.5s-43.5 -20.5 -73.5 -20.5h-682c-31.333 0 -56.333 8.16699 -75 24.5s-28 38.833 -28 67.5z" />
    <glyph glyph-name="braceleft" unicode="{" 
d="M166 586c0 24.667 7.33301 44.499 22 59.499s34.667 22.5 60 22.5c62 0 111.333 22.833 148 68.5s55 112.167 55 199.5v467c0 26.667 9 49.334 27 68.001s43.667 28 77 28h330c62.667 0 94 -27.333 94 -82s-31.333 -82 -94 -82h-254v-358
c0 -118.667 -11.833 -204.5 -35.5 -257.5s-72.5 -97.5 -146.5 -133.5c74 -36 122.833 -80.5 146.5 -133.5s35.5 -138.833 35.5 -257.5v-359h254c62.667 0 94 -27.333 94 -82s-31.333 -82 -94 -82h-330c-33.333 0 -59 9.5 -77 28.5s-27 41.833 -27 68.5v467
c0 87.333 -18.333 153.833 -55 199.5s-86 68.5 -148 68.5c-25.333 0 -45.333 7.5 -60 22.5s-22 34.833 -22 59.5z" />
    <glyph glyph-name="bar" unicode="|" 
d="M547 -72v1577c0 54.667 29.333 82 88 82s88 -27.333 88 -82v-1577c0 -54.667 -29.333 -82 -88 -82s-88 27.333 -88 82z" />
    <glyph glyph-name="braceright" unicode="}" 
d="M166 -246c0 54.667 31.333 82.001 94 82.001h254v359c0 118.667 11.833 204.5 35.5 257.5s72.5 97.5 146.5 133.5c-74 36 -122.833 80.5 -146.5 133.5s-35.5 138.833 -35.5 257.5v358h-254c-62.667 0 -94 27.333 -94 82s31.333 82 94 82h330c33.333 0 59 -9.33301 77 -28
s27 -41.334 27 -68.001v-467c0 -87.333 18.333 -153.833 55 -199.5s86 -68.5 148 -68.5c25.333 0 45.333 -7.5 60 -22.5s22 -34.833 22 -59.5s-7.33301 -44.5 -22 -59.5s-34.667 -22.5 -60 -22.5c-62 0 -111.333 -22.833 -148 -68.5s-55 -112.167 -55 -199.5v-467
c0 -26.667 -9 -49.5 -27 -68.5s-43.667 -28.5 -77 -28.5h-330c-62.667 0 -94 27.333 -94 82z" />
    <glyph glyph-name="asciitilde" unicode="~" 
d="M188 608c0 26 11.667 50.6641 35 73.9971c59.333 61.333 135.333 92 228 92c34 0 69.333 -6.16699 106 -18.5s68.334 -25.666 95.001 -39.999s57.667 -27.666 93 -39.999s69 -18.5 101 -18.5c47.333 0 87 15 119 45c24 20.667 47 31 69 31c21.333 0 39 -6.66699 53 -20
s21 -32 21 -56c0 -25.333 -11.667 -49.666 -35 -72.999c-59.333 -61.333 -135 -92 -227 -92c-36.667 0 -73.667 6 -111 18s-68.833 25.333 -94.5 40s-55.834 28 -90.501 40s-67.667 18 -99 18c-47.333 0 -87 -15 -119 -45c-24 -20.667 -47.333 -31 -70 -31
c-21.333 0 -39 6.66699 -53 20s-21 32 -21 56z" />
    <glyph glyph-name="uni00A0" unicode="&#xa0;" 
 />
    <glyph glyph-name="exclamdown" unicode="&#xa1;" 
d="M469 1268c0 46.667 15.833 86 47.5 118s71.167 48 118.5 48s86.833 -16 118.5 -48s47.5 -71.333 47.5 -118s-15.833 -86 -47.5 -118s-71.167 -48 -118.5 -48s-86.833 16 -118.5 48s-47.5 71.333 -47.5 118zM508 117l37 739c2.66699 72.667 32.667 109 90 109
s87.333 -36.333 90 -109l37 -739c-2 -91.333 -44.333 -137 -127 -137s-125 45.667 -127 137z" />
    <glyph glyph-name="cent" unicode="&#xa2;" 
d="M121 717c0 139.333 38.499 257.498 115.499 354.498s182.5 154.167 316.5 171.5v119c0 61.333 25.333 92 76 92s76 -30.667 76 -92v-117c69.333 -6.66699 127 -22.667 173 -48s89.333 -59 130 -101c27.333 -27.333 41 -56 41 -86c0 -26.667 -7.83301 -49.167 -23.5 -67.5
s-37.167 -27.5 -64.5 -27.5c-28 0 -53.333 15.333 -76 46c-27.333 38 -54.666 66 -81.999 84s-60 30 -98 36v-729c37.333 4.66699 69.666 16.334 96.999 35.001s55 47.334 83 86.001c22 30 47.333 45 76 45c27.333 0 48.833 -9 64.5 -27s23.5 -40.333 23.5 -67
c0 -30 -13.667 -58.667 -41 -86c-40 -42 -83.167 -76 -129.5 -102s-104.166 -42.667 -173.499 -50v-114c0 -61.333 -25.333 -92 -76 -92s-76 30.667 -76 92v116c-134 17.333 -239.5 75 -316.5 173s-115.5 216.667 -115.5 356zM300.999 716.998
c0 -89.333 22.833 -167.332 68.5 -233.999s106.834 -109 183.501 -127v721c-76.667 -18 -137.834 -60.333 -183.501 -127s-68.5 -144.334 -68.5 -233.001z" />
    <glyph glyph-name="sterling" unicode="&#xa3;" 
d="M78 82c0 44 26.667 71.334 80 82.001c116 24 174 116.667 174 278v215h-74c-29.333 0 -53.333 7 -72 21s-28 34.333 -28 61s9.33301 47 28 61s42.667 21 72 21h74v236c0 125.333 29.5 220.833 88.5 286.5s140.833 98.5 245.5 98.5c154.667 0 261 -65 319 -195
c8 -16 12 -31.667 12 -47c0 -27.333 -10.333 -49.833 -31 -67.5s-43.667 -26.5 -69 -26.5c-34.667 0 -58.667 15.667 -72 47c-19.333 50.667 -40.5 84.167 -63.5 100.5s-54.833 24.5 -95.5 24.5c-54 0 -93.167 -17.5 -117.5 -52.5s-36.5 -89.167 -36.5 -162.5v-242h197
c29.333 0 53.333 -7 72 -21s28 -34.333 28 -61s-9.33301 -47 -28 -61s-42.667 -21 -72 -21h-197v-215c0 -65.333 -9.16699 -121.833 -27.5 -169.5s-42.5 -83.834 -72.5 -108.501h467v168c0 29.333 7 53.333 21 72s34.333 28 61 28c26 0 46 -9.33301 60 -28
s21 -42.667 21 -72v-250c0 -54.667 -31.333 -82 -94 -82h-790c-25.333 0 -45 8.16699 -59 24.5s-21 35.5 -21 57.5z" />
    <glyph glyph-name="currency" unicode="&#xa4;" 
d="M178 465c0 26 12.333 51.333 37 76l43 43c-39.333 59.333 -59 126.666 -59 201.999c0 74.667 19.667 141.667 59 201l-43 45c-24.667 24.667 -37 50 -37 76c0 18.667 8.33301 36.334 25 53.001s34.334 25 53.001 25c26 0 51.333 -12.333 76 -37l45 -47
c62 38 129 57 201 57c73.333 0 139.333 -19 198 -57l47 47c24.667 24.667 50 37 76 37c18.667 0 36.334 -8.33301 53.001 -25s25 -34.334 25 -53.001c0 -26 -12.333 -51.333 -37 -76l-45 -45c40.667 -59.333 61 -126.333 61 -201c0 -75.333 -20.333 -142.666 -61 -201.999
l45 -43c24.667 -24.667 37 -50 37 -76c0 -18.667 -8.33301 -36.334 -25 -53.001s-34.334 -25 -53.001 -25c-26 0 -51.333 12.333 -76 37l-47 45c-60 -36.667 -126 -55 -198 -55s-139 18.333 -201 55l-45 -45c-24.667 -24.667 -50 -37 -76 -37
c-18.667 0 -36.334 8.33301 -53.001 25s-25 34.334 -25 53.001zM354 786c0 -63.333 22 -117.333 66 -162s96.667 -67 158 -67s113.833 22.333 157.5 67s65.5 98.667 65.5 162s-21.833 117.5 -65.5 162.5s-96.167 67.5 -157.5 67.5s-114 -22.5 -158 -67.5
s-66 -99.167 -66 -162.5z" />
    <glyph glyph-name="yen" unicode="&#xa5;" 
d="M92 1331c0 36.667 14.998 65.333 44.998 86c14.667 10 34.667 15 60 15c38.667 0 67.334 -14.333 86.001 -43l352 -558l352 558c20.667 30 49.334 45 86.001 45c22.667 0 44 -7 64 -21c27.333 -18.667 41 -46 41 -82c0 -23.333 -6.33301 -44.333 -19 -63l-311 -469h119
c34 0 59.833 -6.5 77.5 -19.5s26.5 -35.167 26.5 -66.5s-8.83301 -53.5 -26.5 -66.5s-43.5 -19.5 -77.5 -19.5h-234v-164h234c34 0 59.833 -6.5 77.5 -19.5s26.5 -35.167 26.5 -66.5s-8.83301 -53.5 -26.5 -66.5s-43.5 -19.5 -77.5 -19.5h-234v-185
c0 -30 -9.16699 -55.167 -27.5 -75.5s-41.833 -30.5 -70.5 -30.5s-52.167 10.167 -70.5 30.5s-27.5 45.5 -27.5 75.5v185h-232c-34 0 -59.833 6.5 -77.5 19.5s-26.5 35.167 -26.5 66.5s8.83301 53.5 26.5 66.5s43.5 19.5 77.5 19.5h232v164h-232
c-34 0 -59.833 6.5 -77.5 19.5s-26.5 35.167 -26.5 66.5s8.83301 53.5 26.5 66.5s43.5 19.5 77.5 19.5h117l-311 469c-12.667 16 -19 37 -19 63z" />
    <glyph glyph-name="brokenbar" unicode="&#xa6;" 
d="M547 -72v623c0 54.667 29.333 82 88 82s88 -27.333 88 -82v-623c0 -54.667 -29.333 -82 -88 -82s-88 27.333 -88 82zM547 883v622c0 54.667 29.333 82 88 82s88 -27.333 88 -82v-622c0 -54.667 -29.333 -82 -88 -82s-88 27.333 -88 82z" />
    <glyph glyph-name="section" unicode="&#xa7;" 
d="M186 -168c0 32.667 8.5 56.834 25.5 72.501s40.167 23.5 69.5 23.5c36 0 65.333 -20.333 88 -61c47.333 -88.667 119.666 -133 216.999 -133c56.667 0 102.167 15.333 136.5 46s51.5 78 51.5 142c0 42 -10.667 79.333 -32 112s-49.166 60 -83.499 82s-72 43 -113 63
l-123.5 63c-41.333 22 -79.166 46 -113.499 72s-62.166 59.667 -83.499 101s-32 88 -32 140c0 49.333 9.66699 96.833 29 142.5s47 85.5 83 119.5c-74.667 72 -112 162 -112 270c0 120 34 211.167 102 273.5s156.667 93.5 266 93.5c92.667 0 167.334 -15.833 224.001 -47.5
s108.334 -82.167 155.001 -151.5c14 -22.667 21 -43.667 21 -63c0 -32.667 -8.5 -56.834 -25.5 -72.501s-40.167 -23.5 -69.5 -23.5c-36 0 -65.333 20.333 -88 61c-47.333 88.667 -119.666 133 -216.999 133c-56.667 0 -102.167 -15.333 -136.5 -46s-51.5 -78 -51.5 -142
c0 -42 10.667 -79.333 32 -112s49.166 -60 83.499 -82s72 -43 113 -63l123.5 -63c41.333 -22 79.166 -46 113.499 -72s62.166 -59.667 83.499 -101s32 -88 32 -140c0 -49.333 -9.66699 -96.833 -29 -142.5s-47 -85.5 -83 -119.5c74.667 -72 112 -162 112 -270
c0 -120 -34 -211.167 -102 -273.5s-156.667 -93.5 -266 -93.5c-92.667 0 -167.334 15.833 -224.001 47.5s-108.334 82.167 -155.001 151.5c-14 22.667 -21 43.667 -21 63zM373 553c0 -21.333 4.66504 -41 13.998 -59s20.833 -33.5 34.5 -46.5s32.334 -26.333 56.001 -40
s45.5 -25 65.5 -34l76.5 -34.5c31 -14 56.5 -26 76.5 -36c52 40.667 78 96.667 78 168c0 21.333 -4.66699 41 -14 59s-20.666 33.333 -33.999 46s-31.833 26 -55.5 40s-45.5 25.5 -65.5 34.5l-77 34.5c-31.333 14 -57 26 -77 36c-52 -40.667 -78 -96.667 -78 -168z" />
    <glyph glyph-name="dieresis" unicode="&#xa8;" 
d="M225 1718c0 35.333 11.833 65 35.5 89s52.167 36 85.5 36c34.667 0 64.167 -12.167 88.5 -36.5s36.5 -53.833 36.5 -88.5c0 -32.667 -12.333 -61 -37 -85s-54 -36 -88 -36c-33.333 0 -61.833 12.167 -85.5 36.5s-35.5 52.5 -35.5 84.5zM616 1718
c0 35.333 12.167 65 36.5 89s52.5 36 84.5 36c36 0 65.833 -12 89.5 -36s35.5 -53.667 35.5 -89c0 -32.667 -12.333 -61 -37 -85s-54 -36 -88 -36c-32.667 0 -61 12.167 -85 36.5s-36 52.5 -36 84.5z" />
    <glyph glyph-name="copyright" unicode="&#xa9;" 
d="M53 725c0 82.667 15.833 160.5 47.5 233.5s74.334 134.5 128.001 184.5s116.167 89.5 187.5 118.5s145.666 43.5 222.999 43.5s151.833 -14.5 223.5 -43.5s134.334 -68.5 188.001 -118.5s96.5 -111.5 128.5 -184.5s48 -150.833 48 -233.5s-16 -160.334 -48 -233.001
s-74.833 -134 -128.5 -184s-116.167 -89.333 -187.5 -118s-146 -43 -224 -43s-152.5 14.333 -223.5 43s-133.333 68 -187 118s-96.334 111.333 -128.001 184s-47.5 150.334 -47.5 233.001zM213 725c0 -58 9.33301 -112.832 28 -164.499s45.334 -97.667 80.001 -138
s79.5 -72.333 134.5 -96s116.167 -35.5 183.5 -35.5s128.666 11.833 183.999 35.5s100.5 55.667 135.5 96s61.833 86.333 80.5 138s28 106.5 28 164.5s-9.33301 113 -28 165s-45.5 98.167 -80.5 138.5s-80.167 72.5 -135.5 96.5s-116.666 36 -183.999 36
s-128.5 -11.833 -183.5 -35.5s-99.833 -55.834 -134.5 -96.501s-61.334 -87 -80.001 -139s-28 -107 -28 -165zM344 725.001c0 83.333 27.833 153 83.5 209s126.167 84 211.5 84c102.667 0 178.334 -28 227.001 -84c12.667 -14.667 19 -31 19 -49
s-6.16699 -32.833 -18.5 -44.5s-27.5 -17.5 -45.5 -17.5c-20.667 0 -35 7 -43 21c-18 26.667 -37.5 44.5 -58.5 53.5s-47.833 13.5 -80.5 13.5c-50 0 -89.833 -17 -119.5 -51s-44.5 -79 -44.5 -135s14.833 -101 44.5 -135s69.5 -51 119.5 -51c32.667 0 59.5 4.5 80.5 13.5
s40.5 26.833 58.5 53.5c8 14 22.333 21 43 21c18 0 33.167 -5.83301 45.5 -17.5s18.5 -26.5 18.5 -44.5s-6.33301 -34.333 -19 -49c-48.667 -56 -124.334 -84 -227.001 -84c-85.333 0 -155.833 28 -211.5 84s-83.5 125.667 -83.5 209z" />
    <glyph glyph-name="ordfeminine" unicode="&#xaa;" 
d="M242 1030c0 56 7.99902 108.669 23.999 158.002s39.167 93.166 69.5 131.499s69.333 68.666 117 90.999s101.5 33.5 161.5 33.5c42.667 0 83.5 -9.16699 122.5 -27.5s69.833 -44.833 92.5 -79.5c2 25.333 10.667 46.666 26 63.999s33.333 26 54 26
c25.333 0 45.666 -7 60.999 -21s23 -33.333 23 -58v-637c0 -24.667 -7.66699 -44.167 -23 -58.5s-35.666 -21.5 -60.999 -21.5c-20.667 0 -38.667 8.83301 -54 26.5s-24 38.834 -26 63.501c-22.667 -34 -53.5 -60.333 -92.5 -79s-79.833 -28 -122.5 -28
c-61.333 0 -116.166 11.167 -164.499 33.5s-87.333 53 -117 92s-52.167 83 -67.5 132s-23 101.833 -23 158.5zM396.999 1030c0 -85.333 19.333 -152.999 58 -202.999s91.667 -75 159 -75c66.667 0 120 25.167 160 75.5s60 117.833 60 202.5c0 84 -20 151.5 -60 202.5
s-93.333 76.5 -160 76.5s-119.5 -25.333 -158.5 -76s-58.5 -118.334 -58.5 -203.001z" />
    <glyph glyph-name="guillemotleft" unicode="&#xab;" 
d="M137 535c0 21.333 11 42.998 33 64.998l379 387c22 22 45 33 69 33c22 0 39.833 -6.83301 53.5 -20.5s20.5 -31.5 20.5 -53.5c0 -25.333 -11.667 -50.666 -35 -75.999l-321 -335l321 -336c23.333 -25.333 35 -50.666 35 -75.999c0 -22 -6.83301 -39.833 -20.5 -53.5
s-31.5 -20.5 -53.5 -20.5c-24 0 -47 11 -69 33l-379 387c-22 22 -33 44 -33 66zM526 534.998c0 21.333 11 43 33 65l379 387c22 22 45.333 33 70 33c22 0 39.667 -6.83301 53 -20.5s20 -31.5 20 -53.5c0 -26 -11.333 -51.333 -34 -76l-322 -335l322 -336
c22.667 -24.667 34 -50 34 -76c0 -22 -6.66699 -39.833 -20 -53.5s-31 -20.5 -53 -20.5c-24.667 0 -48 11 -70 33l-379 387c-22 22 -33 44 -33 66z" />
    <glyph glyph-name="logicalnot" unicode="&#xac;" 
d="M113 799c0 29.333 9.33203 51.333 27.999 66s44 22 76 22h787c28.667 0 51.167 -7.66699 67.5 -23s24.5 -37 24.5 -65v-389c0 -28 -8.66699 -51.833 -26 -71.5s-39.333 -29.5 -66 -29.5c-27.333 0 -49.666 9.83301 -66.999 29.5s-26 43.5 -26 71.5v301h-694
c-32 0 -57.333 7.33301 -76 22s-28 36.667 -28 66z" />
    <glyph glyph-name="uni00AD" unicode="&#xad;" 
d="M213 616c0 31.333 8.83301 53.5 26.5 66.5s43.5 19.5 77.5 19.5h639c70 0 105 -28.667 105 -86s-35 -86 -105 -86h-639c-34 0 -59.833 6.5 -77.5 19.5s-26.5 35.167 -26.5 66.5z" />
    <glyph glyph-name="registered" unicode="&#xae;" 
d="M53 725c0 82.667 15.833 160.5 47.5 233.5s74.334 134.5 128.001 184.5s116.167 89.5 187.5 118.5s145.666 43.5 222.999 43.5s151.833 -14.5 223.5 -43.5s134.334 -68.5 188.001 -118.5s96.5 -111.5 128.5 -184.5s48 -150.833 48 -233.5s-16 -160.334 -48 -233.001
s-74.833 -134 -128.5 -184s-116.167 -89.333 -187.5 -118s-146 -43 -224 -43s-152.5 14.333 -223.5 43s-133.333 68 -187 118s-96.334 111.333 -128.001 184s-47.5 150.334 -47.5 233.001zM213 725c0 -58 9.33301 -112.832 28 -164.499s45.334 -97.667 80.001 -138
s79.5 -72.333 134.5 -96s116.167 -35.5 183.5 -35.5s128.666 11.833 183.999 35.5s100.5 55.667 135.5 96s61.833 86.333 80.5 138s28 106.5 28 164.5s-9.33301 113 -28 165s-45.5 98.167 -80.5 138.5s-80.167 72.5 -135.5 96.5s-116.666 36 -183.999 36
s-128.5 -11.833 -183.5 -35.5s-99.833 -55.834 -134.5 -96.501s-61.334 -87 -80.001 -139s-28 -107 -28 -165zM426 500.001v449.998c0 18.667 5.66699 33.667 17 45s26 17 44 17h211c61.333 0 108.833 -15.667 142.5 -47s50.5 -73.666 50.5 -126.999
c0 -83.333 -41.667 -138.666 -125 -165.999l111 -137c6.66699 -11.333 10 -22.333 10 -33c0 -20 -5.83301 -35.667 -17.5 -47s-26.5 -17 -44.5 -17c-16.667 0 -31 8.33301 -43 25l-145 199h-90v-162c0 -19.333 -5.83301 -34.5 -17.5 -45.5s-26.5 -16.5 -44.5 -16.5
c-18.667 0 -33.167 5.5 -43.5 16.5s-15.5 26.167 -15.5 45.5zM547 757.999h127c35.333 0 60.166 5.66699 74.499 17s21.5 32.333 21.5 63s-7.16699 51.667 -21.5 63s-39.166 17 -74.499 17h-127v-160z" />
    <glyph glyph-name="macron" unicode="&#xaf;" 
d="M346 1720c0 26.667 9.16699 47 27.5 61s42.5 21 72.5 21h312c30 0 54.167 -7 72.5 -21s27.5 -34.333 27.5 -61s-9.16699 -47 -27.5 -61s-42.5 -21 -72.5 -21h-312c-30 0 -54.167 7 -72.5 21s-27.5 34.333 -27.5 61z" />
    <glyph glyph-name="degree" unicode="&#xb0;" 
d="M246 1135c0 92 29.667 168.167 89 228.5s136 90.5 230 90.5c95.333 0 173.166 -30.167 233.499 -90.5s90.5 -136.5 90.5 -228.5c0 -90.667 -30.167 -166 -90.5 -226s-138.166 -90 -233.499 -90c-94 0 -170.667 30 -230 90s-89 135.333 -89 226zM395 1135
c0 -54 15.333 -98.333 46 -133s72 -52 124 -52c53.333 0 95.666 17.333 126.999 52s47 79 47 133c0 55.333 -15.667 100.5 -47 135.5s-73.666 52.5 -126.999 52.5c-52 0 -93.333 -17.5 -124 -52.5s-46 -80.167 -46 -135.5z" />
    <glyph glyph-name="plusminus" unicode="&#xb1;" 
d="M119 86c0 31.333 8.83301 53.5 26.5 66.5s43.5 19.5 77.5 19.5h826c34 0 59.833 -6.5 77.5 -19.5s26.5 -35.167 26.5 -66.5s-8.83301 -53.5 -26.5 -66.5s-43.5 -19.5 -77.5 -19.5h-826c-34 0 -59.833 6.5 -77.5 19.5s-26.5 35.167 -26.5 66.5zM119 803
c0 31.333 8.83301 53.5 26.5 66.5s43.5 19.5 77.5 19.5h326v325c0 70 28.667 105 86 105s86 -35 86 -105v-325h328c34 0 59.833 -6.5 77.5 -19.5s26.5 -35.167 26.5 -66.5s-8.83301 -53.5 -26.5 -66.5s-43.5 -19.5 -77.5 -19.5h-328v-328c0 -34 -6.5 -59.833 -19.5 -77.5
s-35.167 -26.5 -66.5 -26.5s-53.5 8.83301 -66.5 26.5s-19.5 43.5 -19.5 77.5v328h-326c-34 0 -59.833 6.5 -77.5 19.5s-26.5 35.167 -26.5 66.5z" />
    <glyph glyph-name="uni00B2" unicode="&#xb2;" 
d="M391 811l0.000976562 29.001c0 67.333 20 121.833 60 163.5s95 76.5 165 104.5c51.333 21.333 87.5 41.166 108.5 59.499s31.5 40.833 31.5 67.5c0 30.667 -9 54.334 -27 71.001s-43.333 25 -76 25c-32 0 -58 -9 -78 -27s-32.667 -42.333 -38 -73
c-7.33301 -44 -29.333 -66 -66 -66c-20 0 -35.833 5.5 -47.5 16.5s-17.5 24.833 -17.5 41.5c0 64.667 23 117.667 69 159s103.333 62 172 62c79.333 0 139.166 -18 179.499 -54s60.5 -84.333 60.5 -145c0 -54.667 -15.5 -99.5 -46.5 -134.5s-77.167 -66.5 -138.5 -94.5
l-50 -23.5c-10.667 -5 -24.667 -12.5 -42 -22.5s-30.333 -19 -39 -27s-17 -17.833 -25 -29.5s-13.333 -23.834 -16 -36.501h326c39.333 0 59 -20.667 59 -62c0 -39.333 -19.667 -59 -59 -59h-412c-15.333 0 -28 5.33301 -38 16s-15 23.667 -15 39z" />
    <glyph glyph-name="uni00B3" unicode="&#xb3;" 
d="M379 958c0 20 6.16699 36.001 18.5 48.001s27.833 18 46.5 18c17.333 0 32 -5.5 44 -16.5s19.333 -27.5 22 -49.5c4.66699 -34 16 -57.833 34 -71.5s45 -20.5 81 -20.5c34.667 0 61.334 9.16699 80.001 27.5s28 42.833 28 73.5c0 31.333 -7.66699 54.833 -23 70.5
s-40.333 23.5 -75 23.5h-19c-19.333 0 -34 5.33301 -44 16s-15 25 -15 43c0 17.333 5.16699 32 15.5 44s24.833 18 43.5 18h21c52 0 78 23 78 69c0 22 -8.16699 39.5 -24.5 52.5s-40.5 19.5 -72.5 19.5c-51.333 0 -81.333 -22 -90 -66c-4 -17.333 -11.5 -30.5 -22.5 -39.5
s-23.833 -13.5 -38.5 -13.5c-16.667 0 -31.5 5.66699 -44.5 17s-19.5 25.666 -19.5 42.999c0 53.333 23.167 96.666 69.5 129.999s94.833 50 145.5 50c72.667 0 128.167 -16.5 166.5 -49.5s57.5 -80.833 57.5 -143.5c0 -32 -8.33301 -58.667 -25 -80
s-37.667 -36.333 -63 -45c32 -7.33301 58.333 -24.333 79 -51s31 -62.667 31 -108c0 -63.333 -23.167 -116.166 -69.5 -158.499s-102.833 -63.5 -169.5 -63.5c-72.667 0 -131.834 20 -177.501 60s-68.5 91 -68.5 153z" />
    <glyph glyph-name="acute" unicode="&#xb4;" 
d="M389 1722c0 36 18.333 63.333 55 82l250 127c20 10 38.667 15 56 15c24.667 0 45.5 -8.5 62.5 -25.5s25.5 -37.167 25.5 -60.5c0 -36.667 -15 -62.667 -45 -78l-277 -142c-15.333 -6.66699 -29 -10 -41 -10c-24.667 0 -45.167 9.16699 -61.5 27.5
s-24.5 39.833 -24.5 64.5z" />
    <glyph glyph-name="mu" unicode="&#xb5;" 
d="M219 -309l0.000976562 1233c0 28.667 8.33301 52.5 25 71.5s39 28.5 67 28.5c26.667 0 48.667 -9.66699 66 -29s26 -43 26 -71v-537c0 -85.333 15.833 -147.333 47.5 -186s83.5 -58 155.5 -58c89.333 0 159.833 36.5 211.5 109.5s77.5 168.5 77.5 286.5v385
c0 28 8.66699 51.667 26 71s39.333 29 66 29s48.667 -9.66699 66 -29s26 -43 26 -71v-824c0 -28 -8.66699 -51.667 -26 -71s-39.333 -29 -66 -29s-48.667 9.66699 -66 29s-26 43 -26 71v41c-15.333 -43.333 -51.333 -81 -108 -113s-117 -48 -181 -48
c-80.667 0 -148.334 12 -203.001 36v-325c0 -28 -8.66699 -51.833 -26 -71.5s-39.333 -29.5 -66 -29.5s-48.667 9.83301 -66 29.5s-26 43.5 -26 71.5z" />
    <glyph glyph-name="paragraph" unicode="&#xb6;" 
d="M176 1073c0 99.333 34.999 184.333 104.999 255s154.667 106 254 106h520c34.667 0 60.667 -5.83301 78 -17.5s26 -33.167 26 -64.5s-8.66699 -52.833 -26 -64.5s-43.333 -17.5 -78 -17.5v-1327c0 -28.667 -8.5 -51.667 -25.5 -69s-39.167 -26 -66.5 -26
s-49.666 8.66699 -66.999 26s-26 40.333 -26 69v1327h-151v-1327c0 -28.667 -8.5 -51.667 -25.5 -69s-39.167 -26 -66.5 -26s-49.5 8.66699 -66.5 26s-25.5 40.333 -25.5 69v772c-99.333 0 -184 34.833 -254 104.5s-105 154.167 -105 253.5z" />
    <glyph glyph-name="periodcentered" unicode="&#xb7;" 
d="M469 614c0 46.667 15.833 86 47.5 118s71.167 48 118.5 48s86.833 -16 118.5 -48s47.5 -71.333 47.5 -118s-15.833 -85.834 -47.5 -117.501s-71.167 -47.5 -118.5 -47.5s-86.833 15.833 -118.5 47.5s-47.5 70.834 -47.5 117.501z" />
    <glyph glyph-name="cedilla" unicode="&#xb8;" 
d="M428 -436c0 16 3.33301 33 10 51l76 195c17.333 47.333 44 71 80 71c24.667 0 44.5 -7.16699 59.5 -21.5s22.5 -33.166 22.5 -56.499c0 -16 -3.33301 -33 -10 -51l-76 -194c-18 -48 -44.667 -72 -80 -72c-24 0 -43.667 7.16699 -59 21.5s-23 33.166 -23 56.499z" />
    <glyph glyph-name="uni00B9" unicode="&#xb9;" 
d="M414 1247c0 18.667 7.99902 34.332 23.999 46.999l176 117c22 15.333 43.333 23 64 23c36.667 0 55 -20 55 -60v-540c0 -20.667 -5.66699 -38.834 -17 -54.501s-27.333 -23.5 -48 -23.5c-21.333 0 -37.666 7.83301 -48.999 23.5s-17 33.834 -17 54.501v432l-100 -66
c-8 -6.66699 -19 -10 -33 -10c-18 0 -31.667 5.33301 -41 16s-14 24.334 -14 41.001z" />
    <glyph glyph-name="ordmasculine" unicode="&#xba;" 
d="M246 1030c0 120.667 34.5 219.834 103.5 297.501s161.5 116.5 277.5 116.5c116.667 0 209.334 -38.833 278.001 -116.5s103 -176.834 103 -297.501c0 -121.333 -34.333 -221 -103 -299s-161.334 -117 -278.001 -117c-116 0 -208.5 39 -277.5 117
s-103.5 177.667 -103.5 299zM401 1030c0 -86 21 -153.833 63 -203.5s96.333 -74.5 163 -74.5c68 0 122.833 24.667 164.5 74s62.5 117.333 62.5 204c0 85.333 -21 152.833 -63 202.5s-96.667 74.5 -164 74.5c-66.667 0 -121 -24.833 -163 -74.5s-63 -117.167 -63 -202.5z
" />
    <glyph glyph-name="guillemotright" unicode="&#xbb;" 
d="M137 123c0 25.333 11.667 50.668 35 76.001l322 336l-322 335c-23.333 25.333 -35 50.666 -35 75.999c0 22 6.83301 39.833 20.5 53.5s31.5 20.5 53.5 20.5c24.667 0 48 -11 70 -33l378 -387c22 -22 33 -43.667 33 -65c0 -22 -11 -44 -33 -66l-378 -387
c-22 -22 -45.333 -33 -70 -33c-22 0 -39.833 6.83301 -53.5 20.5s-20.5 31.5 -20.5 53.5zM526 123.002c0 25.333 11.667 50.668 35 76.001l322 336l-322 335c-23.333 25.333 -35 50.666 -35 75.999c0 22 6.83301 39.833 20.5 53.5s31.5 20.5 53.5 20.5
c24.667 0 48 -11 70 -33l379 -387c21.333 -21.333 32 -43 32 -65c0 -22.667 -10.667 -44.667 -32 -66l-379 -387c-22 -22 -45.333 -33 -70 -33c-22 0 -39.833 6.83301 -53.5 20.5s-20.5 31.5 -20.5 53.5z" />
    <glyph glyph-name="onequarter" unicode="&#xbc;" 
d="M106 1247c0 18.667 8.33203 34.333 24.999 47l176 117c22 15.333 43.333 23 64 23c36.667 0 55 -20 55 -60v-540c0 -20.667 -5.66699 -38.834 -17 -54.501s-27.666 -23.5 -48.999 -23.5c-20.667 0 -36.667 7.83301 -48 23.5s-17 33.834 -17 54.501v432l-100 -66
c-8.66699 -6.66699 -19.667 -10 -33 -10c-18 0 -31.833 5.5 -41.5 16.5s-14.5 24.5 -14.5 40.5zM122.999 400.999c0 24.667 12.335 45.333 37.002 62l860 600c16 12 31.667 18 47 18c17.333 0 32.166 -7 44.499 -21s18.5 -29.333 18.5 -46c0 -26.667 -12 -48 -36 -64
l-861 -600c-16 -12 -31.667 -18 -47 -18c-18.667 0 -33.834 7 -45.501 21s-17.5 30 -17.5 48zM580.001 194.998c0 10 3.33203 20.667 9.99902 32l278 412c17.333 26 40.666 39 69.999 39c18.667 0 34.667 -4.83301 48 -14.5s20 -23.167 20 -40.5v-367h65
c35.333 0 53 -19 53 -57c0 -42.667 -17.667 -64 -53 -64h-65v-57c0 -20.667 -5.66699 -38.834 -17 -54.501s-27.666 -23.5 -48.999 -23.5s-37.666 7.83301 -48.999 23.5s-17 33.834 -17 54.501v57h-241c-16 0 -28.833 6 -38.5 18s-14.5 26 -14.5 42zM739 255.998h135v197z
" />
    <glyph glyph-name="onehalf" unicode="&#xbd;" 
d="M106 1247c0 18.667 8.33203 34.333 24.999 47l176 117c22 15.333 43.333 23 64 23c36.667 0 55 -20 55 -60v-540c0 -20.667 -5.66699 -38.834 -17 -54.501s-27.666 -23.5 -48.999 -23.5c-20.667 0 -36.667 7.83301 -48 23.5s-17 33.834 -17 54.501v432l-100 -66
c-8.66699 -6.66699 -19.667 -10 -33 -10c-18 0 -31.833 5.5 -41.5 16.5s-14.5 24.5 -14.5 40.5zM122.999 400.999c0 24.667 12.335 45.333 37.002 62l860 600c16 12 31.667 18 47 18c17.333 0 32.166 -7 44.499 -21s18.5 -29.333 18.5 -46c0 -26.667 -12 -48 -36 -64
l-861 -600c-16 -12 -31.667 -18 -47 -18c-18.667 0 -33.834 7 -45.501 21s-17.5 30 -17.5 48zM707.001 54.998v29c0 67.333 20 121.833 60 163.5s95 76.5 165 104.5c50.667 21.333 86.5 41.166 107.5 59.499s31.5 40.833 31.5 67.5c0 30.667 -8.83301 54.334 -26.5 71.001
s-42.834 25 -75.501 25c-32 0 -58.167 -9 -78.5 -27s-33.166 -42.333 -38.499 -73c-7.33301 -43.333 -29.333 -65 -66 -65c-20 0 -35.833 5.33301 -47.5 16s-17.5 24.334 -17.5 41.001c0 64.667 23.167 117.667 69.5 159s103.833 62 172.5 62c79.333 0 139 -18 179 -54
s60 -84.333 60 -145c0 -54.667 -15.5 -99.5 -46.5 -134.5s-76.833 -66.5 -137.5 -94.5l-50 -23.5c-10.667 -5 -24.667 -12.5 -42 -22.5s-30.333 -19 -39 -27s-17 -17.833 -25 -29.5s-13.333 -23.834 -16 -36.501h325c40 0 60 -20.667 60 -62c0 -39.333 -20 -59 -60 -59h-411
c-15.333 0 -28 5.33301 -38 16s-15 23.667 -15 39z" />
    <glyph glyph-name="threequarters" unicode="&#xbe;" 
d="M51 958c0 20 6.33105 36 18.998 48s28.334 18 47.001 18c17.333 0 31.833 -5.5 43.5 -16.5s18.834 -27.5 21.501 -49.5c4.66699 -34 16 -57.833 34 -71.5s45 -20.5 81 -20.5c35.333 0 62.333 9.16699 81 27.5s28 42.833 28 73.5c0 31.333 -7.66699 54.833 -23 70.5
s-40.666 23.5 -75.999 23.5h-18c-19.333 0 -34.166 5.33301 -44.499 16s-15.5 25 -15.5 43c0 17.333 5.33301 32 16 44s25.334 18 44.001 18h20c52 0 78 23 78 69c0 22 -8 39.5 -24 52.5s-40 19.5 -72 19.5c-51.333 0 -81.333 -22 -90 -66
c-4 -17.333 -11.667 -30.5 -23 -39.5s-24.333 -13.5 -39 -13.5c-16.667 0 -31.334 5.5 -44.001 16.5s-19 25.5 -19 43.5c0 53.333 23.167 96.666 69.5 129.999s94.833 50 145.5 50c72.667 0 128 -16.5 166 -49.5s57 -80.833 57 -143.5c0 -32 -8.33301 -58.667 -25 -80
s-37.667 -36.333 -63 -45c32 -7.33301 58.5 -24.333 79.5 -51s31.5 -62.667 31.5 -108c0 -63.333 -23.333 -116.166 -70 -158.499s-103.334 -63.5 -170.001 -63.5c-72.667 0 -131.834 20 -177.501 60s-68.5 91 -68.5 153zM122.998 401c0 24.667 12.335 45.333 37.002 62
l860 600c16 12 31.667 18 47 18c17.333 0 32.166 -7 44.499 -21s18.5 -29.333 18.5 -46c0 -26.667 -12 -48 -36 -64l-861 -600c-16 -12 -31.667 -18 -47 -18c-18.667 0 -33.834 7 -45.501 21s-17.5 30 -17.5 48zM580 194.999c0 10 3.33203 20.667 9.99902 32l278 412
c17.333 26 40.666 39 69.999 39c18.667 0 34.667 -4.83301 48 -14.5s20 -23.167 20 -40.5v-367h65c35.333 0 53 -19 53 -57c0 -42.667 -17.667 -64 -53 -64h-65v-57c0 -20.667 -5.66699 -38.834 -17 -54.501s-27.666 -23.5 -48.999 -23.5s-37.666 7.83301 -48.999 23.5
s-17 33.834 -17 54.501v57h-241c-16 0 -28.833 6 -38.5 18s-14.5 26 -14.5 42zM738.999 255.999h135v197z" />
    <glyph glyph-name="questiondown" unicode="&#xbf;" 
d="M233 336c0 22 1.66797 42.6689 5.00098 62.002s9.66602 38.166 18.999 56.499l24 46c6.66699 12.333 18 27 34 44l34.5 36.5c7 7.33301 20.5 20 40.5 38l38 34c37.333 35.333 65.833 69.666 85.5 102.999s29.5 75.666 29.5 126.999c0 68 30.667 102 92 102
c32.667 0 56.167 -9.66699 70.5 -29s21.5 -43.666 21.5 -72.999c0 -122 -54.667 -229.333 -164 -322c-46 -38.667 -81.667 -75.167 -107 -109.5s-38 -70.166 -38 -107.499c0 -58.667 20.167 -103.334 60.5 -134.001s92.5 -46 156.5 -46c68 0 119.833 17.167 155.5 51.5
s56.167 82.5 61.5 144.5c2 27.333 11.333 49 28 65s38 24 64 24c28 0 50.333 -9 67 -27s25 -40.667 25 -68c0 -44 -9 -87 -27 -129s-43.333 -79.833 -76 -113.5s-75 -60.667 -127 -81s-109 -30.5 -171 -30.5c-74 0 -140.667 11.667 -200 35s-107.833 60.833 -145.5 112.5
s-56.5 114.5 -56.5 188.5zM469.001 1288c0 46.667 15.833 86 47.5 118s71.167 48 118.5 48s86.833 -16 118.5 -48s47.5 -71.333 47.5 -118s-15.833 -86 -47.5 -118s-71.167 -48 -118.5 -48s-86.833 16 -118.5 48s-47.5 71.333 -47.5 118z" />
    <glyph glyph-name="Agrave" unicode="&#xc0;" 
d="M82 98c0 15.333 2.66602 31 7.99902 47l457 1201c7.33301 18.667 13.5 33 18.5 43s13.667 20 26 30s26.833 15 43.5 15s31.167 -5 43.5 -15s21 -20 26 -30s11.167 -24.333 18.5 -43l457 -1201c5.33301 -16 8 -31.667 8 -47c0 -29.333 -9 -53 -27 -71s-41.667 -27 -71 -27
c-43.333 0 -73.666 22.667 -90.999 68l-135 344h-458l-136 -344c-17.333 -45.333 -47.333 -68 -90 -68c-29.333 0 -53 9 -71 27s-27 41.667 -27 71zM409.999 1819c0 23.333 8.5 43.5 25.5 60.5s37.833 25.5 62.5 25.5c16.667 0 35 -5 55 -15l250 -127
c36.667 -18.667 55 -46 55 -82c0 -24.667 -8.16699 -46.167 -24.5 -64.5s-36.833 -27.5 -61.5 -27.5c-12 0 -25.667 3.33301 -41 10l-276 142c-30 15.333 -45 41.333 -45 78zM472.999 592h324l-162 467z" />
    <glyph glyph-name="Aacute" unicode="&#xc1;" 
d="M82 98c0 15.333 2.66602 31 7.99902 47l457 1201c7.33301 18.667 13.5 33 18.5 43s13.667 20 26 30s26.833 15 43.5 15s31.167 -5 43.5 -15s21 -20 26 -30s11.167 -24.333 18.5 -43l457 -1201c5.33301 -16 8 -31.667 8 -47c0 -29.333 -9 -53 -27 -71s-41.667 -27 -71 -27
c-43.333 0 -73.666 22.667 -90.999 68l-135 344h-458l-136 -344c-17.333 -45.333 -47.333 -68 -90 -68c-29.333 0 -53 9 -71 27s-27 41.667 -27 71zM413.999 1681c0 36 18.333 63.333 55 82l250 127c20 10 38.333 15 55 15c24.667 0 45.5 -8.5 62.5 -25.5
s25.5 -37.167 25.5 -60.5c0 -36.667 -15 -62.667 -45 -78l-276 -142c-15.333 -6.66699 -29 -10 -41 -10c-24.667 0 -45.167 9.16699 -61.5 27.5s-24.5 39.833 -24.5 64.5zM472.999 592h324l-162 467z" />
    <glyph glyph-name="Acircumflex" unicode="&#xc2;" 
d="M82 98c0 15.333 2.66602 31 7.99902 47l457 1201c7.33301 18.667 13.5 33 18.5 43s13.667 20 26 30s26.833 15 43.5 15s31.167 -5 43.5 -15s21 -20 26 -30s11.167 -24.333 18.5 -43l457 -1201c5.33301 -16 8 -31.667 8 -47c0 -29.333 -9 -53 -27 -71s-41.667 -27 -71 -27
c-43.333 0 -73.666 22.667 -90.999 68l-135 344h-458l-136 -344c-17.333 -45.333 -47.333 -68 -90 -68c-29.333 0 -53 9 -71 27s-27 41.667 -27 71zM318.999 1681c0 27.333 13.0029 52 39.0029 74l209 164c23.333 18 46 27 68 27c21.333 0 43.666 -9 66.999 -27l209 -164
c26 -22 39 -46.667 39 -74c0 -26 -8.33301 -47.833 -25 -65.5s-37.667 -26.5 -63 -26.5c-18.667 0 -36.334 7 -53.001 21l-174 137l-174 -137c-18.667 -14 -36.334 -21 -53.001 -21c-25.333 0 -46.5 8.83301 -63.5 26.5s-25.5 39.5 -25.5 65.5zM473.002 592h324l-162 467z
" />
    <glyph glyph-name="Atilde" unicode="&#xc3;" 
d="M82 98c0 15.333 2.66602 31 7.99902 47l457 1201c7.33301 18.667 13.5 33 18.5 43s13.667 20 26 30s26.833 15 43.5 15s31.167 -5 43.5 -15s21 -20 26 -30s11.167 -24.333 18.5 -43l457 -1201c5.33301 -16 8 -31.667 8 -47c0 -29.333 -9 -53 -27 -71s-41.667 -27 -71 -27
c-43.333 0 -73.666 22.667 -90.999 68l-135 344h-458l-136 -344c-17.333 -45.333 -47.333 -68 -90 -68c-29.333 0 -53 9 -71 27s-27 41.667 -27 71zM273.999 1663c0 19.333 9.00098 39.001 27.001 59.001c32.667 34.667 63 60.167 91 76.5s63.333 24.5 106 24.5
c26 0 51.833 -5.5 77.5 -16.5s47.167 -23 64.5 -36s37.833 -25 61.5 -36s47.167 -16.5 70.5 -16.5c32.667 0 63.334 14.333 92.001 43c19.333 19.333 40 29 62 29c19.333 0 35.666 -7 48.999 -21s20 -31 20 -51s-8.66699 -39.667 -26 -59c-32.667 -34.667 -63 -60 -91 -76
s-63.333 -24 -106 -24c-26 0 -51.833 5.5 -77.5 16.5s-47.167 22.833 -64.5 35.5s-37.833 24.5 -61.5 35.5s-47.167 16.5 -70.5 16.5c-32.667 0 -63.334 -14.333 -92.001 -43c-19.333 -19.333 -40 -29 -62 -29c-19.333 0 -35.833 7.16699 -49.5 21.5
s-20.5 31.166 -20.5 50.499zM473 592.001h324l-162 467z" />
    <glyph glyph-name="Adieresis" unicode="&#xc4;" 
d="M82 98c0 15.333 2.66602 31 7.99902 47l457 1201c7.33301 18.667 13.5 33 18.5 43s13.667 20 26 30s26.833 15 43.5 15s31.167 -5 43.5 -15s21 -20 26 -30s11.167 -24.333 18.5 -43l457 -1201c5.33301 -16 8 -31.667 8 -47c0 -29.333 -9 -53 -27 -71s-41.667 -27 -71 -27
c-43.333 0 -73.666 22.667 -90.999 68l-135 344h-458l-136 -344c-17.333 -45.333 -47.333 -68 -90 -68c-29.333 0 -53 9 -71 27s-27 41.667 -27 71zM316.999 1698c0 35.333 11.833 65 35.5 89s52.167 36 85.5 36c34.667 0 64.167 -12.167 88.5 -36.5
s36.5 -53.833 36.5 -88.5c0 -32.667 -12.333 -61 -37 -85s-54 -36 -88 -36c-33.333 0 -61.833 12.167 -85.5 36.5s-35.5 52.5 -35.5 84.5zM472.999 592h324l-162 467zM708.999 1698c0 35.333 12.001 65 36.001 89s52 36 84 36c36 0 65.833 -12 89.5 -36
s35.5 -53.667 35.5 -89c0 -32.667 -12.333 -61 -37 -85s-54 -36 -88 -36c-32.667 0 -60.834 12.167 -84.501 36.5s-35.5 52.5 -35.5 84.5z" />
    <glyph glyph-name="Aring" unicode="&#xc5;" 
d="M82 98c0 15.333 2.66602 31 7.99902 47l457 1201c7.33301 18.667 13.5 33 18.5 43s13.667 20 26 30s26.833 15 43.5 15s31.167 -5 43.5 -15s21 -20 26 -30s11.167 -24.333 18.5 -43l457 -1201c5.33301 -16 8 -31.667 8 -47c0 -29.333 -9 -53 -27 -71s-41.667 -27 -71 -27
c-43.333 0 -73.666 22.667 -90.999 68l-135 344h-458l-136 -344c-17.333 -45.333 -47.333 -68 -90 -68c-29.333 0 -53 9 -71 27s-27 41.667 -27 71zM419.999 1751c0 59.333 21 110 63 152s92.667 63 152 63s110 -21 152 -63s63 -92.667 63 -152s-21 -110 -63 -152
s-92.667 -63 -152 -63s-110 21 -152 63s-63 92.667 -63 152zM472.999 592h324l-162 467zM540.999 1751c0 -26.667 8.83301 -49 26.5 -67s40.167 -27 67.5 -27s49.833 9 67.5 27s26.5 40.333 26.5 67s-8.83301 49 -26.5 67s-40.167 27 -67.5 27s-49.833 -9 -67.5 -27
s-26.5 -40.333 -26.5 -67z" />
    <glyph glyph-name="AE" unicode="&#xc6;" 
d="M23 100c0 13.333 2 27.001 6 41.001l284 1205c13.333 58.667 42.666 88 87.999 88h682c71.333 0 107 -30.333 107 -91c0 -60 -35.667 -90 -107 -90h-372v-426h266c68 0 102 -30 102 -90s-34 -90 -102 -90h-266v-467h403c72.667 0 109 -30 109 -90s-36.333 -90 -109 -90
h-489c-31.333 0 -57.666 10.667 -78.999 32s-32 47.666 -32 78.999v301h-225l-72 -322c-14 -60 -47.333 -90 -100 -90c-62.667 -0 -94 33.333 -94 100zM330 592.001h184v661h-33z" />
    <glyph glyph-name="Ccedilla" unicode="&#xc7;" 
d="M106 717c0 227.333 52.002 406.996 156.002 538.996s248.667 198 434 198c93.333 0 175 -12.833 245 -38.5s138 -72.167 204 -139.5c24.667 -24.667 37 -51.334 37 -80.001c0 -26.667 -10.667 -50 -32 -70s-45 -30 -71 -30s-48.333 10.667 -67 32
c-86 97.333 -191.333 146 -316 146c-55.333 0 -105.166 -10.667 -149.499 -32s-81.166 -49.666 -110.499 -84.999s-53.833 -77.166 -73.5 -125.499s-33.834 -98.666 -42.501 -150.999s-13 -106.833 -13 -163.5s4.33301 -111.167 13 -163.5s22.834 -102.666 42.501 -150.999
s44.167 -90.166 73.5 -125.499s66.166 -63.666 110.499 -84.999s94.166 -32 149.499 -32c125.333 0 230.666 48.333 315.999 145c19.333 22 41.666 33 66.999 33c26 0 49.667 -10 71 -30s32 -43.333 32 -70c0 -28.667 -12.333 -55.334 -37 -80.001
c-66 -67.333 -134 -113.833 -204 -139.5s-151.667 -38.5 -245 -38.5c-185.333 0 -330 66 -434 198s-156 311.667 -156 539zM563.002 -436.004c0 16 3.33301 33 10 51l76 195c17.333 47.333 44 71 80 71c24.667 0 44.5 -7.16699 59.5 -21.5s22.5 -33.166 22.5 -56.499
c0 -16 -3.33301 -33 -10 -51l-76 -194c-18 -48 -44.667 -72 -80 -72c-24 0 -43.667 7.16699 -59 21.5s-23 33.166 -23 56.499z" />
    <glyph glyph-name="Egrave" unicode="&#xc8;" 
d="M152 111v1212c0 30.667 10.5 56.834 31.5 78.501s47.167 32.5 78.5 32.5h725c71.333 0 107 -30.333 107 -91c0 -60 -35.667 -90 -107 -90h-639v-426h471c68.667 0 103 -30 103 -90s-34.333 -90 -103 -90h-471v-467h670c72 0 108 -30 108 -90s-36 -90 -108 -90h-756
c-31.333 0 -57.5 10.667 -78.5 32s-31.5 47.666 -31.5 78.999zM389 1778c0 23.333 8.5 43.499 25.5 60.499s37.833 25.5 62.5 25.5c16.667 0 35 -5 55 -15l250 -127c37.333 -19.333 56 -46.666 56 -81.999c0 -24.667 -8.16699 -46.167 -24.5 -64.5
s-36.833 -27.5 -61.5 -27.5c-10 0 -23.667 3.66699 -41 11l-277 141c-30 15.333 -45 41.333 -45 78z" />
    <glyph glyph-name="Eacute" unicode="&#xc9;" 
d="M152 111v1212c0 30.667 10.5 56.834 31.5 78.501s47.167 32.5 78.5 32.5h725c71.333 0 107 -30.333 107 -91c0 -60 -35.667 -90 -107 -90h-639v-426h471c68.667 0 103 -30 103 -90s-34.333 -90 -103 -90h-471v-467h670c72 0 108 -30 108 -90s-36 -90 -108 -90h-756
c-31.333 0 -57.5 10.667 -78.5 32s-31.5 47.666 -31.5 78.999zM414 1681c0 36 18.333 63.333 55 82l250 127c20 10 38.333 15 55 15c24.667 0 45.5 -8.5 62.5 -25.5s25.5 -37.167 25.5 -60.5c0 -36.667 -15 -62.667 -45 -78l-276 -142c-15.333 -6.66699 -29 -10 -41 -10
c-24.667 0 -45.167 9.16699 -61.5 27.5s-24.5 39.833 -24.5 64.5z" />
    <glyph glyph-name="Ecircumflex" unicode="&#xca;" 
d="M152 111v1212c0 30.667 10.5 56.834 31.5 78.501s47.167 32.5 78.5 32.5h725c71.333 0 107 -30.333 107 -91c0 -60 -35.667 -90 -107 -90h-639v-426h471c68.667 0 103 -30 103 -90s-34.333 -90 -103 -90h-471v-467h670c72 0 108 -30 108 -90s-36 -90 -108 -90h-756
c-31.333 0 -57.5 10.667 -78.5 32s-31.5 47.666 -31.5 78.999zM319 1681c0 27.333 13.0029 52 39.0029 74l209 164c23.333 18 46 27 68 27c21.333 0 43.666 -9 66.999 -27l209 -164c26 -22 39 -46.667 39 -74c0 -26 -8.33301 -47.833 -25 -65.5s-37.667 -26.5 -63 -26.5
c-18.667 0 -36.334 7 -53.001 21l-174 137l-174 -137c-18.667 -14 -36.334 -21 -53.001 -21c-25.333 0 -46.5 8.83301 -63.5 26.5s-25.5 39.5 -25.5 65.5z" />
    <glyph glyph-name="Edieresis" unicode="&#xcb;" 
d="M152 111v1212c0 30.667 10.5 56.834 31.5 78.501s47.167 32.5 78.5 32.5h725c71.333 0 107 -30.333 107 -91c0 -60 -35.667 -90 -107 -90h-639v-426h471c68.667 0 103 -30 103 -90s-34.333 -90 -103 -90h-471v-467h670c72 0 108 -30 108 -90s-36 -90 -108 -90h-756
c-31.333 0 -57.5 10.667 -78.5 32s-31.5 47.666 -31.5 78.999zM332 1698c0 35.333 11.833 65 35.5 89s52.167 36 85.5 36c35.333 0 65 -12.167 89 -36.5s36 -53.833 36 -88.5c0 -32.667 -12.333 -61 -37 -85s-54 -36 -88 -36c-33.333 0 -61.833 12.167 -85.5 36.5
s-35.5 52.5 -35.5 84.5zM723 1698c0 35.333 12.167 65 36.5 89s52.5 36 84.5 36c36 0 65.833 -12 89.5 -36s35.5 -53.667 35.5 -89c0 -32.667 -12.333 -61 -37 -85s-54 -36 -88 -36c-32.667 0 -61 12.167 -85 36.5s-36 52.5 -36 84.5z" />
    <glyph glyph-name="Igrave" unicode="&#xcc;" 
d="M190 90c0 60 37 90 111 90h217v1073h-217c-74 0 -111 30 -111 90c0 60.667 37 91 111 91h631c73.333 0 110 -30.333 110 -91c0 -60 -36.667 -90 -110 -90h-217v-1073h217c73.333 0 110 -30 110 -90s-36.667 -90 -110 -90h-631c-74 0 -111 30 -111 90zM397 1819
c0 23.333 8.5 43.5 25.5 60.5s37.833 25.5 62.5 25.5c17.333 0 36 -5 56 -15l250 -127c36.667 -18.667 55 -46 55 -82c0 -24.667 -8.16699 -46.167 -24.5 -64.5s-36.833 -27.5 -61.5 -27.5c-12 0 -25.667 3.33301 -41 10l-277 142c-30 15.333 -45 41.333 -45 78z" />
    <glyph glyph-name="Iacute" unicode="&#xcd;" 
d="M190 90c0 60 37 90 111 90h217v1073h-217c-74 0 -111 30 -111 90c0 60.667 37 91 111 91h631c73.333 0 110 -30.333 110 -91c0 -60 -36.667 -90 -110 -90h-217v-1073h217c73.333 0 110 -30 110 -90s-36.667 -90 -110 -90h-631c-74 0 -111 30 -111 90zM397 1681
c0 35.333 18.667 62.667 56 82l249 127c20 10 38.667 15 56 15c24.667 0 45.5 -8.5 62.5 -25.5s25.5 -37.167 25.5 -60.5c0 -36.667 -15 -62.667 -45 -78l-277 -142c-15.333 -6.66699 -29 -10 -41 -10c-24.667 0 -45.167 9.16699 -61.5 27.5s-24.5 39.833 -24.5 64.5z" />
    <glyph glyph-name="Icircumflex" unicode="&#xce;" 
d="M190 90c0 60 37 90 111 90h217v1073h-217c-74 0 -111 30 -111 90c0 60.667 37 91 111 91h631c73.333 0 110 -30.333 110 -91c0 -60 -36.667 -90 -110 -90h-217v-1073h217c73.333 0 110 -30 110 -90s-36.667 -90 -110 -90h-631c-74 0 -111 30 -111 90zM303 1681
c0 27.333 13.0029 52 39.0029 74l209 164c23.333 18 45.666 27 66.999 27c22 0 44.667 -9 68 -27l209 -164c26 -22 39 -46.667 39 -74c0 -26 -8.33301 -47.833 -25 -65.5s-37.667 -26.5 -63 -26.5c-18.667 0 -36.334 7 -53.001 21l-175 137l-174 -137
c-18.667 -14 -36.334 -21 -53.001 -21c-25.333 0 -46.333 8.83301 -63 26.5s-25 39.5 -25 65.5z" />
    <glyph glyph-name="Idieresis" unicode="&#xcf;" 
d="M190 90c0 60 37 90 111 90h217v1073h-217c-74 0 -111 30 -111 90c0 60.667 37 91 111 91h631c73.333 0 110 -30.333 110 -91c0 -60 -36.667 -90 -110 -90h-217v-1073h217c73.333 0 110 -30 110 -90s-36.667 -90 -110 -90h-631c-74 0 -111 30 -111 90zM301 1698
c0 35.333 11.833 65 35.5 89s52.167 36 85.5 36c34.667 0 64.167 -12.167 88.5 -36.5s36.5 -53.833 36.5 -88.5c0 -32.667 -12.333 -61 -37 -85s-54 -36 -88 -36c-33.333 0 -61.833 12.167 -85.5 36.5s-35.5 52.5 -35.5 84.5zM692 1698c0 35.333 12.167 65 36.5 89
s52.5 36 84.5 36c36 0 65.833 -12 89.5 -36s35.5 -53.667 35.5 -89c0 -32.667 -12.333 -61 -37 -85s-54 -36 -88 -36c-32.667 0 -61 12.167 -85 36.5s-36 52.5 -36 84.5z" />
    <glyph glyph-name="Eth" unicode="&#xd0;" 
d="M-2 717c0 60 34.668 90.001 104.001 90.001h70v516c0 31.333 10.667 57.666 32 78.999s47.666 32 78.999 32h348c115.333 0 214.833 -31 298.5 -93s146.334 -146.5 188.001 -253.5s62.5 -230.5 62.5 -370.5s-20.833 -263.5 -62.5 -370.5s-104.334 -191.5 -188.001 -253.5
s-183.167 -93 -298.5 -93h-346c-32.667 0 -59.667 10.5 -81 31.5s-32 47.5 -32 79.5v516h-70c-69.333 0 -104 30 -104 90zM369.001 180.001h266c112 0 198 49 258 147s90 228 90 390s-30 291.833 -90 389.5s-146 146.5 -258 146.5h-266v-446h69c70 0 105 -30 105 -90
s-35 -90 -105 -90h-69v-447z" />
    <glyph glyph-name="Ntilde" unicode="&#xd1;" 
d="M137 111l-0.000976562 1214c2 32 11.167 58.167 27.5 78.5s38.5 30.5 66.5 30.5c36.667 0 67 -15 91 -45l614 -973v907c0 31.333 8.83301 57.666 26.5 78.999s40.834 32 69.501 32c30 0 54.333 -10.667 73 -32s28 -47.666 28 -78.999v-1214
c0 -29.333 -9.5 -54.833 -28.5 -76.5s-42.5 -32.5 -70.5 -32.5c-37.333 0 -68 15 -92 45l-608 973v-907c0 -31.333 -9.16699 -57.666 -27.5 -78.999s-41.833 -32 -70.5 -32c-30 0 -54 10.667 -72 32s-27 47.666 -27 78.999zM273.999 1663
c0 19.333 9.00098 39.001 27.001 59.001c32.667 34.667 63 60.167 91 76.5s63.333 24.5 106 24.5c26 0 51.833 -5.5 77.5 -16.5s47.167 -23 64.5 -36s37.833 -25 61.5 -36s47.167 -16.5 70.5 -16.5c32.667 0 63.334 14.333 92.001 43c19.333 19.333 40 29 62 29
c19.333 0 35.666 -7 48.999 -21s20 -31 20 -51s-8.66699 -39.667 -26 -59c-32.667 -34.667 -63 -60 -91 -76s-63.333 -24 -106 -24c-26 0 -51.833 5.5 -77.5 16.5s-47.167 22.833 -64.5 35.5s-37.833 24.5 -61.5 35.5s-47.167 16.5 -70.5 16.5
c-32.667 0 -63.334 -14.333 -92.001 -43c-19.333 -19.333 -40 -29 -62 -29c-19.333 0 -35.833 7.16699 -49.5 21.5s-20.5 31.166 -20.5 50.499z" />
    <glyph glyph-name="Ograve" unicode="&#xd2;" 
d="M61 717c0 105.333 12.167 202.333 36.5 291s60 166.334 107 233.001s107.333 118.834 181 156.501s156.834 56.5 249.501 56.5s175.834 -18.833 249.501 -56.5s133.834 -89.834 180.501 -156.501s82.167 -144.334 106.5 -233.001s36.5 -185.667 36.5 -291
s-12.167 -202.333 -36.5 -291s-59.833 -166.334 -106.5 -233.001s-106.834 -118.834 -180.501 -156.501s-156.834 -56.5 -249.501 -56.5s-175.834 18.833 -249.501 56.5s-134 89.834 -181 156.501s-82.667 144.334 -107 233.001s-36.5 185.667 -36.5 291zM262 717
c0 -108.667 13.167 -204.167 39.5 -286.5s68 -148 125 -197s126.5 -73.5 208.5 -73.5s151.5 24.5 208.5 73.5s98.667 114.667 125 197s39.5 177.833 39.5 286.5s-13.167 204.167 -39.5 286.5s-68 148 -125 197s-126.5 73.5 -208.5 73.5s-151.5 -24.5 -208.5 -73.5
s-98.667 -114.667 -125 -197s-39.5 -177.833 -39.5 -286.5zM416 1819c0 23.333 8.5 43.5 25.5 60.5s37.833 25.5 62.5 25.5c16.667 0 35 -5 55 -15l250 -127c36.667 -18.667 55 -46 55 -82c0 -24.667 -8.16699 -46.167 -24.5 -64.5s-36.833 -27.5 -61.5 -27.5
c-12 0 -25.667 3.33301 -41 10l-276 142c-30 15.333 -45 41.333 -45 78z" />
    <glyph glyph-name="Oacute" unicode="&#xd3;" 
d="M61 717c0 105.333 12.167 202.333 36.5 291s60 166.334 107 233.001s107.333 118.834 181 156.501s156.834 56.5 249.501 56.5s175.834 -18.833 249.501 -56.5s133.834 -89.834 180.501 -156.501s82.167 -144.334 106.5 -233.001s36.5 -185.667 36.5 -291
s-12.167 -202.333 -36.5 -291s-59.833 -166.334 -106.5 -233.001s-106.834 -118.834 -180.501 -156.501s-156.834 -56.5 -249.501 -56.5s-175.834 18.833 -249.501 56.5s-134 89.834 -181 156.501s-82.667 144.334 -107 233.001s-36.5 185.667 -36.5 291zM262 717
c0 -108.667 13.167 -204.167 39.5 -286.5s68 -148 125 -197s126.5 -73.5 208.5 -73.5s151.5 24.5 208.5 73.5s98.667 114.667 125 197s39.5 177.833 39.5 286.5s-13.167 204.167 -39.5 286.5s-68 148 -125 197s-126.5 73.5 -208.5 73.5s-151.5 -24.5 -208.5 -73.5
s-98.667 -114.667 -125 -197s-39.5 -177.833 -39.5 -286.5zM414 1681c0 36 18.333 63.333 55 82l250 127c20 10 38.333 15 55 15c24.667 0 45.5 -8.5 62.5 -25.5s25.5 -37.167 25.5 -60.5c0 -36.667 -15 -62.667 -45 -78l-276 -142c-15.333 -6.66699 -29 -10 -41 -10
c-24.667 0 -45.167 9.16699 -61.5 27.5s-24.5 39.833 -24.5 64.5z" />
    <glyph glyph-name="Ocircumflex" unicode="&#xd4;" 
d="M61 717c0 105.333 12.167 202.333 36.5 291s60 166.334 107 233.001s107.333 118.834 181 156.501s156.834 56.5 249.501 56.5s175.834 -18.833 249.501 -56.5s133.834 -89.834 180.501 -156.501s82.167 -144.334 106.5 -233.001s36.5 -185.667 36.5 -291
s-12.167 -202.333 -36.5 -291s-59.833 -166.334 -106.5 -233.001s-106.834 -118.834 -180.501 -156.501s-156.834 -56.5 -249.501 -56.5s-175.834 18.833 -249.501 56.5s-134 89.834 -181 156.501s-82.667 144.334 -107 233.001s-36.5 185.667 -36.5 291zM262 717
c0 -108.667 13.167 -204.167 39.5 -286.5s68 -148 125 -197s126.5 -73.5 208.5 -73.5s151.5 24.5 208.5 73.5s98.667 114.667 125 197s39.5 177.833 39.5 286.5s-13.167 204.167 -39.5 286.5s-68 148 -125 197s-126.5 73.5 -208.5 73.5s-151.5 -24.5 -208.5 -73.5
s-98.667 -114.667 -125 -197s-39.5 -177.833 -39.5 -286.5zM319 1681c0 27.333 13.0029 52 39.0029 74l209 164c23.333 18 46 27 68 27c21.333 0 43.666 -9 66.999 -27l209 -164c26 -22 39 -46.667 39 -74c0 -26 -8.33301 -47.833 -25 -65.5s-37.667 -26.5 -63 -26.5
c-18.667 0 -36.334 7 -53.001 21l-174 137l-174 -137c-18.667 -14 -36.334 -21 -53.001 -21c-25.333 0 -46.5 8.83301 -63.5 26.5s-25.5 39.5 -25.5 65.5z" />
    <glyph glyph-name="Otilde" unicode="&#xd5;" 
d="M61 717c0 105.333 12.167 202.333 36.5 291s60 166.334 107 233.001s107.333 118.834 181 156.501s156.834 56.5 249.501 56.5s175.834 -18.833 249.501 -56.5s133.834 -89.834 180.501 -156.501s82.167 -144.334 106.5 -233.001s36.5 -185.667 36.5 -291
s-12.167 -202.333 -36.5 -291s-59.833 -166.334 -106.5 -233.001s-106.834 -118.834 -180.501 -156.501s-156.834 -56.5 -249.501 -56.5s-175.834 18.833 -249.501 56.5s-134 89.834 -181 156.501s-82.667 144.334 -107 233.001s-36.5 185.667 -36.5 291zM262 717
c0 -108.667 13.167 -204.167 39.5 -286.5s68 -148 125 -197s126.5 -73.5 208.5 -73.5s151.5 24.5 208.5 73.5s98.667 114.667 125 197s39.5 177.833 39.5 286.5s-13.167 204.167 -39.5 286.5s-68 148 -125 197s-126.5 73.5 -208.5 73.5s-151.5 -24.5 -208.5 -73.5
s-98.667 -114.667 -125 -197s-39.5 -177.833 -39.5 -286.5zM274 1663c0 19.333 9.00098 39.001 27.001 59.001c32.667 34.667 63 60.167 91 76.5s63.333 24.5 106 24.5c26 0 51.833 -5.5 77.5 -16.5s47.167 -23 64.5 -36s37.833 -25 61.5 -36s47.167 -16.5 70.5 -16.5
c32.667 0 63.334 14.333 92.001 43c19.333 19.333 40 29 62 29c19.333 0 35.666 -7 48.999 -21s20 -31 20 -51s-8.66699 -39.667 -26 -59c-32.667 -34.667 -63 -60 -91 -76s-63.333 -24 -106 -24c-26 0 -51.833 5.5 -77.5 16.5s-47.167 22.833 -64.5 35.5
s-37.833 24.5 -61.5 35.5s-47.167 16.5 -70.5 16.5c-32.667 0 -63.334 -14.333 -92.001 -43c-19.333 -19.333 -40 -29 -62 -29c-19.333 0 -35.833 7.16699 -49.5 21.5s-20.5 31.166 -20.5 50.499z" />
    <glyph glyph-name="Odieresis" unicode="&#xd6;" 
d="M61 717c0 105.333 12.167 202.333 36.5 291s60 166.334 107 233.001s107.333 118.834 181 156.501s156.834 56.5 249.501 56.5s175.834 -18.833 249.501 -56.5s133.834 -89.834 180.501 -156.501s82.167 -144.334 106.5 -233.001s36.5 -185.667 36.5 -291
s-12.167 -202.333 -36.5 -291s-59.833 -166.334 -106.5 -233.001s-106.834 -118.834 -180.501 -156.501s-156.834 -56.5 -249.501 -56.5s-175.834 18.833 -249.501 56.5s-134 89.834 -181 156.501s-82.667 144.334 -107 233.001s-36.5 185.667 -36.5 291zM262 717
c0 -108.667 13.167 -204.167 39.5 -286.5s68 -148 125 -197s126.5 -73.5 208.5 -73.5s151.5 24.5 208.5 73.5s98.667 114.667 125 197s39.5 177.833 39.5 286.5s-13.167 204.167 -39.5 286.5s-68 148 -125 197s-126.5 73.5 -208.5 73.5s-151.5 -24.5 -208.5 -73.5
s-98.667 -114.667 -125 -197s-39.5 -177.833 -39.5 -286.5zM319 1698c0 35.333 11.833 65 35.5 89s52.167 36 85.5 36c34.667 0 64.167 -12.167 88.5 -36.5s36.5 -53.833 36.5 -88.5c0 -32.667 -12.333 -61 -37 -85s-54 -36 -88 -36c-33.333 0 -61.833 12.167 -85.5 36.5
s-35.5 52.5 -35.5 84.5zM711 1698c0 35.333 12.001 65 36.001 89s52 36 84 36c36 0 65.833 -12 89.5 -36s35.5 -53.667 35.5 -89c0 -32.667 -12.333 -61 -37 -85s-54 -36 -88 -36c-32.667 0 -60.834 12.167 -84.501 36.5s-35.5 52.5 -35.5 84.5z" />
    <glyph glyph-name="multiply" unicode="&#xd7;" 
d="M199 305c0 24.667 13.667 50.667 41 78l233 231l-233 232c-27.333 27.333 -41 53.333 -41 78c0 20 9 39.333 27 58s37.667 28 59 28c24 0 49.667 -13.667 77 -41l232 -232l231 232c27.333 27.333 53.333 41 78 41c21.333 0 41 -9.33301 59 -28s27 -38 27 -58
c0 -24.667 -13.667 -50.667 -41 -78l-233 -232l233 -231c27.333 -27.333 41 -53.333 41 -78c0 -20 -9 -39.333 -27 -58s-37.667 -28 -59 -28c-24.667 0 -50.667 13.667 -78 41l-231 232l-232 -232c-27.333 -27.333 -53 -41 -77 -41c-21.333 0 -41 9.33301 -59 28
s-27 38 -27 58z" />
    <glyph glyph-name="Oslash" unicode="&#xd8;" 
d="M61 717c0 105.333 12.1689 202.335 36.502 291.002s60 166.334 107 233.001s107.333 118.834 181 156.501s156.834 56.5 249.501 56.5c141.333 0 260 -43.667 356 -131l51 66c20 27.333 44.667 41 74 41c27.333 0 49.166 -7.83301 65.499 -23.5
s24.5 -36.834 24.5 -63.501c0 -19.333 -8 -40.333 -24 -63l-78 -102c69.333 -124 104 -277.667 104 -461c0 -105.333 -12.167 -202.333 -36.5 -291s-59.833 -166.334 -106.5 -233.001s-106.834 -118.834 -180.501 -156.501s-156.834 -56.5 -249.501 -56.5
c-144 0 -262.667 43.667 -356 131l-52 -66c-20 -27.333 -44.333 -41 -73 -41c-27.333 0 -49.333 7.66699 -66 23s-25 36.333 -25 63c0 19.333 7 38.333 21 57l82 107c-70 125.333 -105 279.666 -105 462.999zM262.002 717.002c0 -112.667 13.001 -208.333 39.001 -287
l573 739c-62.667 70 -142.334 105 -239.001 105c-82 0 -151.5 -24.5 -208.5 -73.5s-98.667 -114.667 -125 -197s-39.5 -177.833 -39.5 -286.5zM395.003 262.003c60.667 -68 140.667 -102 240 -102c82 0 151.5 24.5 208.5 73.5s98.667 114.667 125 197
s39.5 177.833 39.5 286.5c0 106 -13.667 200.667 -41 284z" />
    <glyph glyph-name="Ugrave" unicode="&#xd9;" 
d="M127 522l0.000976562 801c0 31.333 9.16699 57.666 27.5 78.999s42.5 32 72.5 32c28.667 0 52 -10.667 70 -32s27 -47.666 27 -78.999v-795c0 -128.667 27.833 -222.167 83.5 -280.5s136.167 -87.5 241.5 -87.5c104.667 0 184.5 29.167 239.5 87.5
s82.5 151.833 82.5 280.5v795c0 31.333 8.83301 57.666 26.5 78.999s41.5 32 71.5 32s53.833 -10.667 71.5 -32s26.5 -47.666 26.5 -78.999v-795c0 -165.333 -45 -298 -135 -398s-217.667 -150 -383 -150c-110.667 0 -205.834 23.5 -285.501 70.5s-139 110.833 -178 191.5
s-58.5 174 -58.5 280zM426.001 1819c0 23.333 8.49902 43.5 25.499 60.5s37.833 25.5 62.5 25.5c16.667 0 35 -5 55 -15l250 -127c36.667 -18.667 55 -46 55 -82c0 -24.667 -8.16699 -46.167 -24.5 -64.5s-36.833 -27.5 -61.5 -27.5c-11.333 0 -24.666 3.33301 -39.999 10
l-277 142c-30 15.333 -45 41.333 -45 78z" />
    <glyph glyph-name="Uacute" unicode="&#xda;" 
d="M127 522l0.000976562 801c0 31.333 9.16699 57.666 27.5 78.999s42.5 32 72.5 32c28.667 0 52 -10.667 70 -32s27 -47.666 27 -78.999v-795c0 -128.667 27.833 -222.167 83.5 -280.5s136.167 -87.5 241.5 -87.5c104.667 0 184.5 29.167 239.5 87.5
s82.5 151.833 82.5 280.5v795c0 31.333 8.83301 57.666 26.5 78.999s41.5 32 71.5 32s53.833 -10.667 71.5 -32s26.5 -47.666 26.5 -78.999v-795c0 -165.333 -45 -298 -135 -398s-217.667 -150 -383 -150c-110.667 0 -205.834 23.5 -285.501 70.5s-139 110.833 -178 191.5
s-58.5 174 -58.5 280zM424.001 1681c0 36 18.333 63.333 55 82l250 127c20 10 38.333 15 55 15c24.667 0 45.5 -8.5 62.5 -25.5s25.5 -37.167 25.5 -60.5c0 -36.667 -15 -62.667 -45 -78l-276 -142c-15.333 -6.66699 -29 -10 -41 -10c-24.667 0 -45.167 9.16699 -61.5 27.5
s-24.5 39.833 -24.5 64.5z" />
    <glyph glyph-name="Ucircumflex" unicode="&#xdb;" 
d="M127 522l0.000976562 801c0 31.333 9.16699 57.666 27.5 78.999s42.5 32 72.5 32c28.667 0 52 -10.667 70 -32s27 -47.666 27 -78.999v-795c0 -128.667 27.833 -222.167 83.5 -280.5s136.167 -87.5 241.5 -87.5c104.667 0 184.5 29.167 239.5 87.5
s82.5 151.833 82.5 280.5v795c0 31.333 8.83301 57.666 26.5 78.999s41.5 32 71.5 32s53.833 -10.667 71.5 -32s26.5 -47.666 26.5 -78.999v-795c0 -165.333 -45 -298 -135 -398s-217.667 -150 -383 -150c-110.667 0 -205.834 23.5 -285.501 70.5s-139 110.833 -178 191.5
s-58.5 174 -58.5 280zM319.001 1681c0 27.333 13.0029 52 39.0029 74l209 164c23.333 18 46 27 68 27c21.333 0 43.666 -9 66.999 -27l209 -164c26 -22 39 -46.667 39 -74c0 -26 -8.33301 -47.833 -25 -65.5s-37.667 -26.5 -63 -26.5c-18.667 0 -36.334 7 -53.001 21
l-174 137l-174 -137c-18.667 -14 -36.334 -21 -53.001 -21c-25.333 0 -46.5 8.83301 -63.5 26.5s-25.5 39.5 -25.5 65.5z" />
    <glyph glyph-name="Udieresis" unicode="&#xdc;" 
d="M127 522l0.000976562 801c0 31.333 9.16699 57.666 27.5 78.999s42.5 32 72.5 32c28.667 0 52 -10.667 70 -32s27 -47.666 27 -78.999v-795c0 -128.667 27.833 -222.167 83.5 -280.5s136.167 -87.5 241.5 -87.5c104.667 0 184.5 29.167 239.5 87.5
s82.5 151.833 82.5 280.5v795c0 31.333 8.83301 57.666 26.5 78.999s41.5 32 71.5 32s53.833 -10.667 71.5 -32s26.5 -47.666 26.5 -78.999v-795c0 -165.333 -45 -298 -135 -398s-217.667 -150 -383 -150c-110.667 0 -205.834 23.5 -285.501 70.5s-139 110.833 -178 191.5
s-58.5 174 -58.5 280zM332.001 1698c0 35.333 11.833 65 35.5 89s52.167 36 85.5 36c35.333 0 65 -12.167 89 -36.5s36 -53.833 36 -88.5c0 -32.667 -12.333 -61 -37 -85s-54 -36 -88 -36c-33.333 0 -61.833 12.167 -85.5 36.5s-35.5 52.5 -35.5 84.5zM723.001 1698
c0 35.333 12.167 65 36.5 89s52.5 36 84.5 36c36 0 65.833 -12 89.5 -36s35.5 -53.667 35.5 -89c0 -32.667 -12.333 -61 -37 -85s-54 -36 -88 -36c-32.667 0 -61 12.167 -85 36.5s-36 52.5 -36 84.5z" />
    <glyph glyph-name="Yacute" unicode="&#xdd;" 
d="M92 1331c0 36.667 14.998 65.333 44.998 86c14.667 10 34.667 15 60 15c38.667 0 67.334 -14.333 86.001 -43l352 -558l352 558c20.667 30 49.334 45 86.001 45c22.667 0 44 -7 64 -21c27.333 -18.667 41 -46 41 -82c0 -23.333 -6.33301 -44.333 -19 -63l-426 -641v-521
c0 -30 -9.16699 -55.167 -27.5 -75.5s-41.833 -30.5 -70.5 -30.5s-52.167 10.167 -70.5 30.5s-27.5 45.5 -27.5 75.5v521l-426 641c-12.667 16 -19 37 -19 63zM413.998 1681c0 36 18.333 63.333 55 82l250 127c20 10 38.333 15 55 15c24.667 0 45.5 -8.5 62.5 -25.5
s25.5 -37.167 25.5 -60.5c0 -36.667 -15 -62.667 -45 -78l-276 -142c-15.333 -6.66699 -29 -10 -41 -10c-24.667 0 -45.167 9.16699 -61.5 27.5s-24.5 39.833 -24.5 64.5z" />
    <glyph glyph-name="Thorn" unicode="&#xde;" 
d="M186 111l-0.000976562 1212c0 32.667 8.5 59.334 25.5 80.001s41.5 31 73.5 31c30 0 53.833 -10.5 71.5 -31.5s26.5 -47.5 26.5 -79.5v-164h322c156.667 0 276.334 -37.5 359.001 -112.5s124 -184.833 124 -329.5s-41.5 -254.667 -124.5 -330s-202.5 -113 -358.5 -113
h-322v-163c0 -32 -8.83301 -58.5 -26.5 -79.5s-41.5 -31.5 -71.5 -31.5c-32 0 -56.5 10.333 -73.5 31s-25.5 47.334 -25.5 80.001zM382.999 454.998h358c84 0 146.667 22.833 188 68.5s62 110.167 62 193.5s-20.667 147.833 -62 193.5s-104 68.5 -188 68.5h-358v-524z" />
    <glyph glyph-name="germandbls" unicode="&#xdf;" 
d="M80 942c0 26.667 8.6709 46.9971 26.0039 60.9971s40.666 21 69.999 21h123c0 71.333 9.83301 135 29.5 191s46.667 101.167 81 135.5s73.666 60.166 117.999 77.499s92.5 26 144.5 26c126 0 224 -32.167 294 -96.5s105 -161.166 105 -290.499
c0 -102.667 -43 -195.667 -129 -279c68 -31.333 120.5 -78 157.5 -140s55.5 -138 55.5 -228c0 -137.333 -41.833 -241.666 -125.5 -312.999s-196.834 -107 -339.501 -107h-37c-64 0 -96 27.333 -96 82c0 26.667 8.66699 47 26 61s40.666 21 69.999 21h37
c94.667 0 165.167 21 211.5 63s69.5 106.333 69.5 193c0 84 -23 147.667 -69 191s-113.333 65 -202 65h-47c-64 0 -96 27.333 -96 82c0 26.667 8.66699 47 26 61s40.666 21 69.999 21h27c66 0 117 19.5 153 58.5s54 95.167 54 168.5c0 77.333 -18.667 133.833 -56 169.5
s-87.666 53.5 -150.999 53.5s-112 -18.5 -146 -55.5s-51 -97.5 -51 -181.5v-951c0 -29.333 -8.33301 -53.666 -25 -72.999s-39 -29 -67 -29c-27.333 0 -49.5 9.83301 -66.5 29.5s-25.5 43.834 -25.5 72.501v758h-123c-64 0 -96 27.333 -96 82z" />
    <glyph glyph-name="agrave" unicode="&#xe0;" 
d="M141 512c0 70 10.666 136.669 31.999 200.002s51.833 119.833 91.5 169.5s90.334 89.167 152.001 118.5s129.834 44 204.501 44c56.667 0 111.334 -10.833 164.001 -32.5s94 -52.834 124 -93.501c2 32.667 11.167 58.5 27.5 77.5s37.833 28.5 64.5 28.5
c29.333 0 53.166 -9 71.499 -27s27.5 -43 27.5 -75v-820c0 -32 -9.16699 -57 -27.5 -75s-42.166 -27 -71.499 -27c-26.667 0 -48.167 9.5 -64.5 28.5s-25.5 44.833 -27.5 77.5c-30 -40.667 -71.333 -71.834 -124 -93.501s-107.334 -32.5 -164.001 -32.5
c-77.333 0 -147 14.667 -209 44s-112.333 69 -151 119s-68.334 106.5 -89.001 169.5s-31 129.5 -31 199.5zM325.999 512.002c0 -109.333 27 -198.166 81 -266.499s125.333 -102.5 214 -102.5s159.834 34.167 213.501 102.5s80.5 157.166 80.5 266.499
s-26.833 198.166 -80.5 266.499s-124.834 102.5 -213.501 102.5s-160 -34.167 -214 -102.5s-81 -157.166 -81 -266.499zM396.999 1409c0 23.333 8.49902 43.5 25.499 60.5s37.833 25.5 62.5 25.5c18.667 0 37.334 -4.66699 56.001 -14l250 -127
c36.667 -18.667 55 -46 55 -82c0 -24.667 -8.16699 -46.167 -24.5 -64.5s-36.833 -27.5 -61.5 -27.5c-12 0 -25.667 3.33301 -41 10l-277 141c-30 15.333 -45 41.333 -45 78z" />
    <glyph glyph-name="aacute" unicode="&#xe1;" 
d="M141 512c0 70 10.666 136.669 31.999 200.002s51.833 119.833 91.5 169.5s90.334 89.167 152.001 118.5s129.834 44 204.501 44c56.667 0 111.334 -10.833 164.001 -32.5s94 -52.834 124 -93.501c2 32.667 11.167 58.5 27.5 77.5s37.833 28.5 64.5 28.5
c29.333 0 53.166 -9 71.499 -27s27.5 -43 27.5 -75v-820c0 -32 -9.16699 -57 -27.5 -75s-42.166 -27 -71.499 -27c-26.667 0 -48.167 9.5 -64.5 28.5s-25.5 44.833 -27.5 77.5c-30 -40.667 -71.333 -71.834 -124 -93.501s-107.334 -32.5 -164.001 -32.5
c-77.333 0 -147 14.667 -209 44s-112.333 69 -151 119s-68.334 106.5 -89.001 169.5s-31 129.5 -31 199.5zM325.999 512.002c0 -109.333 27 -198.166 81 -266.499s125.333 -102.5 214 -102.5s159.834 34.167 213.501 102.5s80.5 157.166 80.5 266.499
s-26.833 198.166 -80.5 266.499s-124.834 102.5 -213.501 102.5s-160 -34.167 -214 -102.5s-81 -157.166 -81 -266.499zM396.999 1272c0 35.333 18.666 62.667 55.999 82l249 127c18.667 9.33301 37.334 14 56.001 14c24.667 0 45.5 -8.5 62.5 -25.5
s25.5 -37.167 25.5 -60.5c0 -36.667 -15 -62.667 -45 -78l-277 -141c-15.333 -6.66699 -29 -10 -41 -10c-24.667 0 -45.167 9.16699 -61.5 27.5s-24.5 39.833 -24.5 64.5z" />
    <glyph glyph-name="acircumflex" unicode="&#xe2;" 
d="M141 512c0 70 10.666 136.669 31.999 200.002s51.833 119.833 91.5 169.5s90.334 89.167 152.001 118.5s129.834 44 204.501 44c56.667 0 111.334 -10.833 164.001 -32.5s94 -52.834 124 -93.501c2 32.667 11.167 58.5 27.5 77.5s37.833 28.5 64.5 28.5
c29.333 0 53.166 -9 71.499 -27s27.5 -43 27.5 -75v-820c0 -32 -9.16699 -57 -27.5 -75s-42.166 -27 -71.499 -27c-26.667 0 -48.167 9.5 -64.5 28.5s-25.5 44.833 -27.5 77.5c-30 -40.667 -71.333 -71.834 -124 -93.501s-107.334 -32.5 -164.001 -32.5
c-77.333 0 -147 14.667 -209 44s-112.333 69 -151 119s-68.334 106.5 -89.001 169.5s-31 129.5 -31 199.5zM304.999 1272c0 27.333 13.001 52 39.001 74l209 163c23.333 18 46 27 68 27c21.333 0 43.666 -9 66.999 -27l209 -163c26 -22 39 -46.667 39 -74
c0 -26 -8.33301 -47.833 -25 -65.5s-37.667 -26.5 -63 -26.5c-20 0 -37.667 6.66699 -53 20l-174 137l-175 -137c-18 -13.333 -35.667 -20 -53 -20c-25.333 0 -46.333 8.83301 -63 26.5s-25 39.5 -25 65.5zM326 512.002c0 -109.333 27 -198.166 81 -266.499
s125.333 -102.5 214 -102.5s159.834 34.167 213.501 102.5s80.5 157.166 80.5 266.499s-26.833 198.166 -80.5 266.499s-124.834 102.5 -213.501 102.5s-160 -34.167 -214 -102.5s-81 -157.166 -81 -266.499z" />
    <glyph glyph-name="atilde" unicode="&#xe3;" 
d="M141 512c0 70 10.666 136.669 31.999 200.002s51.833 119.833 91.5 169.5s90.334 89.167 152.001 118.5s129.834 44 204.501 44c56.667 0 111.334 -10.833 164.001 -32.5s94 -52.834 124 -93.501c2 32.667 11.167 58.5 27.5 77.5s37.833 28.5 64.5 28.5
c29.333 0 53.166 -9 71.499 -27s27.5 -43 27.5 -75v-820c0 -32 -9.16699 -57 -27.5 -75s-42.166 -27 -71.499 -27c-26.667 0 -48.167 9.5 -64.5 28.5s-25.5 44.833 -27.5 77.5c-30 -40.667 -71.333 -71.834 -124 -93.501s-107.334 -32.5 -164.001 -32.5
c-77.333 0 -147 14.667 -209 44s-112.333 69 -151 119s-68.334 106.5 -89.001 169.5s-31 129.5 -31 199.5zM273.999 1315c0 19.333 9.00098 39.001 27.001 59.001c32.667 34.667 63 60.167 91 76.5s63.333 24.5 106 24.5c26 0 51.833 -5.5 77.5 -16.5s47.167 -23 64.5 -36
s37.833 -25 61.5 -36s47.167 -16.5 70.5 -16.5c32.667 0 63.334 14.333 92.001 43c19.333 19.333 40 29 62 29c19.333 0 35.666 -7 48.999 -21s20 -31 20 -51s-8.66699 -39.667 -26 -59c-32.667 -34.667 -63 -60.167 -91 -76.5s-63.333 -24.5 -106 -24.5
c-26 0 -51.833 5.5 -77.5 16.5s-47.167 23 -64.5 36s-37.833 25 -61.5 36s-47.167 16.5 -70.5 16.5c-32.667 0 -63.334 -14.333 -92.001 -43c-19.333 -19.333 -40 -29 -62 -29c-19.333 0 -35.833 7.16699 -49.5 21.5s-20.5 31.166 -20.5 50.499zM326 512.003
c0 -109.333 27 -198.166 81 -266.499s125.333 -102.5 214 -102.5s159.834 34.167 213.501 102.5s80.5 157.166 80.5 266.499s-26.833 198.166 -80.5 266.499s-124.834 102.5 -213.501 102.5s-160 -34.167 -214 -102.5s-81 -157.166 -81 -266.499z" />
    <glyph glyph-name="adieresis" unicode="&#xe4;" 
d="M141 512c0 70 10.666 136.669 31.999 200.002s51.833 119.833 91.5 169.5s90.334 89.167 152.001 118.5s129.834 44 204.501 44c56.667 0 111.334 -10.833 164.001 -32.5s94 -52.834 124 -93.501c2 32.667 11.167 58.5 27.5 77.5s37.833 28.5 64.5 28.5
c29.333 0 53.166 -9 71.499 -27s27.5 -43 27.5 -75v-820c0 -32 -9.16699 -57 -27.5 -75s-42.166 -27 -71.499 -27c-26.667 0 -48.167 9.5 -64.5 28.5s-25.5 44.833 -27.5 77.5c-30 -40.667 -71.333 -71.834 -124 -93.501s-107.334 -32.5 -164.001 -32.5
c-77.333 0 -147 14.667 -209 44s-112.333 69 -151 119s-68.334 106.5 -89.001 169.5s-31 129.5 -31 199.5zM314.999 1329c0 35.333 11.833 65 35.5 89s52.167 36 85.5 36c34.667 0 64.167 -12 88.5 -36s36.5 -53.667 36.5 -89c0 -32.667 -12.333 -61 -37 -85
s-54 -36 -88 -36c-33.333 0 -61.833 12.167 -85.5 36.5s-35.5 52.5 -35.5 84.5zM325.999 512.002c0 -109.333 27 -198.166 81 -266.499s125.333 -102.5 214 -102.5s159.834 34.167 213.501 102.5s80.5 157.166 80.5 266.499s-26.833 198.166 -80.5 266.499
s-124.834 102.5 -213.501 102.5s-160 -34.167 -214 -102.5s-81 -157.166 -81 -266.499zM706.999 1329c0 35.333 12.001 65 36.001 89s52 36 84 36c36 0 65.833 -12 89.5 -36s35.5 -53.667 35.5 -89c0 -32.667 -12.333 -61 -37 -85s-54 -36 -88 -36
c-32.667 0 -60.834 12.167 -84.501 36.5s-35.5 52.5 -35.5 84.5z" />
    <glyph glyph-name="aring" unicode="&#xe5;" 
d="M141 512c0 70 10.666 136.669 31.999 200.002s51.833 119.833 91.5 169.5s90.334 89.167 152.001 118.5s129.834 44 204.501 44c56.667 0 111.334 -10.833 164.001 -32.5s94 -52.834 124 -93.501c2 32.667 11.167 58.5 27.5 77.5s37.833 28.5 64.5 28.5
c29.333 0 53.166 -9 71.499 -27s27.5 -43 27.5 -75v-820c0 -32 -9.16699 -57 -27.5 -75s-42.166 -27 -71.499 -27c-26.667 0 -48.167 9.5 -64.5 28.5s-25.5 44.833 -27.5 77.5c-30 -40.667 -71.333 -71.834 -124 -93.501s-107.334 -32.5 -164.001 -32.5
c-77.333 0 -147 14.667 -209 44s-112.333 69 -151 119s-68.334 106.5 -89.001 169.5s-31 129.5 -31 199.5zM325.999 512.002c0 -109.333 27 -198.166 81 -266.499s125.333 -102.5 214 -102.5s159.834 34.167 213.501 102.5s80.5 157.166 80.5 266.499
s-26.833 198.166 -80.5 266.499s-124.834 102.5 -213.501 102.5s-160 -34.167 -214 -102.5s-81 -157.166 -81 -266.499zM405.999 1403c0 59.333 21 110 63 152s92.667 63 152 63s110 -21 152 -63s63 -92.667 63 -152s-21 -110 -63 -152s-92.667 -63 -152 -63
s-110 21 -152 63s-63 92.667 -63 152zM525.999 1403c0 -26.667 9 -49 27 -67s40.667 -27 68 -27s49.833 9 67.5 27s26.5 40.333 26.5 67s-8.83301 49 -26.5 67s-40.167 27 -67.5 27s-50 -9 -68 -27s-27 -40.333 -27 -67z" />
    <glyph glyph-name="ae" unicode="&#xe6;" 
d="M72 272c0 108 40.002 190.001 120.002 246.001s184.667 84 314 84v62c0 144.667 -43 217 -129 217c-36.667 0 -64.834 -8.83301 -84.501 -26.5s-37.834 -47.167 -54.501 -88.5c-11.333 -30 -34 -45 -68 -45c-23.333 0 -43.5 7.33301 -60.5 22s-25.5 34 -25.5 58
c0 12 1.33301 22 4 30c23.333 68 60.833 120.5 112.5 157.5s110.5 55.5 176.5 55.5c102 0 180.333 -37.333 235 -112c57.333 74.667 137.333 112 240 112c120 0 208.333 -42.5 265 -127.5s85 -204.833 85 -359.5c0 -79.333 -34 -119 -102 -119h-404v-84
c0 -72 12.5 -125.167 37.5 -159.5s64.5 -51.5 118.5 -51.5c38 0 70.667 9.5 98 28.5s53.333 49.833 78 92.5c19.333 34 45.333 51 78 51c24 0 43 -7.33301 57 -22s21 -35.334 21 -62.001c0 -30 -8.33301 -58 -25 -84c-24.667 -36.667 -49.667 -66.5 -75 -89.5
s-57.666 -41.667 -96.999 -56s-84.333 -21.5 -135 -21.5c-54 0 -103.167 10.5 -147.5 31.5s-78.5 48.5 -102.5 82.5c-54.667 -76 -130.334 -114 -227.001 -114c-90 0 -163 24.167 -219 72.5s-84 121.5 -84 219.5zM256.002 272.001c0 -44.667 11.833 -77.333 35.5 -98
s51.5 -31 83.5 -31c87.333 0 131 61.667 131 185v110c-83.333 0 -145.833 -12.833 -187.5 -38.5s-62.5 -68.167 -62.5 -127.5zM696.002 602.002h315.999c-5.33301 92 -20.166 161.5 -44.499 208.5s-62.833 70.5 -115.5 70.5c-28.667 0 -52.667 -6.16699 -72 -18.5
s-34.5 -31.5 -45.5 -57.5s-19.333 -54.5 -25 -85.5s-10.167 -70.167 -13.5 -117.5z" />
    <glyph glyph-name="ccedilla" unicode="&#xe7;" 
d="M141 512c0 100 19.833 189.835 59.5 269.502s98.5 143.334 176.5 191.001s168.667 71.5 272 71.5c92.667 0 167.5 -13.333 224.5 -40s108.5 -64.334 154.5 -113.001c27.333 -27.333 41 -56 41 -86c0 -26.667 -7.83301 -49 -23.5 -67s-37.167 -27 -64.5 -27
c-28.667 0 -54 15 -76 45c-36 48.667 -71.833 81.667 -107.5 99s-85.167 26 -148.5 26c-97.333 0 -175.5 -35.333 -234.5 -106s-88.5 -158.334 -88.5 -263.001s29.5 -192.334 88.5 -263.001s137.167 -106 234.5 -106c63.333 0 112.833 8.66699 148.5 26
s71.5 50.333 107.5 99c22 30 47.333 45 76 45c27.333 0 48.833 -9 64.5 -27s23.5 -40.333 23.5 -67c0 -30 -13.667 -58.667 -41 -86c-46 -48.667 -97.5 -86.334 -154.5 -113.001s-131.833 -40 -224.5 -40c-103.333 0 -194 23.833 -272 71.5s-136.833 111.334 -176.5 191.001
s-59.5 169.5 -59.5 269.5zM510 -435.998c0 16 3.33301 33 10 51l76 195c17.333 47.333 44 71 80 71c24.667 0 44.5 -7.16699 59.5 -21.5s22.5 -33.166 22.5 -56.499c0 -16 -3.33301 -33 -10 -51l-76 -194c-18 -48 -44.667 -72 -80 -72c-24 0 -43.667 7.16699 -59 21.5
s-23 33.166 -23 56.499z" />
    <glyph glyph-name="egrave" unicode="&#xe8;" 
d="M141 512c0 100 19.832 189.832 59.499 269.499s98.5 143.334 176.5 191.001s168.667 71.5 272 71.5c145.333 0 264 -48 356 -144s138 -215.667 138 -359c0 -32.667 -9.16699 -58 -27.5 -76s-43.5 -27 -75.5 -27h-708c10.667 -81.333 44.334 -150.833 101.001 -208.5
s128.667 -86.5 216 -86.5c132 0 234.333 41.667 307 125c20 23.333 44 35 72 35s50 -9.83301 66 -29.5s24 -41.834 24 -66.501s-11 -48 -33 -70c-108 -104.667 -253.333 -157 -436 -157c-103.333 0 -194 23.833 -272 71.5s-136.833 111.334 -176.5 191.001
s-59.5 169.5 -59.5 269.5zM331.999 601.999l620 -0.000976562c-20.667 82.667 -56 149.834 -106 201.501s-115.667 77.5 -197 77.5c-83.333 0 -153.5 -27 -210.5 -81s-92.5 -120 -106.5 -198zM423.999 1409c0 23.333 8.5 43.5 25.5 60.5s37.833 25.5 62.5 25.5
c18 0 36.333 -4.66699 55 -14l250 -127c36.667 -18.667 55 -46 55 -82c0 -24.667 -8.16699 -46.167 -24.5 -64.5s-36.833 -27.5 -61.5 -27.5c-12 0 -25.667 3.33301 -41 10l-276 141c-30 15.333 -45 41.333 -45 78z" />
    <glyph glyph-name="eacute" unicode="&#xe9;" 
d="M141 512c0 100 19.832 189.832 59.499 269.499s98.5 143.334 176.5 191.001s168.667 71.5 272 71.5c145.333 0 264 -48 356 -144s138 -215.667 138 -359c0 -32.667 -9.16699 -58 -27.5 -76s-43.5 -27 -75.5 -27h-708c10.667 -81.333 44.334 -150.833 101.001 -208.5
s128.667 -86.5 216 -86.5c132 0 234.333 41.667 307 125c20 23.333 44 35 72 35s50 -9.83301 66 -29.5s24 -41.834 24 -66.501s-11 -48 -33 -70c-108 -104.667 -253.333 -157 -436 -157c-103.333 0 -194 23.833 -272 71.5s-136.833 111.334 -176.5 191.001
s-59.5 169.5 -59.5 269.5zM331.999 601.999l620 -0.000976562c-20.667 82.667 -56 149.834 -106 201.501s-115.667 77.5 -197 77.5c-83.333 0 -153.5 -27 -210.5 -81s-92.5 -120 -106.5 -198zM427.999 1272c0 36 18.333 63.333 55 82l250 127c18.667 9.33301 37 14 55 14
c25.333 0 46.5 -8.5 63.5 -25.5s25.5 -37.167 25.5 -60.5c0 -36 -15.333 -62 -46 -78l-276 -141c-15.333 -6.66699 -29 -10 -41 -10c-24.667 0 -45.167 9.16699 -61.5 27.5s-24.5 39.833 -24.5 64.5z" />
    <glyph glyph-name="ecircumflex" unicode="&#xea;" 
d="M141 512c0 100 19.832 189.832 59.499 269.499s98.5 143.334 176.5 191.001s168.667 71.5 272 71.5c145.333 0 264 -48 356 -144s138 -215.667 138 -359c0 -32.667 -9.16699 -58 -27.5 -76s-43.5 -27 -75.5 -27h-708c10.667 -81.333 44.334 -150.833 101.001 -208.5
s128.667 -86.5 216 -86.5c132 0 234.333 41.667 307 125c20 23.333 44 35 72 35s50 -9.83301 66 -29.5s24 -41.834 24 -66.501s-11 -48 -33 -70c-108 -104.667 -253.333 -157 -436 -157c-103.333 0 -194 23.833 -272 71.5s-136.833 111.334 -176.5 191.001
s-59.5 169.5 -59.5 269.5zM331.999 601.999l620 -0.000976562c-20.667 82.667 -56 149.834 -106 201.501s-115.667 77.5 -197 77.5c-83.333 0 -153.5 -27 -210.5 -81s-92.5 -120 -106.5 -198zM335.999 1272c0 27.333 13.001 52 39.001 74l209 163
c23.333 18 45.666 27 66.999 27c22 0 44.667 -9 68 -27l209 -163c26 -22 39 -46.667 39 -74c0 -26 -8.33301 -47.833 -25 -65.5s-37.667 -26.5 -63 -26.5c-20.667 0 -38.667 6.66699 -54 20l-174 137l-174 -137c-18 -13.333 -35.667 -20 -53 -20
c-25.333 0 -46.333 8.83301 -63 26.5s-25 39.5 -25 65.5z" />
    <glyph glyph-name="edieresis" unicode="&#xeb;" 
d="M141 512c0 100 19.832 189.832 59.499 269.499s98.5 143.334 176.5 191.001s168.667 71.5 272 71.5c145.333 0 264 -48 356 -144s138 -215.667 138 -359c0 -32.667 -9.16699 -58 -27.5 -76s-43.5 -27 -75.5 -27h-708c10.667 -81.333 44.334 -150.833 101.001 -208.5
s128.667 -86.5 216 -86.5c132 0 234.333 41.667 307 125c20 23.333 44 35 72 35s50 -9.83301 66 -29.5s24 -41.834 24 -66.501s-11 -48 -33 -70c-108 -104.667 -253.333 -157 -436 -157c-103.333 0 -194 23.833 -272 71.5s-136.833 111.334 -176.5 191.001
s-59.5 169.5 -59.5 269.5zM331.999 601.999l620 -0.000976562c-20.667 82.667 -56 149.834 -106 201.501s-115.667 77.5 -197 77.5c-83.333 0 -153.5 -27 -210.5 -81s-92.5 -120 -106.5 -198zM335.999 1329c0 35.333 11.833 65 35.5 89s52.167 36 85.5 36
c35.333 0 65 -12 89 -36s36 -53.667 36 -89c0 -32.667 -12.333 -61 -37 -85s-54 -36 -88 -36c-33.333 0 -61.833 12.167 -85.5 36.5s-35.5 52.5 -35.5 84.5zM726.999 1329c0 35.333 12.167 65 36.5 89s52.5 36 84.5 36c36 0 65.833 -12 89.5 -36s35.5 -53.667 35.5 -89
c0 -32.667 -12.333 -61 -37 -85s-54 -36 -88 -36c-32.667 0 -61 12.167 -85 36.5s-36 52.5 -36 84.5z" />
    <glyph glyph-name="igrave" unicode="&#xec;" 
d="M207 82c0 26.667 9.33301 47 28 61s42.667 21 72 21h297v696h-229c-29.333 0 -53.5 7.16699 -72.5 21.5s-28.5 34.5 -28.5 60.5s9.5 46.167 28.5 60.5s43.167 21.5 72.5 21.5h321c26 0 47.833 -7.83301 65.5 -23.5s26.5 -35.167 26.5 -58.5v-778h297
c29.333 0 53.5 -7.16699 72.5 -21.5s28.5 -34.5 28.5 -60.5s-9.5 -46.167 -28.5 -60.5s-43.167 -21.5 -72.5 -21.5h-778c-29.333 0 -53.333 7 -72 21s-28 34.333 -28 61zM328 1409c0 23.333 8.5 43.5 25.5 60.5s37.833 25.5 62.5 25.5c18 0 36.333 -4.66699 55 -14l250 -127
c36.667 -18.667 55 -46 55 -82c0 -24.667 -8.16699 -46.167 -24.5 -64.5s-36.833 -27.5 -61.5 -27.5c-12 0 -25.667 3.33301 -41 10l-276 141c-30 15.333 -45 41.333 -45 78z" />
    <glyph glyph-name="iacute" unicode="&#xed;" 
d="M207 82c0 26.667 9.33301 47 28 61s42.667 21 72 21h297v696h-229c-29.333 0 -53.5 7.16699 -72.5 21.5s-28.5 34.5 -28.5 60.5s9.5 46.167 28.5 60.5s43.167 21.5 72.5 21.5h321c26 0 47.833 -7.83301 65.5 -23.5s26.5 -35.167 26.5 -58.5v-778h297
c29.333 0 53.5 -7.16699 72.5 -21.5s28.5 -34.5 28.5 -60.5s-9.5 -46.167 -28.5 -60.5s-43.167 -21.5 -72.5 -21.5h-778c-29.333 0 -53.333 7 -72 21s-28 34.333 -28 61zM315 1272c0 35.333 18.667 62.667 56 82l250 127c18.667 9.33301 37 14 55 14
c24.667 0 45.5 -8.5 62.5 -25.5s25.5 -37.167 25.5 -60.5c0 -36.667 -15 -62.667 -45 -78l-277 -141c-15.333 -6.66699 -29 -10 -41 -10c-24.667 0 -45.167 9.16699 -61.5 27.5s-24.5 39.833 -24.5 64.5z" />
    <glyph glyph-name="icircumflex" unicode="&#xee;" 
d="M207 82c0 26.667 9.33301 47 28 61s42.667 21 72 21h297v696h-229c-29.333 0 -53.5 7.16699 -72.5 21.5s-28.5 34.5 -28.5 60.5s9.5 46.167 28.5 60.5s43.167 21.5 72.5 21.5h321c26 0 47.833 -7.83301 65.5 -23.5s26.5 -35.167 26.5 -58.5v-778h297
c29.333 0 53.5 -7.16699 72.5 -21.5s28.5 -34.5 28.5 -60.5s-9.5 -46.167 -28.5 -60.5s-43.167 -21.5 -72.5 -21.5h-778c-29.333 0 -53.333 7 -72 21s-28 34.333 -28 61zM293 1272c0 27.333 13.001 52 39.001 74l209 163c23.333 18 45.666 27 66.999 27
c22 0 44.667 -9 68 -27l209 -163c26 -22 39 -46.667 39 -74c0 -26 -8.33301 -47.833 -25 -65.5s-37.667 -26.5 -63 -26.5c-20.667 0 -38.667 6.66699 -54 20l-174 137l-174 -137c-18 -13.333 -35.667 -20 -53 -20c-25.333 0 -46.333 8.83301 -63 26.5s-25 39.5 -25 65.5z
" />
    <glyph glyph-name="idieresis" unicode="&#xef;" 
d="M207 82c0 26.667 9.33301 47 28 61s42.667 21 72 21h297v696h-229c-29.333 0 -53.5 7.16699 -72.5 21.5s-28.5 34.5 -28.5 60.5s9.5 46.167 28.5 60.5s43.167 21.5 72.5 21.5h321c26 0 47.833 -7.83301 65.5 -23.5s26.5 -35.167 26.5 -58.5v-778h297
c29.333 0 53.5 -7.16699 72.5 -21.5s28.5 -34.5 28.5 -60.5s-9.5 -46.167 -28.5 -60.5s-43.167 -21.5 -72.5 -21.5h-778c-29.333 0 -53.333 7 -72 21s-28 34.333 -28 61zM279 1329c0 35.333 11.667 65 35 89s51.666 36 84.999 36c35.333 0 65 -12 89 -36s36 -53.667 36 -89
c0 -32.667 -12.333 -61 -37 -85s-54 -36 -88 -36c-33.333 0 -61.666 12.167 -84.999 36.5s-35 52.5 -35 84.5zM670 1329c0 35.333 12.167 65 36.5 89s52.5 36 84.5 36c36 0 65.667 -12 89 -36s35 -53.667 35 -89c0 -33.333 -12.167 -61.833 -36.5 -85.5
s-53.5 -35.5 -87.5 -35.5c-32.667 0 -61 12.167 -85 36.5s-36 52.5 -36 84.5z" />
    <glyph glyph-name="eth" unicode="&#xf0;" 
d="M143 512c0 153.333 45.333 280.333 136 381s208.667 151 354 151c84 0 161 -19 231 -57c-29.333 66 -68 124 -116 174l-293 -57c-6.66699 -1.33301 -16.334 -2 -29.001 -2c-24.667 0 -45.167 7.83301 -61.5 23.5s-24.5 35.167 -24.5 58.5
c0 20.667 7.66699 38.167 23 52.5s35.666 24.166 60.999 29.499l137 26c-6.66699 4 -17.167 9.16699 -31.5 15.5s-24.166 10.833 -29.499 13.5c-40 15.333 -60 41.333 -60 78c0 25.333 9 47.333 27 66s42 28 72 28c18 0 36.333 -4.66699 55 -14
c84 -43.333 154.333 -89.333 211 -138l141 29c6.66699 1.33301 16.334 2 29.001 2c25.333 0 46 -7.33301 62 -22s24 -34.667 24 -60c0 -20.667 -7.66699 -38.167 -23 -52.5s-35.666 -24.166 -60.999 -29.499l-39 -8c120.667 -161.333 182 -383 184 -665v-23
c0 -100.667 -19.833 -191.167 -59.5 -271.5s-96.834 -143.833 -171.501 -190.5s-160.667 -70 -258 -70c-145.333 0 -263.333 50.333 -354 151s-136 227.667 -136 381zM328 512c0 -113.333 28 -203.166 84 -269.499s129.667 -99.5 221 -99.5s165 33.167 221 99.5
s84 156.166 84 269.499s-28 203.166 -84 269.499s-129.667 99.5 -221 99.5s-165 -33.167 -221 -99.5s-84 -156.166 -84 -269.499z" />
    <glyph glyph-name="ntilde" unicode="&#xf1;" 
d="M219 100l-0.000976562 823.999c0 28 8.66699 51.667 26 71s39.333 29 66 29s48.667 -9.66699 66 -29s26 -43 26 -71v-41c15.333 43.333 51.333 81 108 113s117 48 181 48c124.667 0 220.334 -31 287.001 -93s100 -162.667 100 -302v-549
c0 -28.667 -8.33301 -52.5 -25 -71.5s-39 -28.5 -67 -28.5c-26.667 0 -48.667 9.66699 -66 29s-26 43 -26 71v508c0 96.667 -15.167 166.334 -45.5 209.001s-82.833 64 -157.5 64c-89.333 0 -159.833 -36.5 -211.5 -109.5s-77.5 -168.5 -77.5 -286.5v-385
c0 -28 -8.66699 -51.667 -26 -71s-39.333 -29 -66 -29s-48.667 9.66699 -66 29s-26 43 -26 71zM273.999 1315c0 19.333 9.00098 39.001 27.001 59.001c32.667 34.667 63 60.167 91 76.5s63.333 24.5 106 24.5c26 0 51.833 -5.5 77.5 -16.5s47.167 -23 64.5 -36
s37.833 -25 61.5 -36s47.167 -16.5 70.5 -16.5c32.667 0 63.334 14.333 92.001 43c19.333 19.333 40 29 62 29c19.333 0 35.666 -7 48.999 -21s20 -31 20 -51s-8.66699 -39.667 -26 -59c-32.667 -34.667 -63 -60.167 -91 -76.5s-63.333 -24.5 -106 -24.5
c-26 0 -51.833 5.5 -77.5 16.5s-47.167 23 -64.5 36s-37.833 25 -61.5 36s-47.167 16.5 -70.5 16.5c-32.667 0 -63.334 -14.333 -92.001 -43c-19.333 -19.333 -40 -29 -62 -29c-19.333 0 -35.833 7.16699 -49.5 21.5s-20.5 31.166 -20.5 50.499z" />
    <glyph glyph-name="ograve" unicode="&#xf2;" 
d="M143 512c0 153.333 45.335 280.333 136.002 381s208.667 151 354 151s263.166 -50.333 353.499 -151s135.5 -227.667 135.5 -381c0 -100.667 -19.833 -191.167 -59.5 -271.5s-96.834 -143.833 -171.501 -190.5s-160.667 -70 -258 -70
c-145.333 0 -263.333 50.333 -354 151s-136 227.667 -136 381zM328.002 512c0 -113.333 28 -203.166 84 -269.499s129.667 -99.5 221 -99.5s165 33.167 221 99.5s84 156.166 84 269.499s-28 203.166 -84 269.499s-129.667 99.5 -221 99.5s-165 -33.167 -221 -99.5
s-84 -156.166 -84 -269.499zM410.002 1409c0 23.333 8.5 43.5 25.5 60.5s37.833 25.5 62.5 25.5c18 0 36.333 -4.66699 55 -14l250 -127c36.667 -18.667 55 -46 55 -82c0 -24.667 -8.16699 -46.167 -24.5 -64.5s-36.833 -27.5 -61.5 -27.5c-12 0 -25.667 3.33301 -41 10
l-276 141c-30 15.333 -45 41.333 -45 78z" />
    <glyph glyph-name="oacute" unicode="&#xf3;" 
d="M143 512c0 153.333 45.335 280.333 136.002 381s208.667 151 354 151s263.166 -50.333 353.499 -151s135.5 -227.667 135.5 -381c0 -100.667 -19.833 -191.167 -59.5 -271.5s-96.834 -143.833 -171.501 -190.5s-160.667 -70 -258 -70
c-145.333 0 -263.333 50.333 -354 151s-136 227.667 -136 381zM328.002 512c0 -113.333 28 -203.166 84 -269.499s129.667 -99.5 221 -99.5s165 33.167 221 99.5s84 156.166 84 269.499s-28 203.166 -84 269.499s-129.667 99.5 -221 99.5s-165 -33.167 -221 -99.5
s-84 -156.166 -84 -269.499zM410.002 1272c0 36 18.333 63.333 55 82l250 127c18.667 9.33301 37 14 55 14c24.667 0 45.5 -8.5 62.5 -25.5s25.5 -37.167 25.5 -60.5c0 -36.667 -15 -62.667 -45 -78l-276 -141c-15.333 -6.66699 -29 -10 -41 -10
c-24.667 0 -45.167 9.16699 -61.5 27.5s-24.5 39.833 -24.5 64.5z" />
    <glyph glyph-name="ocircumflex" unicode="&#xf4;" 
d="M143 512c0 153.333 45.335 280.333 136.002 381s208.667 151 354 151s263.166 -50.333 353.499 -151s135.5 -227.667 135.5 -381c0 -100.667 -19.833 -191.167 -59.5 -271.5s-96.834 -143.833 -171.501 -190.5s-160.667 -70 -258 -70
c-145.333 0 -263.333 50.333 -354 151s-136 227.667 -136 381zM317.002 1272c0 27.333 13.001 52 39.001 74l209 163c23.333 18 46 27 68 27c21.333 0 43.666 -9 66.999 -27l209 -163c26 -22 39 -46.667 39 -74c0 -26 -8.33301 -47.833 -25 -65.5s-37.667 -26.5 -63 -26.5
c-20 0 -37.667 6.66699 -53 20l-174 137l-174 -137c-18 -13.333 -35.667 -20 -53 -20c-25.333 0 -46.5 8.83301 -63.5 26.5s-25.5 39.5 -25.5 65.5zM328.003 512c0 -113.333 28 -203.166 84 -269.499s129.667 -99.5 221 -99.5s165 33.167 221 99.5s84 156.166 84 269.499
s-28 203.166 -84 269.499s-129.667 99.5 -221 99.5s-165 -33.167 -221 -99.5s-84 -156.166 -84 -269.499z" />
    <glyph glyph-name="otilde" unicode="&#xf5;" 
d="M143 512c0 153.333 45.335 280.333 136.002 381s208.667 151 354 151s263.166 -50.333 353.499 -151s135.5 -227.667 135.5 -381c0 -100.667 -19.833 -191.167 -59.5 -271.5s-96.834 -143.833 -171.501 -190.5s-160.667 -70 -258 -70
c-145.333 0 -263.333 50.333 -354 151s-136 227.667 -136 381zM274.002 1315c0 19.333 9.00098 39.001 27.001 59.001c32.667 34.667 63 60.167 91 76.5s63.333 24.5 106 24.5c26 0 51.833 -5.5 77.5 -16.5s47.167 -23 64.5 -36s37.833 -25 61.5 -36
s47.167 -16.5 70.5 -16.5c32.667 0 63.334 14.333 92.001 43c19.333 19.333 40 29 62 29c19.333 0 35.666 -7 48.999 -21s20 -31 20 -51s-8.66699 -39.667 -26 -59c-32.667 -34.667 -63 -60.167 -91 -76.5s-63.333 -24.5 -106 -24.5c-26 0 -51.833 5.5 -77.5 16.5
s-47.167 23 -64.5 36s-37.833 25 -61.5 36s-47.167 16.5 -70.5 16.5c-32.667 0 -63.334 -14.333 -92.001 -43c-19.333 -19.333 -40 -29 -62 -29c-19.333 0 -35.833 7.16699 -49.5 21.5s-20.5 31.166 -20.5 50.499zM328.003 512.001c0 -113.333 28 -203.166 84 -269.499
s129.667 -99.5 221 -99.5s165 33.167 221 99.5s84 156.166 84 269.499s-28 203.166 -84 269.499s-129.667 99.5 -221 99.5s-165 -33.167 -221 -99.5s-84 -156.166 -84 -269.499z" />
    <glyph glyph-name="odieresis" unicode="&#xf6;" 
d="M143 512c0 153.333 45.335 280.333 136.002 381s208.667 151 354 151s263.166 -50.333 353.499 -151s135.5 -227.667 135.5 -381c0 -100.667 -19.833 -191.167 -59.5 -271.5s-96.834 -143.833 -171.501 -190.5s-160.667 -70 -258 -70
c-145.333 0 -263.333 50.333 -354 151s-136 227.667 -136 381zM315.002 1329c0 35.333 11.833 65 35.5 89s52.167 36 85.5 36c34.667 0 64.167 -12 88.5 -36s36.5 -53.667 36.5 -89c0 -32.667 -12.333 -61 -37 -85s-54 -36 -88 -36c-33.333 0 -61.833 12.167 -85.5 36.5
s-35.5 52.5 -35.5 84.5zM328.002 512c0 -113.333 28 -203.166 84 -269.499s129.667 -99.5 221 -99.5s165 33.167 221 99.5s84 156.166 84 269.499s-28 203.166 -84 269.499s-129.667 99.5 -221 99.5s-165 -33.167 -221 -99.5s-84 -156.166 -84 -269.499zM707.002 1329
c0 35.333 12.001 65 36.001 89s52 36 84 36c36 0 65.833 -12 89.5 -36s35.5 -53.667 35.5 -89c0 -32.667 -12.333 -61 -37 -85s-54 -36 -88 -36c-32.667 0 -60.834 12.167 -84.501 36.5s-35.5 52.5 -35.5 84.5z" />
    <glyph glyph-name="divide" unicode="&#xf7;" 
d="M119 616c0 31.333 8.83301 53.5 26.5 66.5s43.5 19.5 77.5 19.5h826c34 0 59.833 -6.5 77.5 -19.5s26.5 -35.167 26.5 -66.5s-8.83301 -53.5 -26.5 -66.5s-43.5 -19.5 -77.5 -19.5h-826c-34 0 -59.833 6.5 -77.5 19.5s-26.5 35.167 -26.5 66.5zM469 238
c0 46.667 15.833 85.834 47.5 117.501s71.167 47.5 118.5 47.5s86.833 -15.833 118.5 -47.5s47.5 -70.834 47.5 -117.501s-15.833 -86 -47.5 -118s-71.167 -48 -118.5 -48s-86.833 16 -118.5 48s-47.5 71.333 -47.5 118zM469 991c0 47.333 15.833 86.833 47.5 118.5
s71.167 47.5 118.5 47.5s86.833 -15.833 118.5 -47.5s47.5 -71.167 47.5 -118.5s-15.833 -86.833 -47.5 -118.5s-71.167 -47.5 -118.5 -47.5s-86.833 15.833 -118.5 47.5s-47.5 71.167 -47.5 118.5z" />
    <glyph glyph-name="oslash" unicode="&#xf8;" 
d="M143 512c0 153.333 45.332 280.334 135.999 381.001s208.667 151 354 151c86.667 0 165 -19 235 -57l6 8c16.667 23.333 37.334 35 62.001 35c26.667 0 49.667 -9 69 -27s29 -39.667 29 -65c0 -16.667 -6.66699 -33.667 -20 -51l-10 -15
c78.667 -95.333 118 -215.333 118 -360c0 -100.667 -19.833 -191.167 -59.5 -271.5s-96.834 -143.833 -171.501 -190.5s-160.667 -70 -258 -70c-99.333 0 -187.333 24.333 -264 73l-19 -22c-16.667 -23.333 -37 -35 -61 -35c-27.333 0 -50.666 9.16699 -69.999 27.5
s-29 39.166 -29 62.499c0 16 7 33 21 51l31 39c-66 94 -99 206 -99 336zM327.999 512.001c0 -70.667 10 -131.334 30 -182.001l406 522c-42 19.333 -85.667 29 -131 29c-91.333 0 -165 -33.167 -221 -99.5s-84 -156.166 -84 -269.499zM472.999 188.001
c43.333 -30 96.667 -44.999 160 -44.999c91.333 0 165 33.167 221 99.5s84 156.166 84 269.499c0 83.333 -16.333 155 -49 215z" />
    <glyph glyph-name="ugrave" unicode="&#xf9;" 
d="M219 375l0.000976562 549.001c0 28.667 8.33301 52.5 25 71.5s39 28.5 67 28.5c26.667 0 48.667 -9.66699 66 -29s26 -43 26 -71v-508c0 -96.667 15.167 -166.334 45.5 -209.001s82.833 -64 157.5 -64c89.333 0 159.833 36.5 211.5 109.5s77.5 168.5 77.5 286.5v385
c0 28 8.66699 51.667 26 71s39.333 29 66 29s48.667 -9.66699 66 -29s26 -43 26 -71v-824c0 -28 -8.66699 -51.667 -26 -71s-39.333 -29 -66 -29s-48.667 9.66699 -66 29s-26 43 -26 71v41c-15.333 -43.333 -51.333 -81 -108 -113s-117 -48 -181 -48
c-124.667 0 -220.334 31 -287.001 93s-100 162.667 -100 302zM410.001 1409c0 23.333 8.5 43.5 25.5 60.5s37.833 25.5 62.5 25.5c18 0 36.333 -4.66699 55 -14l250 -127c36.667 -18.667 55 -46 55 -82c0 -24.667 -8.16699 -46.167 -24.5 -64.5s-36.833 -27.5 -61.5 -27.5
c-12 0 -25.667 3.33301 -41 10l-276 141c-30 15.333 -45 41.333 -45 78z" />
    <glyph glyph-name="uacute" unicode="&#xfa;" 
d="M219 375l0.000976562 549.001c0 28.667 8.33301 52.5 25 71.5s39 28.5 67 28.5c26.667 0 48.667 -9.66699 66 -29s26 -43 26 -71v-508c0 -96.667 15.167 -166.334 45.5 -209.001s82.833 -64 157.5 -64c89.333 0 159.833 36.5 211.5 109.5s77.5 168.5 77.5 286.5v385
c0 28 8.66699 51.667 26 71s39.333 29 66 29s48.667 -9.66699 66 -29s26 -43 26 -71v-824c0 -28 -8.66699 -51.667 -26 -71s-39.333 -29 -66 -29s-48.667 9.66699 -66 29s-26 43 -26 71v41c-15.333 -43.333 -51.333 -81 -108 -113s-117 -48 -181 -48
c-124.667 0 -220.334 31 -287.001 93s-100 162.667 -100 302zM430.001 1272c0 36 18.332 63.333 54.999 82l250 127c18.667 9.33301 37.334 14 56.001 14c24.667 0 45.5 -8.5 62.5 -25.5s25.5 -37.167 25.5 -60.5c0 -36.667 -15 -62.667 -45 -78l-277 -141
c-15.333 -6.66699 -29 -10 -41 -10c-24.667 0 -45.167 9.16699 -61.5 27.5s-24.5 39.833 -24.5 64.5z" />
    <glyph glyph-name="ucircumflex" unicode="&#xfb;" 
d="M219 375l0.000976562 549.001c0 28.667 8.33301 52.5 25 71.5s39 28.5 67 28.5c26.667 0 48.667 -9.66699 66 -29s26 -43 26 -71v-508c0 -96.667 15.167 -166.334 45.5 -209.001s82.833 -64 157.5 -64c89.333 0 159.833 36.5 211.5 109.5s77.5 168.5 77.5 286.5v385
c0 28 8.66699 51.667 26 71s39.333 29 66 29s48.667 -9.66699 66 -29s26 -43 26 -71v-824c0 -28 -8.66699 -51.667 -26 -71s-39.333 -29 -66 -29s-48.667 9.66699 -66 29s-26 43 -26 71v41c-15.333 -43.333 -51.333 -81 -108 -113s-117 -48 -181 -48
c-124.667 0 -220.334 31 -287.001 93s-100 162.667 -100 302zM334.001 1272c0 27.333 13.001 52 39.001 74l209 163c23.333 18 45.666 27 66.999 27c22 0 44.667 -9 68 -27l209 -163c26 -22 39 -46.667 39 -74c0 -26 -8.33301 -47.833 -25 -65.5s-37.667 -26.5 -63 -26.5
c-20.667 0 -38.667 6.66699 -54 20l-174 137l-174 -137c-18 -13.333 -35.667 -20 -53 -20c-25.333 0 -46.333 8.83301 -63 26.5s-25 39.5 -25 65.5z" />
    <glyph glyph-name="udieresis" unicode="&#xfc;" 
d="M219 375l0.000976562 549.001c0 28.667 8.33301 52.5 25 71.5s39 28.5 67 28.5c26.667 0 48.667 -9.66699 66 -29s26 -43 26 -71v-508c0 -96.667 15.167 -166.334 45.5 -209.001s82.833 -64 157.5 -64c89.333 0 159.833 36.5 211.5 109.5s77.5 168.5 77.5 286.5v385
c0 28 8.66699 51.667 26 71s39.333 29 66 29s48.667 -9.66699 66 -29s26 -43 26 -71v-824c0 -28 -8.66699 -51.667 -26 -71s-39.333 -29 -66 -29s-48.667 9.66699 -66 29s-26 43 -26 71v41c-15.333 -43.333 -51.333 -81 -108 -113s-117 -48 -181 -48
c-124.667 0 -220.334 31 -287.001 93s-100 162.667 -100 302zM326.001 1329c0 35.333 11.667 65 35 89s51.666 36 84.999 36c34.667 0 64.167 -12 88.5 -36s36.5 -53.667 36.5 -89c0 -32.667 -12.333 -61 -37 -85s-54 -36 -88 -36c-33.333 0 -61.666 12.167 -84.999 36.5
s-35 52.5 -35 84.5zM717.001 1329c0 35.333 12.167 65 36.5 89s52.5 36 84.5 36c36 0 65.833 -12 89.5 -36s35.5 -53.667 35.5 -89c0 -32.667 -12.333 -61 -37 -85s-54 -36 -88 -36c-32.667 0 -61 12.167 -85 36.5s-36 52.5 -36 84.5z" />
    <glyph glyph-name="yacute" unicode="&#xfd;" 
d="M92 -326c0 24 7.50098 43.3311 22.501 57.998s33.5 22 55.5 22c12 0 27 -3.33301 45 -10s35 -10 51 -10c59.333 0 106.666 19.833 141.999 59.5s74.666 111.167 117.999 214.5l11 25l-379 854c-5.33301 10.667 -8 23 -8 37c0 20 5.33301 38.333 16 55s25 29 43 37
c10.667 5.33301 23.667 8 39 8c18.667 0 36.334 -5.33301 53.001 -16s29 -25 37 -43l303 -691l301 691c8 18 20.333 32.333 37 43s34.334 16 53.001 16c15.333 0 28.333 -2.66699 39 -8c18 -8 32.333 -20.333 43 -37s16 -35 16 -55c0 -8.66699 -2.66699 -21 -8 -37
l-389 -856c-28.667 -64 -54.334 -117.333 -77.001 -160s-48.5 -84.667 -77.5 -126s-58.167 -73.666 -87.5 -96.999s-62.833 -42.166 -100.5 -56.499s-79.167 -21.5 -124.5 -21.5c-116 0 -174 34.667 -174 104zM440.001 1272c0 35.333 18.666 62.667 55.999 82l249 127
c18.667 9.33301 37.334 14 56.001 14c24.667 0 45.5 -8.5 62.5 -25.5s25.5 -37.167 25.5 -60.5c0 -36.667 -15 -62.667 -45 -78l-277 -141c-15.333 -6.66699 -29 -10 -41 -10c-24.667 0 -45.167 9.16699 -61.5 27.5s-24.5 39.833 -24.5 64.5z" />
    <glyph glyph-name="thorn" unicode="&#xfe;" 
d="M162 -309v1642c0 28 8.66699 51.833 26 71.5s39.333 29.5 66 29.5s48.667 -9.83301 66 -29.5s26 -43.5 26 -71.5v-418c23.333 38 62 69 116 93s111 36 171 36c100 0 186.333 -23.833 259 -71.5s126.834 -111.167 162.501 -190.5s53.5 -169.333 53.5 -270
s-17.833 -190.667 -53.5 -270s-89.834 -142.833 -162.501 -190.5s-159 -71.5 -259 -71.5c-60 0 -117 12 -171 36s-92.667 55 -116 93v-418c0 -28 -8.66699 -51.833 -26 -71.5s-39.333 -29.5 -66 -29.5s-48.667 9.83301 -66 29.5s-26 43.5 -26 71.5zM346 512
c0 -114.667 25 -204.834 75 -270.501s121.333 -98.5 214 -98.5s164 32.833 214 98.5s75 155.834 75 270.501s-25 204.834 -75 270.501s-121.333 98.5 -214 98.5s-164 -32.833 -214 -98.5s-75 -155.834 -75 -270.501z" />
    <glyph glyph-name="ydieresis" unicode="&#xff;" 
d="M92 -326c0 24 7.50098 43.3311 22.501 57.998s33.5 22 55.5 22c12 0 27 -3.33301 45 -10s35 -10 51 -10c59.333 0 106.666 19.833 141.999 59.5s74.666 111.167 117.999 214.5l11 25l-379 854c-5.33301 10.667 -8 23 -8 37c0 20 5.33301 38.333 16 55s25 29 43 37
c10.667 5.33301 23.667 8 39 8c18.667 0 36.334 -5.33301 53.001 -16s29 -25 37 -43l303 -691l301 691c8 18 20.333 32.333 37 43s34.334 16 53.001 16c15.333 0 28.333 -2.66699 39 -8c18 -8 32.333 -20.333 43 -37s16 -35 16 -55c0 -8.66699 -2.66699 -21 -8 -37
l-389 -856c-28.667 -64 -54.334 -117.333 -77.001 -160s-48.5 -84.667 -77.5 -126s-58.167 -73.666 -87.5 -96.999s-62.833 -42.166 -100.5 -56.499s-79.167 -21.5 -124.5 -21.5c-116 0 -174 34.667 -174 104zM324.001 1329c0 35.333 11.667 65 35 89s51.666 36 84.999 36
c34.667 0 64.167 -12 88.5 -36s36.5 -53.667 36.5 -89c0 -32.667 -12.333 -61 -37 -85s-54 -36 -88 -36c-33.333 0 -61.666 12.167 -84.999 36.5s-35 52.5 -35 84.5zM715.001 1329c0 35.333 12.167 65 36.5 89s52.5 36 84.5 36c36 0 65.833 -12 89.5 -36
s35.5 -53.667 35.5 -89c0 -32.667 -12.333 -61 -37 -85s-54 -36 -88 -36c-32.667 0 -61 12.167 -85 36.5s-36 52.5 -36 84.5z" />
    <glyph glyph-name="OE" unicode="&#x152;" 
d="M61 717c0 140.667 21 264.169 63 370.502s106.667 190.666 194 252.999s193 93.5 317 93.5c18 0 31 -0.666992 39 -2c2.66699 1.33301 8 2 16 2h418c70.667 0 106 -30.333 106 -91c0 -60 -35.333 -90 -106 -90h-332v-426h225c68.667 0 103 -30 103 -90
s-34.333 -90 -103 -90h-225v-467h342c72.667 0 109 -30 109 -90s-36.333 -90 -109 -90h-483c-124 0 -229.667 31.167 -317 93.5s-152 146.666 -194 252.999s-63 229.833 -63 370.5zM262 717.002c0 -153.333 26.667 -277 80 -371s132.666 -148 237.999 -162v1065
c-105.333 -15.333 -184.666 -69.833 -237.999 -163.5s-80 -216.5 -80 -368.5z" />
    <glyph glyph-name="oe" unicode="&#x153;" 
d="M143 512c0 100 19.8301 189.832 59.4971 269.499s98.5 143.334 176.5 191.001s168.667 71.5 272 71.5c98.667 0 185.834 -22.333 261.501 -67s133.334 -104.834 173.001 -180.501s59.5 -160.834 59.5 -255.501c0 -29.333 -9.5 -53.833 -28.5 -73.5
s-43.833 -29.5 -74.5 -29.5h-299v-288c45.333 6 84.833 18.167 118.5 36.5s65.834 45.5 96.501 81.5c20 23.333 44 35 72 35s50 -9.66699 66 -29s24 -41.666 24 -66.999c0 -26.667 -11 -50 -33 -70c-108 -104.667 -253.333 -157 -436 -157c-103.333 0 -194 23.833 -272 71.5
s-136.833 111.334 -176.5 191.001s-59.5 169.5 -59.5 269.5zM325.997 511.999c0 -57.333 8 -109.834 24 -157.501s41.833 -89.667 77.5 -126s79.5 -61.166 131.5 -74.499v714c-52 -14.667 -96 -41 -132 -79s-61.833 -80.5 -77.5 -127.5s-23.5 -96.833 -23.5 -149.5z
M742.997 601.998h210.999c-37.333 146 -107.666 234.667 -210.999 266v-266z" />
    <glyph glyph-name="Ydieresis" unicode="&#x178;" 
d="M92 1331c0 36.667 14.998 65.333 44.998 86c14.667 10 34.667 15 60 15c38.667 0 67.334 -14.333 86.001 -43l352 -558l352 558c20.667 30 49.334 45 86.001 45c22.667 0 44 -7 64 -21c27.333 -18.667 41 -46 41 -82c0 -23.333 -6.33301 -44.333 -19 -63l-426 -641v-521
c0 -30 -9.16699 -55.167 -27.5 -75.5s-41.833 -30.5 -70.5 -30.5s-52.167 10.167 -70.5 30.5s-27.5 45.5 -27.5 75.5v521l-426 641c-12.667 16 -19 37 -19 63zM316.998 1698c0 35.333 11.833 65 35.5 89s52.167 36 85.5 36c34.667 0 64.167 -12.167 88.5 -36.5
s36.5 -53.833 36.5 -88.5c0 -32.667 -12.333 -61 -37 -85s-54 -36 -88 -36c-33.333 0 -61.833 12.167 -85.5 36.5s-35.5 52.5 -35.5 84.5zM708.998 1698c0 35.333 12.001 65 36.001 89s52 36 84 36c36 0 65.833 -12 89.5 -36s35.5 -53.667 35.5 -89
c0 -32.667 -12.333 -61 -37 -85s-54 -36 -88 -36c-32.667 0 -60.834 12.167 -84.501 36.5s-35.5 52.5 -35.5 84.5z" />
    <glyph glyph-name="circumflex" unicode="&#x2c6;" 
d="M299 1640c0 27.333 13.002 52 39.002 74l209 164c23.333 18 45.666 27 66.999 27c22 0 44.667 -9 68 -27l209 -164c26 -22 39 -46.667 39 -74c0 -26 -8.33301 -47.833 -25 -65.5s-37.667 -26.5 -63 -26.5c-19.333 0 -37.333 7 -54 21l-174 137l-174 -137
c-18.667 -14 -36.334 -21 -53.001 -21c-25.333 0 -46.333 8.83301 -63 26.5s-25 39.5 -25 65.5z" />
    <glyph glyph-name="tilde" unicode="&#x2dc;" 
d="M272 1704c0 19.333 8.99902 39.001 26.999 59.001c32.667 34.667 63 60.167 91 76.5s63.333 24.5 106 24.5c26 0 51.833 -5.5 77.5 -16.5s47.167 -23 64.5 -36s37.833 -25 61.5 -36s47.167 -16.5 70.5 -16.5c32.667 0 63.334 14.333 92.001 43c19.333 19.333 40 29 62 29
c19.333 0 35.666 -7 48.999 -21s20 -31 20 -51s-8.66699 -39.667 -26 -59c-32.667 -34.667 -63 -60.167 -91 -76.5s-63.333 -24.5 -106 -24.5c-26 0 -51.833 5.5 -77.5 16.5s-47.167 23 -64.5 36s-37.833 25 -61.5 36s-47.167 16.5 -70.5 16.5
c-33.333 0 -64.333 -14.333 -93 -43c-19.333 -19.333 -39.666 -29 -60.999 -29c-19.333 0 -35.833 7.16699 -49.5 21.5s-20.5 31.166 -20.5 50.499z" />
    <glyph glyph-name="uni2000" unicode="&#x2000;" horiz-adv-x="983" 
 />
    <glyph glyph-name="uni2001" unicode="&#x2001;" horiz-adv-x="1966" 
 />
    <glyph glyph-name="uni2002" unicode="&#x2002;" horiz-adv-x="983" 
 />
    <glyph glyph-name="uni2003" unicode="&#x2003;" horiz-adv-x="1966" 
 />
    <glyph glyph-name="uni2004" unicode="&#x2004;" horiz-adv-x="655" 
 />
    <glyph glyph-name="uni2005" unicode="&#x2005;" horiz-adv-x="491" 
 />
    <glyph glyph-name="uni2006" unicode="&#x2006;" horiz-adv-x="327" 
 />
    <glyph glyph-name="uni2007" unicode="&#x2007;" horiz-adv-x="327" 
 />
    <glyph glyph-name="uni2008" unicode="&#x2008;" horiz-adv-x="245" 
 />
    <glyph glyph-name="uni2009" unicode="&#x2009;" horiz-adv-x="393" 
 />
    <glyph glyph-name="uni200A" unicode="&#x200a;" horiz-adv-x="109" 
 />
    <glyph glyph-name="uni2010" unicode="&#x2010;" 
d="M213 616c0 31.333 8.83301 53.5 26.5 66.5s43.5 19.5 77.5 19.5h639c70 0 105 -28.667 105 -86s-35 -86 -105 -86h-639c-34 0 -59.833 6.5 -77.5 19.5s-26.5 35.167 -26.5 66.5z" />
    <glyph glyph-name="uni2011" unicode="&#x2011;" 
d="M213 616c0 31.333 8.83301 53.5 26.5 66.5s43.5 19.5 77.5 19.5h639c70 0 105 -28.667 105 -86s-35 -86 -105 -86h-639c-34 0 -59.833 6.5 -77.5 19.5s-26.5 35.167 -26.5 66.5z" />
    <glyph glyph-name="figuredash" unicode="&#x2012;" 
d="M213 616c0 31.333 8.83301 53.5 26.5 66.5s43.5 19.5 77.5 19.5h639c70 0 105 -28.667 105 -86s-35 -86 -105 -86h-639c-34 0 -59.833 6.5 -77.5 19.5s-26.5 35.167 -26.5 66.5z" />
    <glyph glyph-name="endash" unicode="&#x2013;" 
d="M119 616c0 31.333 8.83301 53.5 26.5 66.5s43.5 19.5 77.5 19.5h826c34 0 59.833 -6.5 77.5 -19.5s26.5 -35.167 26.5 -66.5s-8.83301 -53.5 -26.5 -66.5s-43.5 -19.5 -77.5 -19.5h-826c-34 0 -59.833 6.5 -77.5 19.5s-26.5 35.167 -26.5 66.5z" />
    <glyph glyph-name="emdash" unicode="&#x2014;" 
d="M41 616c0 31.333 8.83301 53.5 26.5 66.5s43.5 19.5 77.5 19.5h979c70 0 105 -28.667 105 -86s-35 -86 -105 -86h-979c-34 0 -59.833 6.5 -77.5 19.5s-26.5 35.167 -26.5 66.5z" />
    <glyph glyph-name="quoteleft" unicode="&#x2018;" 
d="M401 870l-0.000976562 14.9971c0 101.333 25 191.5 75 270.5s117.333 135.5 202 169.5c10 4 20.333 6 31 6c18 0 32.667 -5.16699 44 -15.5s17 -23.5 17 -39.5c0 -28 -17 -47.667 -51 -59c-74 -26 -111 -72.667 -111 -140c0 -29.333 13.667 -49.666 41 -60.999
c26 -14 46.833 -33.833 62.5 -59.5s23.5 -54.5 23.5 -86.5c0 -47.333 -16 -87.166 -48 -119.499s-71.333 -48.5 -118 -48.5c-47.333 0 -87.166 16.333 -119.499 49s-48.5 72.334 -48.5 119.001z" />
    <glyph glyph-name="quoteright" unicode="&#x2019;" 
d="M442 780c0 28 17.334 48.0039 52.001 60.0039c73.333 25.333 110 71.666 110 138.999c0 29.333 -13.667 49.666 -41 60.999c-26 14 -46.833 33.833 -62.5 59.5s-23.5 54.5 -23.5 86.5c0 47.333 16 87.166 48 119.499s71.333 48.5 118 48.5
c47.333 0 87.166 -16.333 119.499 -49s48.5 -72.334 48.5 -119.001v-15c0 -101.333 -25 -191.5 -75 -270.5s-117 -135.5 -201 -169.5c-10 -4 -20.333 -6 -31 -6c-18 0 -32.833 5.16699 -44.5 15.5s-17.5 23.5 -17.5 39.5z" />
    <glyph glyph-name="quotesinglbase" unicode="&#x201a;" 
d="M442 -264c0 27.333 17.334 47.001 52.001 59.001c73.333 25.333 110 71.666 110 138.999c0 30 -13.667 50.667 -41 62c-26 14 -46.833 33.667 -62.5 59s-23.5 54 -23.5 86c0 47.333 16 87.166 48 119.499s71.333 48.5 118 48.5c47.333 0 87.166 -16.167 119.499 -48.5
s48.5 -72.166 48.5 -119.499v-14c0 -101.333 -25 -191.5 -75 -270.5s-117 -135.5 -201 -169.5c-10 -4 -20.333 -6 -31 -6c-18 0 -32.833 5.16699 -44.5 15.5s-17.5 23.5 -17.5 39.5z" />
    <glyph glyph-name="quotedblleft" unicode="&#x201c;" 
d="M217 870l-0.000976562 14.9971c0 101.333 25 191.5 75 270.5s117.333 135.5 202 169.5c10 4 20 6 30 6c18 0 32.833 -5.16699 44.5 -15.5s17.5 -23.5 17.5 -39.5c0 -28 -17 -47.667 -51 -59c-74 -26 -111 -72.667 -111 -140c0 -29.333 13.667 -49.666 41 -60.999
c26 -14 46.833 -33.833 62.5 -59.5s23.5 -54.5 23.5 -86.5c0 -47.333 -16 -87.166 -48 -119.499s-71.333 -48.5 -118 -48.5c-47.333 0 -87.166 16.333 -119.499 49s-48.5 72.334 -48.5 119.001zM626.999 869.997l-0.000976562 14.9971c0 101.333 25 191.5 75 270.5
s117 135.5 201 169.5c10 4 20.333 6 31 6c18 0 32.667 -5.16699 44 -15.5s17 -23.5 17 -39.5c0 -28 -17 -47.667 -51 -59c-73.333 -25.333 -110 -72 -110 -140c0 -29.333 13.333 -49.666 40 -60.999c26 -14 47 -33.833 63 -59.5s24 -54.5 24 -86.5
c0 -47.333 -16 -87.166 -48 -119.499s-71.333 -48.5 -118 -48.5c-47.333 0 -87.166 16.333 -119.499 49s-48.5 72.334 -48.5 119.001z" />
    <glyph glyph-name="quotedblright" unicode="&#x201d;" 
d="M238 780c0 28.667 16.999 48.6709 50.999 60.0039c73.333 25.333 110 71.666 110 138.999c0 29.333 -13.667 49.666 -41 60.999c-26 14 -46.833 33.833 -62.5 59.5s-23.5 54.5 -23.5 86.5c0 47.333 16 87.166 48 119.499s71.333 48.5 118 48.5
s86.334 -16.333 119.001 -49s49 -72.334 49 -119.001v-15c0 -101.333 -25 -191.5 -75 -270.5s-117 -135.5 -201 -169.5c-10 -4 -20.333 -6 -31 -6c-18 0 -32.667 5.16699 -44 15.5s-17 23.5 -17 39.5zM646.999 780.004c0 28.667 16.999 48.6699 50.999 60.0029
c74 26 111 72.333 111 139c0 29.333 -13.667 49.666 -41 60.999c-26 14 -46.833 33.833 -62.5 59.5s-23.5 54.5 -23.5 86.5c0 47.333 16 87.166 48 119.499s71.333 48.5 118 48.5s86.334 -16.333 119.001 -49s49 -72.334 49 -119.001v-15c0 -101.333 -25 -191.5 -75 -270.5
s-117.333 -135.5 -202 -169.5c-10 -4 -20 -6 -30 -6c-18 0 -32.833 5.16699 -44.5 15.5s-17.5 23.5 -17.5 39.5z" />
    <glyph glyph-name="quotedblbase" unicode="&#x201e;" 
d="M238 -264c0 28 16.999 47.668 50.999 59.001c73.333 25.333 110 71.666 110 138.999c0 30 -13.667 50.667 -41 62c-26 14 -46.833 33.667 -62.5 59s-23.5 54 -23.5 86c0 47.333 16 87.166 48 119.499s71.333 48.5 118 48.5s86.334 -16.167 119.001 -48.5
s49 -72.166 49 -119.499v-14c0 -101.333 -25 -191.5 -75 -270.5s-117 -135.5 -201 -169.5c-10 -4 -20.333 -6 -31 -6c-18 0 -32.667 5.16699 -44 15.5s-17 23.5 -17 39.5zM646.999 -263.999c0 28 16.999 47.667 50.999 59c74 26 111 72.333 111 139
c0 30 -13.667 50.667 -41 62c-26 14 -46.833 33.667 -62.5 59s-23.5 54 -23.5 86c0 47.333 16 87.166 48 119.499s71.333 48.5 118 48.5s86.334 -16.167 119.001 -48.5s49 -72.166 49 -119.499v-14c0 -101.333 -25 -191.5 -75 -270.5s-117.333 -135.5 -202 -169.5
c-10 -4 -20 -6 -30 -6c-18 0 -32.833 5.16699 -44.5 15.5s-17.5 23.5 -17.5 39.5z" />
    <glyph glyph-name="bullet" unicode="&#x2022;" 
d="M354 614c0 80 27.833 148.167 83.5 204.5s123.5 84.5 203.5 84.5s148.167 -28.167 204.5 -84.5s84.5 -124.5 84.5 -204.5s-28.167 -147.667 -84.5 -203s-124.5 -83 -204.5 -83s-147.833 27.667 -203.5 83s-83.5 123 -83.5 203z" />
    <glyph glyph-name="ellipsis" unicode="&#x2026;" 
d="M23 166c0 47.333 15.833 86.833 47.5 118.5s70.834 47.5 117.501 47.5s86 -16 118 -48s48 -71.333 48 -118s-16 -86 -48 -118s-71.333 -48 -118 -48s-85.834 15.833 -117.501 47.5s-47.5 71.167 -47.5 118.5zM473 166c0 46.667 15.833 86 47.5 118s71.167 48 118.5 48
s86.833 -16 118.5 -48s47.5 -71.333 47.5 -118s-15.833 -86 -47.5 -118s-71.167 -48 -118.5 -48s-86.833 16 -118.5 48s-47.5 71.333 -47.5 118zM924 166c0 46.667 16 86 48 118s71.333 48 118 48s85.834 -15.833 117.501 -47.5s47.5 -71.167 47.5 -118.5
s-15.833 -86.833 -47.5 -118.5s-70.834 -47.5 -117.501 -47.5s-86 16 -118 48s-48 71.333 -48 118z" />
    <glyph glyph-name="uni202F" unicode="&#x202f;" horiz-adv-x="393" 
 />
    <glyph glyph-name="guilsinglleft" unicode="&#x2039;" 
d="M301 535c0 21.333 11 42.998 33 64.998l379 387c22 22 45 33 69 33c22 0 39.833 -6.83301 53.5 -20.5s20.5 -31.5 20.5 -53.5c0 -25.333 -11.667 -50.666 -35 -75.999l-321 -335l321 -336c23.333 -25.333 35 -50.666 35 -75.999c0 -22 -6.83301 -39.833 -20.5 -53.5
s-31.5 -20.5 -53.5 -20.5c-24 0 -47 11 -69 33l-379 387c-22 22 -33 44 -33 66z" />
    <glyph glyph-name="guilsinglright" unicode="&#x203a;" 
d="M322 123c0 26 11.333 51.333 34 76l322 336l-322 335c-22.667 24.667 -34 50 -34 76c0 22 6.66699 39.833 20 53.5s31 20.5 53 20.5c24.667 0 48 -11 70 -33l379 -387c22 -22 33 -43.667 33 -65c0 -22 -11 -44 -33 -66l-379 -387c-22 -22 -45.333 -33 -70 -33
c-22 0 -39.667 6.83301 -53 20.5s-20 31.5 -20 53.5z" />
    <glyph glyph-name="uni205F" unicode="&#x205f;" horiz-adv-x="491" 
 />
    <glyph glyph-name="Euro" unicode="&#x20ac;" 
d="M70 559c0 31.333 8.83301 53.499 26.5 66.499s43.5 19.5 77.5 19.5h68v143h-68c-34 0 -59.833 6.5 -77.5 19.5s-26.5 35.167 -26.5 66.5c0 58 34.667 87 104 87h68c0 151.333 40.833 271.333 122.5 360s199.834 133 354.501 133c95.333 0 172.833 -15.667 232.5 -47
s112.5 -78.333 158.5 -141c26 -35.333 39 -68.333 39 -99c0 -29.333 -8.16699 -51 -24.5 -65s-36.166 -21 -59.499 -21c-34 0 -58.667 15 -74 45c-62 106.667 -152.667 160 -272 160c-52 0 -97.167 -8.16699 -135.5 -24.5s-68.333 -39 -90 -68s-37.667 -61.5 -48 -97.5
s-15.5 -75.667 -15.5 -119v-16h344c70 0 105 -29 105 -87c0 -57.333 -35 -86 -105 -86h-344v-143h344c70 0 105 -28.667 105 -86s-35 -86 -105 -86h-344v-16c0 -43.333 5.16699 -83 15.5 -119s26.333 -68.667 48 -98s51.667 -52.166 90 -68.499s83.5 -24.5 135.5 -24.5
c119.333 0 210 53.333 272 160c15.333 30 40 45 74 45c23.333 0 43.166 -7 59.499 -21s24.5 -35.667 24.5 -65c0 -30 -13 -62.667 -39 -98c-46 -62.667 -98.833 -109.667 -158.5 -141s-137.167 -47 -232.5 -47c-154.667 0 -272.834 44.333 -354.501 133
s-122.5 208.667 -122.5 360h-68c-34 0 -59.833 6.5 -77.5 19.5s-26.5 35.167 -26.5 66.5z" />
    <glyph glyph-name="trademark" unicode="&#x2122;" 
d="M14 1374c0 40 22 60 66 60h424c43.333 0 65 -20 65 -60c0 -38 -21.667 -57 -65 -57h-146v-555c0 -22 -6.33301 -38.5 -19 -49.5s-28 -16.5 -46 -16.5c-19.333 0 -35.5 5.5 -48.5 16.5s-19.5 27.5 -19.5 49.5v555h-145c-44 0 -66 19 -66 57zM645 762v610
c0 19.333 5.5 34.5 16.5 45.5s27.5 16.5 49.5 16.5c18.667 0 32.667 -4 42 -12s18.333 -20 27 -36l162 -278l162 278c8 16 17 28 27 36s24.333 12 43 12c43.333 0 65 -20.667 65 -62v-610c0 -22 -6.5 -38.5 -19.5 -49.5s-29.167 -16.5 -48.5 -16.5
c-18 0 -33.333 5.5 -46 16.5s-19 27.5 -19 49.5v403l-121 -217c-10 -17.333 -24.333 -26 -43 -26s-33 8.66699 -43 26l-121 217v-403c0 -22 -6.33301 -38.5 -19 -49.5s-28 -16.5 -46 -16.5c-19.333 0 -35.5 5.5 -48.5 16.5s-19.5 27.5 -19.5 49.5z" />
    <glyph glyph-name="uni25FC" unicode="&#x25fc;" horiz-adv-x="1024" 
d="M0 0v1024h1024v-1024h-1024z" />
    <glyph glyph-name="uniFB01" unicode="&#xfb01;" 
d="M80 942c0 26.667 8.66602 46.998 25.999 60.998s40.666 21 69.999 21h123c0 76.667 10.333 143.667 31 201s48.334 102.166 83.001 134.499s72.167 56.166 112.5 71.499s82.833 23 127.5 23c68.667 0 124.834 -7.16699 168.501 -21.5s85.167 -37.166 124.5 -68.499
c40 -32 60 -64 60 -96c0 -26.667 -8 -47.334 -24 -62.001s-36.667 -22 -62 -22c-22 0 -40 8 -54 24c-31.333 34 -60.833 56.167 -88.5 66.5s-66.167 15.5 -115.5 15.5c-41.333 0 -76 -13 -104 -39s-47.5 -58.167 -58.5 -96.5s-16.5 -81.833 -16.5 -130.5h453
c26 0 47.833 -7.83301 65.5 -23.5s26.5 -35.167 26.5 -58.5v-840c0 -29.333 -8.33301 -53.666 -25 -72.999s-39 -29 -67 -29c-27.333 0 -49.5 9.83301 -66.5 29.5s-25.5 43.834 -25.5 72.501v758h-361v-758c0 -29.333 -8.33301 -53.666 -25 -72.999s-39 -29 -67 -29
c-27.333 0 -49.5 9.83301 -66.5 29.5s-25.5 43.834 -25.5 72.501v758h-123c-64 0 -96 27.333 -96 82z" />
    <glyph glyph-name="uniFB02" unicode="&#xfb02;" 
d="M80 942c0 26.667 8.66797 46.9961 26.001 60.9961s40.666 21 69.999 21h123c0 62 6.66699 117 20 165s31 87.167 53 117.5s48.5 55.333 79.5 75s63 33.334 96 41.001s68.167 11.5 105.5 11.5h283c28.667 0 51.167 -7.66699 67.5 -23s24.5 -37 24.5 -65v-1244
c0 -29.333 -8.33301 -53.666 -25 -72.999s-39 -29 -67 -29c-27.333 0 -49.5 9.83301 -66.5 29.5s-25.5 43.834 -25.5 72.501v1168h-193c-58 0 -100.5 -22.833 -127.5 -68.5s-40.5 -104.834 -40.5 -177.501h125c29.333 0 52.833 -7 70.5 -21s26.5 -34.333 26.5 -61
c0 -27.333 -8.66699 -47.833 -26 -61.5s-41 -20.5 -71 -20.5h-125v-758c0 -29.333 -8.33301 -53.666 -25 -72.999s-39 -29 -67 -29c-27.333 0 -49.5 9.83301 -66.5 29.5s-25.5 43.834 -25.5 72.501v758h-123c-64 0 -96 27.333 -96 82z" />
    <glyph glyph-name="glyph1" horiz-adv-x="0" 
 />
    <glyph glyph-name="glyph2" horiz-adv-x="682" 
 />
  </font>
</defs>
</svg>
